<svg xmlns="http://www.w3.org/2000/svg" viewBox="0 0 24 24"><path d="M9 2.498A1.5 1.5 0 0 1 10.5 1h3A1.5 1.5 0 0 1 15 2.5v5.017l6.257-6.221a1 1 0 0 1 1.415 0l.035.035a1 1 0 0 1 0 1.415L2.743 22.71a1 1 0 0 1-1.414 0l-.036-.036a1 1 0 0 1 0-1.414L6 16.53V14a2 2 0 0 1 2-2h1V2.498Zm5 6.013V3a.5.5 0 0 0-.5-.5h-3a.5.5 0 0 0-.5.5v9h.511l1.988-1.996L14 8.51ZM8 20.603a.25.25 0 0 1 .073-.176l8.242-8.289a.233.233 0 0 1 .228-.063A2.001 2.001 0 0 1 18 14v5a2 2 0 0 1-2 2v1a1 1 0 1 1-2 0v-1h-4v1a1 1 0 1 1-2 0v-1.397Z"/></svg>