<svg xmlns="http://www.w3.org/2000/svg" viewBox="0 0 24 24"><path d="M9 2.333C9 1.597 9.597 1 10.333 1h3.334C14.403 1 15 1.597 15 2.333V7.55l6.254-6.254a1 1 0 011.414 0l.036.035a1 1 0 010 1.414L15 10.45l-.548.549L13.449 12l-7.407 7.408L2.748 22.7a1 1 0 01-1.414 0l-.036-.035a1 1 0 010-1.415L6 16.55V14a2 2 0 012-2h2.55L14 8.55V3h-4v7.5a.5.5 0 01-1 0V2.333zm7.503 9.73A2 2 0 0118 14v5a2 2 0 01-2 2v1a1 1 0 11-2 0v-1h-4v1a1 1 0 11-2 0v-1.515a.5.5 0 01.146-.354l7.94-7.94a.438.438 0 01.417-.127z"/></svg>