<svg xmlns="http://www.w3.org/2000/svg" viewBox="0 0 24 24"><path d="M21.702 3.522L19.38 2.73a22.771 22.771 0 00-14.758 0L2.3 3.523h-.001A1.194 1.194 0 001.5 4.657V15.77A3.547 3.547 0 005 19.362h2.614a2.1 2.1 0 011.504.634l2.13 2.186a1.05 1.05 0 001.485.02l.019-.02 2.13-2.186a2.1 2.1 0 011.504-.634H19a3.547 3.547 0 003.5-3.59V4.657a1.195 1.195 0 00-.798-1.136zM12 16.5a1.5 1.5 0 111.5-1.5 1.5 1.5 0 01-1.5 1.5zm.75-4.5H12a1.5 1.5 0 010-3h.75a.75.75 0 100-1.5H10.5a1.5 1.5 0 010-3h2.25a3.75 3.75 0 110 7.5z"/></svg>