<svg width="24" height="24" viewBox="0 0 24 24" fill="none" xmlns="http://www.w3.org/2000/svg">
<path fill-rule="evenodd" clip-rule="evenodd" d="M3.5 10.5C3.5 6.63401 6.63401 3.5 10.5 3.5C14.366 3.5 17.5 6.63401 17.5 10.5C17.5 14.366 14.366 17.5 10.5 17.5C6.63401 17.5 3.5 14.366 3.5 10.5ZM10.5 2.5C6.08172 2.5 2.5 6.08172 2.5 10.5C2.5 14.9183 6.08172 18.5 10.5 18.5C12.5292 18.5 14.382 17.7445 15.7923 16.4994L20.6464 21.3536C20.8417 21.5488 21.1583 21.5488 21.3536 21.3536C21.5488 21.1583 21.5488 20.8417 21.3536 20.6464L16.4994 15.7923C17.7445 14.382 18.5 12.5292 18.5 10.5C18.5 6.08172 14.9183 2.5 10.5 2.5Z" fill="#161616"/>
</svg>
