<svg xmlns="http://www.w3.org/2000/svg" viewBox="0 0 24 24"><path d="M12 2a9.996 9.996 0 1 1-8.616 15.059l-.073-.12a3 3 0 0 1-.104-.172 9.94 9.94 0 0 1-1.16-5.681q.013-.14.033-.28l.012-.096a10 10 0 0 1 .173-.965q.039-.164.084-.327c.049-.182.098-.365.156-.544a10 10 0 0 1 .572-1.372l.046-.095q.136-.256.284-.503l.004-.006A9.99 9.99 0 0 1 12 2M5.245 13.176c-.16-.23-.32-.46-.526-.55a3.3 3.3 0 0 0-.674-1.466 7.982 7.982 0 0 0 10.85 8.29l-.231-.459a.8.8 0 0 0-.24-.324.83.83 0 0 0-.68-.017l-2.687.72c.044-.427.033-.86-.033-1.284-.065-.43.047-.868.31-1.215a2.8 2.8 0 0 1 1.137-.55 3.1 3.1 0 0 0 1.566-1.357l.848.047q1.141-.072 2.284-.024a.4.4 0 0 1 .218.053.42.42 0 0 1 .127.266c.124.56.355 1.09.68 1.561l.03.043.038.055A7.982 7.982 0 0 0 14.217 4.32a1.7 1.7 0 0 0-.03.966c.032.082.077.158.123.233.041.07.083.14.114.215a.88.88 0 0 1-.391 1.08l-1.095-1.278a1.5 1.5 0 0 0-.409.836q.008.241.09.466l.522 1.708a11.2 11.2 0 0 0-2.417 1.417.144.144 0 0 0-.042.237l.63.975a.5.5 0 0 1 .105.257.4.4 0 0 1-.095.238 1.17 1.17 0 0 1-1.31.289 3 3 0 0 1-1.13-.866 17 17 0 0 1-1.324-1.64c-.341.021-.65.213-.818.51a3 3 0 0 0-.33.947l-.466 2.063-.173.754c-.205-.09-.366-.32-.526-.55z"/></svg>