<svg xmlns="http://www.w3.org/2000/svg" viewBox="0 0 24 24"><path d="M12 2a9.996 9.996 0 1 1-8.616 15.059 3.849 3.849 0 0 0-.073-.12 2.708 2.708 0 0 1-.104-.172 9.936 9.936 0 0 1-1.16-5.681c.008-.094.02-.187.033-.28l.012-.096a9.93 9.93 0 0 1 .173-.965c.025-.11.055-.218.084-.327.049-.182.098-.365.156-.544a9.917 9.917 0 0 1 .572-1.372 2.69 2.69 0 0 1 .046-.095c.09-.171.186-.338.284-.503l.004-.006A9.985 9.985 0 0 1 12 2zM5.245 13.176c-.16-.23-.32-.46-.526-.55a3.302 3.302 0 0 0-.674-1.466 7.982 7.982 0 0 0 10.85 8.29l-.231-.459a.82.82 0 0 0-.24-.324.83.83 0 0 0-.68-.017l-2.687.72c.044-.427.033-.86-.033-1.284-.065-.43.047-.868.31-1.215a2.824 2.824 0 0 1 1.137-.55 3.09 3.09 0 0 0 1.566-1.357l.848.047c.76-.048 1.523-.056 2.284-.024a.394.394 0 0 1 .218.053.42.42 0 0 1 .127.266c.124.56.355 1.09.68 1.561l.03.043.038.055A7.982 7.982 0 0 0 14.217 4.32a1.719 1.719 0 0 0-.03.966c.032.082.077.158.123.233.041.07.083.14.114.215a.88.88 0 0 1-.391 1.08l-1.095-1.278a1.495 1.495 0 0 0-.409.836c.005.16.035.317.09.466l.522 1.708a11.24 11.24 0 0 0-2.417 1.417.144.144 0 0 0-.042.237l.63.975a.508.508 0 0 1 .105.257.394.394 0 0 1-.095.238 1.167 1.167 0 0 1-1.31.289 3.016 3.016 0 0 1-1.13-.866 16.844 16.844 0 0 1-1.324-1.64c-.341.021-.65.213-.818.51a2.976 2.976 0 0 0-.33.947l-.466 2.063-.173.754c-.205-.09-.366-.32-.526-.55z"/></svg>