<svg xmlns="http://www.w3.org/2000/svg" viewBox="0 0 24 24"><path d="M19.799 4.5c.456 0 .896.132 1.272.382C22.165 5.61 24 7.556 24 12.415v4.787a2.3 2.3 0 0 1-2.298 2.298H21a3 3 0 1 0-6 0H9a3 3 0 1 0-6 0h-.702A2.3 2.3 0 0 1 0 17.202V6.798A2.3 2.3 0 0 1 2.298 4.5zm2.7 7.5c0-3.75-1.67-5.439-2.277-5.842a.75.75 0 0 0-.423-.126H16.85V10.5c2.667.155 4.532.646 5.649 1.5m-7.18-5.968H2.298a.767.767 0 0 0-.766.766v3.68h13.787z" clip-rule="evenodd"/><path d="M7.5 19.5a1.5 1.5 0 1 1-3 0 1.5 1.5 0 0 1 3 0M18 21a1.5 1.5 0 1 0 0-3 1.5 1.5 0 0 0 0 3"/></svg>