<svg xmlns="http://www.w3.org/2000/svg" viewBox="0 0 24 24"><path d="M9 7.5A1.5 1.5 0 0 1 10.5 9v4.904a3 3 0 1 1-3 0V9A1.5 1.5 0 0 1 9 7.5"/><path d="M9 0a6 6 0 0 1 6 6v6c0 .75 1.5 2.812 1.5 4.5a7.5 7.5 0 0 1-15 0c0-1.688.75-3 1.5-4.5V6a6 6 0 0 1 6-6m0 3a3 3 0 0 0-3 3s.106 6.405 0 6.75-.037.3-.602 1.052A4.5 4.5 0 1 0 13.5 16.5c0-1.016-.49-1.946-1.055-2.698 0 0-.445-.661-.445-1.052V6a3 3 0 0 0-3-3" clip-rule="evenodd"/><path d="M21 7.5a1.5 1.5 0 0 1 0 3h-3v-3zM21 3a1.5 1.5 0 0 1 0 3h-3V3z"/></svg>