<svg xmlns="http://www.w3.org/2000/svg" viewBox="0 0 24 24"><path d="M22.262 10.305a.835.835 0 00-.437-1.406l-5.75-.87a1.048 1.048 0 01-.793-.591L12.706 1.96a.772.772 0 00-1.412 0L8.718 7.438a1.05 1.05 0 01-.793.592l-5.75.87a.834.834 0 00-.436 1.406l4.192 4.273a1.05 1.05 0 01.286.905l-.995 6.05a.795.795 0 001.142.869l5.129-2.83a1.05 1.05 0 011.014 0l5.129 2.83a.795.795 0 001.142-.868l-.991-6.051a1.05 1.05 0 01.287-.905zm-5.72 1.55l-.611.624a4.05 4.05 0 00-1.104 3.488l.113.69a.45.45 0 01-.662.466l-.322-.177a4.047 4.047 0 00-1.506-.479.493.493 0 01-.45-.475V8.84a.297.297 0 01.566-.126 4.05 4.05 0 003.06 2.281l.662.1a.45.45 0 01.254.76z"/></svg>