<svg xmlns="http://www.w3.org/2000/svg" viewBox="0 0 24 24"><path d="M12 1.5c5.799 0 10.5 4.702 10.5 10.5 0 5.8-4.701 10.5-10.5 10.5S1.5 17.8 1.5 12C1.5 6.203 6.201 1.5 12 1.5zM5.232 8.764a7.5 7.5 0 007.225 10.723c.082-.359.098-.712-.086-1.018a1.44 1.44 0 00-.42-.417l-.168-.114c-.198-.134-.397-.268-.538-.456a1.872 1.872 0 01-.142-1.496l.082-.208a3.559 3.559 0 00.343-1.721 5.358 5.358 0 01-1.85-.496 4.327 4.327 0 01-.76-.56l-.236-.211c-.4-.362-.798-.722-1.298-.906a2.203 2.203 0 01-.794-.35 1.438 1.438 0 01-.215-.299l-1.04-2.26-.103-.21zm8.36-4.094l.163.173c.341.382.64.804.886 1.258a5.28 5.28 0 00-2.954 2.472 1.223 1.223 0 01-.208.416l-.069.065c-.051.046-.103.092-.129.155a.446.446 0 00-.01.192l.025.093c.099.354.208.704.328 1.051-.425.248-1.051.46-1.334.057a.885.885 0 01-.12-.29l-.037-.161c-.052-.244-.102-.475-.325-.533a.62.62 0 00-.202 0l-1.248.307a4.169 4.169 0 00-.072 1.944c.765-.115 1.698-.164 2.15.464.063.089.118.19.17.296l.074.16c.16.343.315.679.665.707.19-.006.375-.06.54-.156a3.46 3.46 0 013.285.283c.277.258.627.424 1.002.478l.077-.004c.113-.007.23-.014.308.063a.5.5 0 01.085.3c.07.521.646.814 1.166.893l.228.028.435.04.135.02.002-.005.056.008A7.503 7.503 0 0013.591 4.67z"/></svg>