<svg xmlns="http://www.w3.org/2000/svg" viewBox="0 0 24 24"><path d="M15.872 3.231c-.19-.533-.695-.909-1.384-1.03-1.12-.197-2.193.066-3.291.8L9.023 4.464l-.008-.012-.183.123-4.808-2.047a1.53 1.53 0 0 0-1.891.666 1.525 1.525 0 0 0 .315 1.889l2.423 2.18-.984.662-1.354-.347a1.74 1.74 0 0 0-1.4.241l-.796.536a.65.65 0 0 0-.025 1.06l2.577 1.92.069.046a2.84 2.84 0 0 0 2.204.245 9.4 9.4 0 0 0 2.093-.943l1.086 3.118a1.58 1.58 0 0 0 1.69 1.045 1.58 1.58 0 0 0 1.376-1.558v-5.36l2.072-1.41c1.013-.683 1.459-1.057 1.987-1.666.443-.51.59-1.102.406-1.622m-12.561.88a.225.225 0 0 1-.046-.278c.055-.097.174-.14.263-.103l4.019 1.712-1.576 1.062zM14.484 4c-.42.484-.745.774-1.734 1.44l-2.358 1.606a.65.65 0 0 0-.284.537v5.702a.278.278 0 0 1-.54.089L8.214 9.482a.65.65 0 0 0-.977-.325c-.89.6-1.668.989-2.45 1.225a1.53 1.53 0 0 1-1.156-.114L1.824 8.922l.035-.024a.44.44 0 0 1 .35-.06l1.637.42c.18.046.371.013.525-.09l1.917-1.292c.019-.013.028-.034.045-.048l2.892-1.95c.018-.01.04-.008.057-.02l2.64-1.778c.814-.544 1.557-.733 2.341-.598.247.043.367.136.384.185.014.04-.017.166-.163.334"/></svg>