<svg xmlns="http://www.w3.org/2000/svg" viewBox="0 0 24 24"><path d="M23.808 4.846c-.285-.8-1.042-1.363-2.077-1.543-1.68-.296-3.29.097-4.937 1.198l-3.26 2.197-.012-.019-.274.185-7.212-3.07a2.29 2.29 0 0 0-2.837.998 2.29 2.29 0 0 0 .473 2.834l3.635 3.269-1.477.994-2.03-.52a2.6 2.6 0 0 0-2.101.361l-1.194.805a.975.975 0 0 0-.037 1.59l3.866 2.88a1 1 0 0 0 .102.068 4.26 4.26 0 0 0 3.307.367c1.035-.313 2.053-.77 3.139-1.414l1.63 4.677a2.37 2.37 0 0 0 2.534 1.567 2.374 2.374 0 0 0 2.065-2.337v-8.04l3.107-2.116c1.52-1.023 2.188-1.583 2.98-2.498.665-.766.887-1.653.61-2.433M4.966 6.168a.34.34 0 0 1-.068-.42c.082-.144.26-.207.393-.152l6.03 2.567-2.365 1.593zM21.726 6c-.63.726-1.117 1.162-2.601 2.162l-3.538 2.408a.97.97 0 0 0-.426.806v8.551a.418.418 0 0 1-.808.134l-2.034-5.838a.974.974 0 0 0-1.466-.488c-1.334.9-2.501 1.483-3.674 1.837a2.3 2.3 0 0 1-1.734-.17l-2.71-2.02.053-.035a.66.66 0 0 1 .526-.091l2.455.63c.27.07.557.02.788-.136l2.875-1.937c.028-.019.042-.05.067-.072l4.339-2.924c.027-.015.059-.013.085-.03L17.88 6.12c1.224-.816 2.337-1.1 3.514-.897.37.065.55.204.576.277.02.06-.027.25-.246.501"/></svg>