<svg xmlns="http://www.w3.org/2000/svg" viewBox="0 0 24 24"><path d="M24 14.25V21a.75.75 0 0 1-.75.75h-.287a.75.75 0 0 1-.67-.415L21 18.75H3l-1.293 2.585a.75.75 0 0 1-.671.415H.75A.75.75 0 0 1 0 21v-6.75a3 3 0 0 1 .823-2.064 2.1 2.1 0 0 0 .677-1.4v-5.31a1.23 1.23 0 0 1 .684-1.16l1.991-.811c4.106-1.673 11.544-1.673 15.65 0l1.991.813a1.23 1.23 0 0 1 .684 1.16l-.003 5.305a2.1 2.1 0 0 0 .678 1.4A3 3 0 0 1 24 14.25m-17.25-3h3a.75.75 0 0 0 0-1.5H8.562a3.752 3.752 0 0 1 6.687-.374.75.75 0 1 0 1.298-.752 5.25 5.25 0 0 0-9.047-.08V7.5a.75.75 0 0 0-1.5 0v3a.75.75 0 0 0 .75.75M18 12a.75.75 0 0 0-.75-.75h-3a.75.75 0 0 0 0 1.5h1.188a3.751 3.751 0 0 1-6.687.374.75.75 0 1 0-1.298.752 5.25 5.25 0 0 0 9.047.079V15a.75.75 0 0 0 1.5 0z"/></svg>