<svg xmlns="http://www.w3.org/2000/svg" viewBox="0 0 24 24"><path d="M7.333 1C6.597 1 6 1.597 6 2.333c0 .03.002.06.006.09A.504.504 0 0 0 6 2.5v1a.5.5 0 0 0 1 0V3h4v.5a.5.5 0 0 0 1 0v-1a.505.505 0 0 0-.006-.077.675.675 0 0 0 .006-.09C12 1.597 11.403 1 10.667 1H7.333zM3 7a2 2 0 0 1 2-2h8a2 2 0 0 1 2 2v3.637a.527.527 0 0 1-.427.509 7.003 7.003 0 0 0-5.198 9.122c.12.347-.125.732-.492.732H7v1a1 1 0 1 1-2 0v-1a2 2 0 0 1-2-2V7zm18.001 11.001A5 5 0 1 1 11 18a5 5 0 0 1 10.001.001zm-2 0a1 1 0 0 0-1-1h-1v-1a1 1 0 1 0-2 0v1h-1A1 1 0 0 0 14 19h1v1a1 1 0 1 0 2 0v-1h1a1 1 0 0 0 1-1z"/></svg>