<svg xmlns="http://www.w3.org/2000/svg" viewBox="0 0 24 24"><path d="M7.333 1C6.597 1 6 1.597 6 2.333c0 .03.002.06.006.09A.504.504 0 006 2.5v1a.5.5 0 001 0V3h4v.5a.5.5 0 001 0v-1a.505.505 0 00-.006-.077.675.675 0 00.006-.09C12 1.597 11.403 1 10.667 1H7.333zM3 7a2 2 0 012-2h8a2 2 0 012 2v3.637a.527.527 0 01-.427.509 7.003 7.003 0 00-5.198 9.122c.12.347-.125.732-.492.732H7v1a1 1 0 11-2 0v-1a2 2 0 01-2-2V7zm18.001 11.001A5 5 0 1111 18a5 5 0 0110.001.001zm-2 0a1 1 0 00-1-1h-1v-1a1 1 0 10-2 0v1h-1A1 1 0 0014 19h1v1a1 1 0 102 0v-1h1a1 1 0 001-1z"/></svg>