<svg xmlns="http://www.w3.org/2000/svg" viewBox="0 0 24 24"><path d="m11.533 13.927 2.332-2.407 2.162-2.23 2.448-2.527 2.44-2.518a1.047 1.047 0 0 0 0-1.446.97.97 0 0 0-1.37-.03l-.031.03-2.538 2.62a.98.98 0 0 1-.865.28.7.7 0 0 1-.267-.116A7.8 7.8 0 0 0 11.999 4.5c-4.259 0-8.033 2.58-10.4 5.708a2.98 2.98 0 0 0 0 3.587 13 13 0 0 0 3.372 3.11.525.525 0 0 1 .1.8l-1.987 2.05a1.046 1.046 0 0 0 0 1.446.97.97 0 0 0 1.372.029l.028-.029 2.969-3.064 1.92-1.98zc-.067-.017.023.005 0 0m-1.447-1.723a.6.6 0 0 1-.146.475l-1.55 1.6a.432.432 0 0 1-.711-.099v.001a5.1 5.1 0 0 1-.488-2.18 4.89 4.89 0 0 1 4.808-4.963 4.7 4.7 0 0 1 2.112.504.46.46 0 0 1 .096.733l-1.55 1.6a.55.55 0 0 1-.46.15 2 2 0 0 0-.198-.01A1.956 1.956 0 0 0 10.076 12q0 .103.01.204m12.315 1.591c-2.37 3.125-6.144 5.705-10.402 5.705q-.202 0-.403-.006c-.781-.024-1.088-1.532-.536-2.102l.28-.29a.5.5 0 0 1 .39-.148q.134.008.269.008a4.89 4.89 0 0 0 4.808-4.96v-.05a1.12 1.12 0 0 1 .297-.798l2.505-2.584a.893.893 0 0 1 1.256-.057 13 13 0 0 1 1.536 1.695 2.98 2.98 0 0 1 0 3.587"/></svg>