<svg xmlns="http://www.w3.org/2000/svg" viewBox="0 0 24 24"><path d="m15.431 9.576-.034.033a6.75 6.75 0 0 1 3.353 5.823 6.757 6.757 0 0 1-6.75 6.75 6.757 6.757 0 0 1-6.75-6.75A6.75 6.75 0 0 1 8.603 9.61a27 27 0 0 1-.793-.76C5.37 6.42 3.827 4.022 3.125 2.81l1.298-.753c.665 1.15 2.128 3.421 4.447 5.731.296.296.59.582.885.848q.11.1.22.192l.148.126A6.7 6.7 0 0 1 12 8.683c.3 0 .594.026.884.064a25 25 0 0 1-1.381-1.106 24 24 0 0 1-1.288-1.22 28 28 0 0 1-3-3.557L8.44 2a26.8 26.8 0 0 0 3.547 4.053l.166-.151c.186-.17.372-.339.558-.529A27 27 0 0 0 15.56 2l1.227.864a28 28 0 0 1-3.005 3.562c-.153.156-.306.296-.46.436l-.196.18c.584.477 1.116.874 1.553 1.179l.128-.122q.16-.149.323-.31c2.32-2.312 3.783-4.584 4.448-5.733l1.298.752c-.702 1.213-2.245 3.61-4.686 6.042-.254.254-.508.492-.758.726m-1.484 6.52.86-.318a.297.297 0 0 0 0-.556l-.86-.318a2.3 2.3 0 0 1-1.351-1.351l-.318-.86a.296.296 0 0 0-.556 0l-.318.86a2.3 2.3 0 0 1-1.351 1.351l-.86.318a.297.297 0 0 0 0 .556l.86.318c.626.232 1.12.725 1.35 1.351l.319.86c.095.258.46.258.556 0l.318-.86a2.3 2.3 0 0 1 1.351-1.351"/></svg>