<svg xmlns="http://www.w3.org/2000/svg" viewBox="0 0 24 24"><path d="M7.5 1.5c-3 0-4.925.895-5.756 2.026a1.496 1.496 0 00-.244.88V20.09a2.195 2.195 0 001.875 2.41h8.25a2.193 2.193 0 001.875-2.41V4.5a1.623 1.623 0 00-.313-1.014C12.262 2.358 10.5 1.5 7.5 1.5zm3 8.25a.75.75 0 01-.75.75h-4.5a.75.75 0 01-.75-.75v-3A.75.75 0 015.25 6h4.5a.75.75 0 01.75.75zm12 1.354v4.646a3.75 3.75 0 01-7.5 0v-3a1.5 1.5 0 013 0v3a.75.75 0 001.5 0v-4.647a1.5 1.5 0 00-.55-1.16l-3.4-2.783a1.5 1.5 0 011.9-2.32v-.001l3.4 2.782a4.5 4.5 0 011.65 3.483z"/></svg>