<svg xmlns="http://www.w3.org/2000/svg" viewBox="0 0 24 24"><path d="m21.701 3.523-2.323-.794a22.77 22.77 0 0 0-14.758 0l-2.322.793A1.195 1.195 0 0 0 1.5 4.658v11.114a3.547 3.547 0 0 0 3.5 3.59h2.613a2.1 2.1 0 0 1 1.504.635l2.13 2.186.02.019a1.05 1.05 0 0 0 1.485-.02l2.13-2.185a2.1 2.1 0 0 1 1.503-.634H19a3.547 3.547 0 0 0 3.5-3.591V4.659a1.19 1.19 0 0 0-.798-1.136zm-3.7 5.437h-1.536a8.8 8.8 0 0 1-1.116 3.954q-.153.256-.33.497a13 13 0 0 0 1.491.088 1.5 1.5 0 0 1-.02 3 12.4 12.4 0 0 1-4.53-.775 12.3 12.3 0 0 1-4.444.775 1.5 1.5 0 1 1-.032-3 13 13 0 0 0 1.442-.09 7 7 0 0 1-.27-.41A8.7 8.7 0 0 1 7.531 8.96h-1.53a1.5 1.5 0 1 1 0-3h4.5v-.712a1.5 1.5 0 0 1 3 0v.71H18a1.5 1.5 0 0 1 0 3zm-7.46 0h2.913a5.5 5.5 0 0 1-.677 2.409 3.5 3.5 0 0 1-.81.928 3.3 3.3 0 0 1-.748-.857h.001a5.5 5.5 0 0 1-.68-2.48z"/></svg>