<svg xmlns="http://www.w3.org/2000/svg" viewBox="0 0 24 24"><path d="M6 4.5A1.5 1.5 0 1 1 4.5 3 1.5 1.5 0 0 1 6 4.5m7.5 0A1.5 1.5 0 1 1 12 3a1.5 1.5 0 0 1 1.5 1.5m7.5 0A1.5 1.5 0 1 1 19.5 3 1.5 1.5 0 0 1 21 4.5M6 12a1.5 1.5 0 1 1-1.5-1.5A1.5 1.5 0 0 1 6 12m7.5 0a1.5 1.5 0 1 1-1.5-1.5 1.5 1.5 0 0 1 1.5 1.5m7.5 0a1.5 1.5 0 1 1-1.5-1.5A1.5 1.5 0 0 1 21 12M6 19.5A1.5 1.5 0 1 1 4.5 18 1.5 1.5 0 0 1 6 19.5m7.5 0A1.5 1.5 0 1 1 12 18a1.5 1.5 0 0 1 1.5 1.5m7.5 0a1.5 1.5 0 1 1-1.5-1.5 1.5 1.5 0 0 1 1.5 1.5"/></svg>