<svg xmlns="http://www.w3.org/2000/svg" viewBox="0 0 24 24"><path d="M22.192 2.943a2.56 2.56 0 0 0-1.442-1.454 26.46 26.46 0 0 0-17.5 0 2.56 2.56 0 0 0-1.442 1.454A3.9 3.9 0 0 0 1.5 4.416v6.542a12.48 12.48 0 0 0 3.45 8.137 24.7 24.7 0 0 0 5.184 4.363 3.48 3.48 0 0 0 3.732 0 24.7 24.7 0 0 0 5.185-4.363 12.48 12.48 0 0 0 3.45-8.137V4.416a3.9 3.9 0 0 0-.309-1.473M11.706 9.135a2.4 2.4 0 0 0-1.07 1.07l-.567 1.133a1.195 1.195 0 0 1-2.138 0l-.567-1.133a2.4 2.4 0 0 0-1.069-1.07l-1.134-.567a1.196 1.196 0 0 1 0-2.138l1.133-.567a2.4 2.4 0 0 0 1.07-1.07L7.93 3.66h.001a1.196 1.196 0 0 1 2.138 0l.567 1.133a2.4 2.4 0 0 0 1.07 1.07l1.133.567a1.196 1.196 0 0 1 0 2.138zm6.21 4.72a.8.8 0 0 1-.357.357l-.755.378a1.6 1.6 0 0 0-.713.713l-.378.755a.797.797 0 0 1-1.426 0l-.378-.755a1.6 1.6 0 0 0-.713-.713l-.755-.378a.797.797 0 0 1 0-1.426l.755-.378a1.6 1.6 0 0 0 .713-.713h.001l.377-.755a.797.797 0 0 1 1.426 0l.378.755a1.6 1.6 0 0 0 .713.713l.755.378a.797.797 0 0 1 .357 1.069"/></svg>