<svg xmlns="http://www.w3.org/2000/svg" viewBox="0 0 24 24"><path d="M18 2h-7.94a2.9 2.9 0 0 0-1.992.786l-4.242 4.04A2.62 2.62 0 0 0 3 8.724v10.419A2.93 2.93 0 0 0 6 22h12a2.93 2.93 0 0 0 3-2.857V5a3.226 3.226 0 0 0-3-3M5.77 7.042l2.344-2.315a.3.3 0 0 1 .51.213v2.316a.3.3 0 0 1-.3.3H5.98a.3.3 0 0 1-.21-.514m1.638 9.991a1.33 1.33 0 0 0 1.395-1.125q.023-.085.089-.083h.746c.059 0 .089.025.081.108A2.25 2.25 0 0 1 7.408 18C6.24 18 5 17.1 5 15s1.24-3 2.408-3a2.245 2.245 0 0 1 2.311 2.092c.008.066-.022.083-.081.083h-.746q-.066.002-.09-.083a1.33 1.33 0 0 0-1.394-1.125c-.71 0-1.448.658-1.448 2.033s.738 2.033 1.448 2.033m4.814.967a1.96 1.96 0 0 1-2.001-1.967q-.002-.085.073-.083h.776c.052 0 .066.025.074.083a1.01 1.01 0 0 0 1.122 1c.628 0 1.02-.316 1.02-.775 0-.416-.465-.683-1.175-.883-1.108-.317-1.765-.758-1.765-1.717A1.68 1.68 0 0 1 12.156 12a1.82 1.82 0 0 1 1.905 1.742c0 .058-.022.083-.074.083h-.783c-.052 0-.066-.025-.073-.083a.903.903 0 0 0-.99-.775c-.48 0-.864.208-.864.641 0 .492.568.717 1.226.925.879.275 1.713.692 1.713 1.617A1.778 1.778 0 0 1 12.222 18m6.771-5.825-1.773 5.658c-.015.05-.036.084-.096.084h-.886c-.059 0-.08-.034-.096-.084l-1.773-5.658a.1.1 0 0 1-.007-.042q0-.05.066-.05h.857a.095.095 0 0 1 .104.084l1.197 4.17a.096.096 0 0 0 .19 0l1.197-4.17a.094.094 0 0 1 .104-.084h.856q.067 0 .067.05a.1.1 0 0 1-.007.042"/></svg>