<svg xmlns="http://www.w3.org/2000/svg" viewBox="0 0 24 24"><path d="M12.143 4.286a1.143 1.143 0 0 0 0-2.286 1.143 1.143 0 0 0 0 2.286M17 6.5A1.5 1.5 0 1 1 15.5 5 1.5 1.5 0 0 1 17 6.5M10 10a2 2 0 1 0-2-2 2 2 0 0 0 2 2m-7 3.982a.62.62 0 0 1 .758-.55 4 4 0 0 0 .742.068 3.3 3.3 0 0 0 1.605-.373 3.5 3.5 0 0 0 .959-.798c.08-.091.159-.187.23-.273l.085-.102a3 3 0 0 1 .252-.276A.5.5 0 0 1 8 11.5a.73.73 0 0 1 .496.2 3 3 0 0 1 .29.278l.099.104c.08.085.17.18.261.272a3.8 3.8 0 0 0 1.077.785A4.1 4.1 0 0 0 12 13.5a4.1 4.1 0 0 0 1.777-.36 3.8 3.8 0 0 0 1.077-.786c.09-.091.18-.187.262-.273l.097-.103a3 3 0 0 1 .291-.278.73.73 0 0 1 .496-.2.5.5 0 0 1 .37.178 3 3 0 0 1 .251.275l.085.103c.071.086.15.182.23.273a3.5 3.5 0 0 0 .959.798 3.3 3.3 0 0 0 1.605.373 4 4 0 0 0 .742-.068.62.62 0 0 1 .758.55V18a4 4 0 0 1-4 4H7a4 4 0 0 1-4-4z"/></svg>