<svg xmlns="http://www.w3.org/2000/svg" viewBox="0 0 24 24"><path d="M10.438 1.507a1.5 1.5 0 01-1.01 1.865A9.005 9.005 0 003 12v2.25a1.5 1.5 0 01-3 0V12C0 6.562 3.616 1.972 8.572.497a1.5 1.5 0 011.866 1.01zm3.124 0a1.5 1.5 0 011.866-1.01C20.384 1.972 24 6.562 24 12a22.45 22.45 0 01-1.478 8.036 1.5 1.5 0 11-2.802-1.072A19.452 19.452 0 0021 12c0-4.075-2.71-7.52-6.428-8.628a1.5 1.5 0 01-1.01-1.865zM12 8.25A3.75 3.75 0 008.25 12c0 2.997-1.1 5.74-2.917 7.843a1.5 1.5 0 11-2.27-1.962A8.96 8.96 0 005.25 12a6.75 6.75 0 1113.5 0c0 4.096-1.096 7.94-3.011 11.251a1.5 1.5 0 11-2.597-1.502A19.404 19.404 0 0015.75 12 3.75 3.75 0 0012 8.25zm0 2.25a1.5 1.5 0 011.5 1.5c0 4.03-1.384 7.742-3.702 10.68a1.5 1.5 0 11-2.355-1.86A14.183 14.183 0 0010.5 12a1.5 1.5 0 011.5-1.5z"/></svg>