<svg xmlns="http://www.w3.org/2000/svg" viewBox="0 0 24 24"><path d="M17 2H7a1 1 0 0 0-1 1v7.646a3 3 0 0 0 1.658 2.683L11 15v4H9a2 2 0 0 0-2 2v1h10v-1a2 2 0 0 0-2-2h-2v-4l3.342-1.67A3 3 0 0 0 18 10.645V3a1 1 0 0 0-1-1m2 7.5c0-.276.227-.494.495-.562a2 2 0 0 0 0-3.876C19.227 4.994 19 4.776 19 4.5v-1c0-.276.225-.503.499-.47a4 4 0 0 1 0 7.94c-.274.033-.499-.194-.499-.47zM4.505 8.938c.268.068.495.286.495.562v1c0 .276-.225.503-.499.47a4 4 0 0 1 0-7.94c.274-.033.499.194.499.47v1c0 .276-.227.494-.495.562a2 2 0 0 0 0 3.876"/></svg>