<svg width="24" height="24" viewBox="0 0 24 24" fill="none" xmlns="http://www.w3.org/2000/svg">
<path fill-rule="evenodd" clip-rule="evenodd" d="M21.9943 12.3394C21.9981 12.2267 22 12.1136 22 12C22 6.47715 17.5228 2 12 2C6.47715 2 2 6.47715 2 12C2 17.5228 6.47715 22 12 22C13.0921 22 14.1433 21.8249 15.127 21.5014C14.5465 20.6948 14.1612 19.7383 14.0405 18.7011C13.3948 18.8955 12.7098 19 12.0002 19C9.5988 19 7.47841 17.8027 6.20907 15.9753C5.78322 15.3623 6.03658 14.5404 6.70943 14.213C8.30659 13.4361 10.1018 13 11.9994 13C13.358 13 14.6641 13.2235 15.8826 13.6357C16.9571 12.6216 18.406 12 20 12C20.6992 12 21.3704 12.1196 21.9943 12.3394ZM9.49988 6.38106C9.49988 5.61778 10.1699 5 10.9949 5H13.0049C13.8299 5 14.4999 5.61778 14.4999 6.38106V8.69053C14.4999 9.96536 13.3799 11 11.9999 11C10.6199 11 9.49988 9.96536 9.49988 8.69053V6.38106Z" fill="#161616"/>
<circle cx="20" cy="18" r="4" fill="#0062E3"/>
</svg>
