<svg xmlns="http://www.w3.org/2000/svg" viewBox="0 0 24 24"><path d="M8.072 2.082A1.383 1.383 0 007.5 3.329v5.897a2.792 2.792 0 003 2.774 2.791 2.791 0 003-2.774v-5.86a1.435 1.435 0 00-.608-1.285A4.966 4.966 0 0010.5 1.5a5.122 5.122 0 00-2.428.582zM2.645 16.865A17.3 17.3 0 0110.5 15a17.608 17.608 0 017.893 1.867A2 2 0 0119.5 18.75v.75a3.226 3.226 0 01-3 3h-12a3.226 3.226 0 01-3-3v-.75a2.073 2.073 0 011.145-1.885zM16.5 6A1.5 1.5 0 0118 4.5h3a1.5 1.5 0 010 3h-3A1.5 1.5 0 0116.5 6zM18 9a1.5 1.5 0 000 3h1.5a1.5 1.5 0 000-3z"/></svg>