<svg xmlns="http://www.w3.org/2000/svg" viewBox="0 0 24 24"><path d="M8.072 2.082A1.38 1.38 0 0 0 7.5 3.329v5.897a2.79 2.79 0 0 0 3 2.774 2.79 2.79 0 0 0 3-2.774v-5.86a1.44 1.44 0 0 0-.608-1.285A5 5 0 0 0 10.5 1.5a5.1 5.1 0 0 0-2.428.582M2.645 16.865A17.3 17.3 0 0 1 10.5 15a17.6 17.6 0 0 1 7.893 1.867A2 2 0 0 1 19.5 18.75v.75a3.226 3.226 0 0 1-3 3h-12a3.226 3.226 0 0 1-3-3v-.75a2.07 2.07 0 0 1 1.145-1.885M16.5 6A1.5 1.5 0 0 1 18 4.5h3a1.5 1.5 0 0 1 0 3h-3A1.5 1.5 0 0 1 16.5 6M18 9a1.5 1.5 0 0 0 0 3h1.5a1.5 1.5 0 0 0 0-3z"/></svg>