<svg xmlns="http://www.w3.org/2000/svg" viewBox="0 0 24 24"><path d="M16.5 1.5a2.634 2.634 0 00-1.2.274.679.679 0 00-.3.626v2.262A1.377 1.377 0 0016.5 6 1.377 1.377 0 0018 4.662V2.4a.685.685 0 00-.304-.62A2.566 2.566 0 0016.5 1.5zm3 7.952v4.383a3.083 3.083 0 01-.254 1.273c-.066.14-.14.278-.214.417a3.272 3.272 0 00-.477 1.32l-.408 4.312c-.053.764-.483 1.343-.994 1.343h-1.235c-.512 0-.941-.58-.995-1.343l-.408-4.312a3.131 3.131 0 00-.563-1.414q-.08-.13-.157-.263a2.452 2.452 0 01-.295-1.217V9.568a1.54 1.54 0 01.536-1.284 4.57 4.57 0 012.5-.784 4.44 4.44 0 012.428.675 1.514 1.514 0 01.536 1.277zM5.878 2.547a1.341 1.341 0 012.27-.642c.487-.153.909-.057 1.136.73a2.03 2.03 0 01.04.904 4.077 4.077 0 00-.04.534 1.806 1.806 0 00.372 1.315c.098.085.14.247.023.305A4.024 4.024 0 018.068 6H6.932a4.024 4.024 0 01-1.611-.307c-.117-.058-.075-.22.023-.305a1.806 1.806 0 00.372-1.315 5.063 5.063 0 01.162-1.526zM4.5 12.335V9.452a1.514 1.514 0 01.536-1.277A4.444 4.444 0 017.465 7.5h.07a4.441 4.441 0 012.429.675 1.514 1.514 0 01.536 1.277v2.883a3.083 3.083 0 01-.254 1.273c-.066.14-.14.278-.214.417a3.659 3.659 0 00-.497 1.614l.825 3.302a.45.45 0 01-.436.56h-.66l-.117 1.656c-.053.764-.483 1.343-.994 1.343H6.847c-.511 0-.94-.58-.994-1.343L5.736 19.5h-.66a.45.45 0 01-.436-.56l.825-3.3a3.659 3.659 0 00-.497-1.615c-.074-.14-.148-.277-.214-.417a3.083 3.083 0 01-.254-1.273z"/></svg>