<svg xmlns="http://www.w3.org/2000/svg" viewBox="0 0 24 24"><path d="M14.247 4.5a2.25 2.25 0 1 0 0-4.501 2.25 2.25 0 0 0 0 4.5m4.43 6.987-1.093-.553-.454-1.378c-.69-2.09-2.61-3.552-4.79-3.557-1.687-.005-2.62.473-4.373 1.181a4.47 4.47 0 0 0-2.33 2.166l-.313.637c-.366.74-.07 1.64.665 2.01a1.48 1.48 0 0 0 1.992-.67l.314-.637a1.5 1.5 0 0 1 .773-.722l1.257-.506-.713 2.845a3.01 3.01 0 0 0 .698 2.756l2.808 3.065c.337.37.576.815.698 1.298l.858 3.436a1.5 1.5 0 0 0 1.818 1.092 1.5 1.5 0 0 0 1.092-1.819l-1.04-4.171a3 3 0 0 0-.698-1.298l-2.133-2.33.806-3.22.258.774a3 3 0 0 0 1.486 1.734l1.092.553a1.48 1.48 0 0 0 1.992-.67 1.517 1.517 0 0 0-.67-2.016m-10.73 6.596a2.9 2.9 0 0 1-.665 1.007l-2.344 2.349a1.5 1.5 0 0 0 0 2.123 1.496 1.496 0 0 0 2.119 0l2.784-2.784c.286-.286.51-.628.665-1.008l.633-1.584c-2.592-2.826-1.814-1.96-2.222-2.517z"/></svg>