<svg width="480" height="81" viewBox="0 0 480 81" fill="none" xmlns="http://www.w3.org/2000/svg">
<path fill-rule="evenodd" clip-rule="evenodd" d="M56.71 50.9909C52.26 50.9909 50.77 50.9909 49.66 50.9209C44.3091 50.4767 45.1083 46.7868 45.9186 43.0459L45.95 42.9009L54.93 0.580933C65.62 0.580933 67.33 1.03093 65.7 8.60093L56.72 50.9909H56.71ZM86.55 50.9909L74.4539 31.8471L93.23 13.7309H76.45L64.35 27.4609C61.6 30.5709 61.16 32.2809 62.64 35.2509L68.88 47.1309C70.7894 50.8804 73.1392 50.9205 77.1398 50.9887L77.27 50.9909H86.55ZM36.15 15.8009H26.5C18.78 15.8009 18.71 15.8009 17.81 19.8109C17.59 20.7709 18.33 21.8909 20.26 22.4109C21.818 22.8233 23.588 23.1736 25.4296 23.538C33.86 25.2065 43.7882 27.1713 41.72 36.7409C40.24 44.0209 33.18 51.0709 17.81 51.0709H0C1.93 41.9409 2.82 40.4509 10.99 40.4509H19.9C28.36 40.4509 28.51 40.2309 29.18 36.7409C29.8064 33.8241 25.6958 33.1185 23.0905 32.6713L23.0901 32.6712L23.089 32.6711L23.083 32.67C22.9042 32.6393 22.7325 32.6098 22.57 32.5809C21.8141 32.4212 21.0297 32.2659 20.2302 32.1077C12.4738 30.5728 3.30687 28.7587 5.12 19.8109C7.13 10.6009 15.29 5.26093 29.03 5.26093H46.85C44.84 14.4709 43.81 15.8009 36.16 15.8009H36.15ZM103.18 65.6209C119.14 65.6209 124.27 57.7509 125.9 50.2509L131.76 22.4809C133.39 15.0609 131.76 14.3909 120.99 14.3909L116.83 34.4309L116.782 34.6392C115.201 41.5609 115.201 41.5609 108.22 41.5609C102.35 41.5609 101.98 39.9209 103.17 34.8009L105.77 22.4809C107.48 14.3909 105.47 14.3909 95.08 14.3909L90.85 34.1409C88.77 44.2409 90.41 51.5109 103.25 51.5109C107.11 51.5109 112.01 49.8109 114.16 46.9109L113.49 49.8109C112.65 53.5243 109.953 55.3809 105.4 55.3809H94.71C88.4 55.3809 85.95 57.3009 84.17 65.6209H103.18ZM168.37 64.2809C163.118 64.0188 162.677 61.4963 162.056 57.9414L162.055 57.9405C161.966 57.4276 161.872 56.8932 161.76 56.3409H142.83C137.909 64.5683 136.49 64.5443 128.219 64.4043C127.01 64.3839 125.654 64.3609 124.12 64.3609L148.99 24.7909C152.48 19.2209 153.52 18.6309 159.98 18.6309H166.81L176.54 64.3609C170.82 64.3609 169.49 64.3609 168.37 64.2909V64.2809ZM157.46 31.8409L148.55 46.6109H160.06L157.46 31.8409ZM180.75 56.1809C179.12 63.8309 180.75 64.3509 191.52 64.3509L197.53 35.8409C198.34 31.9009 198.27 30.0409 197.08 29.0809C195.511 27.6386 191.203 27.733 188.243 27.7979C187.693 27.8099 187.19 27.8209 186.76 27.8209L180.75 56.1809ZM187.07 17.5809C185.88 22.9209 189.96 23.9609 193.75 23.9609C197.46 23.9609 201.84 22.8509 203.03 17.5809C204.07 12.2409 200.36 11.0509 196.5 11.0509C192.64 11.0509 188.11 12.1609 187.07 17.5809ZM228.35 33.4709C226.985 37.7898 224.016 37.7858 220.597 37.7812L220.26 37.7809C217.587 37.7809 215.803 39.9843 214.91 44.3909L210.6 64.3609C199.91 64.3609 198.2 63.9109 199.84 56.6409L205.85 27.8309C214.54 27.8309 216.02 28.7209 215.13 32.8009C218.1 29.2409 222.92 27.5309 229.61 27.8309L228.35 33.4709ZM227.31 56.1809C225.67 63.8309 227.31 64.3509 238.07 64.3509L247.05 21.9609C247.94 18.0209 247.79 16.1609 246.68 15.2009C245.119 13.7579 240.752 13.8531 237.774 13.918C237.223 13.93 236.719 13.9409 236.29 13.9409L227.31 56.1809ZM257.59 64.3509C246.82 64.3509 245.19 63.8309 246.82 56.1809L252.83 27.8209C253.26 27.8209 253.763 27.8099 254.313 27.7979C257.273 27.733 261.581 27.6386 263.15 29.0809C264.34 30.0409 264.41 31.9009 263.6 35.8409L257.59 64.3509ZM259.82 23.9609C256.03 23.9609 251.95 22.9209 253.14 17.5809C254.18 12.1609 258.71 11.0509 262.57 11.0509C266.43 11.0509 270.14 12.2409 269.1 17.5809C267.91 22.8509 263.53 23.9609 259.82 23.9609ZM291.82 56.4809C290.18 63.9009 291.89 64.3509 302.58 64.3509V64.3409L306.81 44.8209C308.74 35.2409 307.7 27.3709 293.67 27.3709C288.7 27.3709 284.09 29.6709 281.05 33.6109C282.31 27.8209 279.27 27.8209 271.92 27.8209L265.91 56.4809C265.1 60.3409 265.17 62.2009 266.36 63.0909C267.931 64.5355 272.307 64.4386 275.238 64.3737C275.776 64.3618 276.266 64.3509 276.68 64.3509L280.99 44.2309C281.93 39.6309 284.75 37.3309 289.45 37.3309C295.24 37.3309 295.46 39.1109 294.42 44.2309L291.82 56.4809ZM348.38 48.6109C346.793 49.343 343.548 49.2699 341.372 49.2209C340.902 49.2104 340.483 49.2009 340.14 49.2009H323.66C322.84 53.2109 324.77 54.6209 330.04 54.6209H338.06C345.48 54.6209 346.15 55.8109 344.37 64.4209H328.18C312 64.4209 309.55 55.3609 311.63 46.0109C313.56 36.6609 320.02 27.3809 336.28 27.3809C348.68 27.3809 353.58 34.4309 351.65 43.4209C350.83 47.1309 350.09 47.8709 348.38 48.6209V48.6109ZM333.53 37.0309C326.25 37.0309 326.11 37.0309 324.92 42.6709H339.25C340.07 39.0309 338.51 37.0309 333.53 37.0309ZM374.89 37.5509H381.26C389.556 37.5509 390.008 35.0989 391.027 29.5798L391.028 29.576C391.13 29.0221 391.238 28.4373 391.36 27.8209H377.18C365.45 27.8209 357.95 31.8309 356.24 39.4009C354.75 46.5107 361.664 47.7066 367.887 48.7831C368.806 48.9421 369.71 49.0985 370.57 49.2709C371.207 49.4039 371.786 49.5152 372.307 49.6155C375 50.1338 376.15 50.3551 375.84 51.7209C375.447 53.6543 373.17 54.6209 369.01 54.6209H361.81C353.449 54.6209 352.992 57.0159 351.92 62.6314C351.813 63.1952 351.699 63.7914 351.57 64.4209H367.01C379.19 64.4209 386.54 59.6009 387.95 53.1409C389.559 45.4528 382.713 44.1932 376.324 43.0176L376.07 42.9709C375.644 42.8852 375.233 42.8036 374.838 42.7252C370.762 41.9161 368.377 41.4425 368.65 40.2209C368.997 38.4409 371.077 37.5509 374.89 37.5509ZM0 56.3309L84.47 55.4409V55.4509C84.47 55.4509 80.12 55.1909 78.92 65.6209H9.29C4.16 65.6209 0 61.4609 0 56.3309ZM83.8301 70.8809H391.06H391.07C391.07 76.0109 386.91 80.1709 381.78 80.1709H93.1201C87.9901 80.1709 83.8301 76.0109 83.8301 70.8809ZM431.588 27.3766L429.099 29.8656C426.264 32.7011 426.264 37.2973 429.099 40.1328L439.352 50.3853L422.498 67.2394C419.662 70.0749 419.662 74.6711 422.498 77.5066L424.987 79.9956L454.6 50.3819L446.978 42.7593L446.974 42.7626L431.588 27.3766ZM403.699 29.8661L406.188 27.3771L424.191 45.38L424.19 45.3812L429.2 50.3914L399.586 80.005L397.097 77.516C394.262 74.6805 394.262 70.0843 397.097 67.2488L413.956 50.3903L403.699 40.1333C400.863 37.2978 400.863 32.7016 403.699 29.8661ZM456.989 27.386L454.5 29.8751C451.664 32.7106 451.664 37.3068 454.5 40.1423L464.748 50.3902L447.898 67.2399C445.063 70.0754 445.063 74.6716 447.898 77.5071L450.387 79.9961L480.001 50.3824L472.378 42.7598L472.37 42.7676L456.989 27.386Z" fill="black"/>
</svg>
