<svg width="480" height="80" viewBox="0 0 480 80" fill="none" xmlns="http://www.w3.org/2000/svg">
<path fill-rule="evenodd" clip-rule="evenodd" d="M56.71 50.5719C52.26 50.5719 50.77 50.5719 49.66 50.5019C44.3091 50.0576 45.1083 46.3677 45.9186 42.6268L45.95 42.4819L54.93 0.161865C65.62 0.161865 67.33 0.611866 65.7 8.18187L56.72 50.5719H56.71ZM86.55 50.5719L74.4539 31.4281L93.23 13.3119H76.45L64.35 27.0419C61.6 30.1519 61.16 31.8619 62.64 34.8319L68.88 46.7119C70.7894 50.4614 73.1392 50.5014 77.1398 50.5696L77.27 50.5719H86.55ZM36.15 15.3819H26.5C18.78 15.3819 18.71 15.3819 17.81 19.3919C17.59 20.3519 18.33 21.4719 20.26 21.9919C21.818 22.4042 23.588 22.7545 25.4296 23.119C33.86 24.7874 43.7882 26.7523 41.72 36.3219C40.24 43.6019 33.18 50.6519 17.81 50.6519H0C1.93 41.5219 2.82 40.0319 10.99 40.0319H19.9C28.36 40.0319 28.51 39.8119 29.18 36.3219C29.8064 33.4051 25.6958 32.6995 23.0905 32.2522L23.0901 32.2522L23.089 32.252L23.083 32.251C22.9042 32.2203 22.7325 32.1908 22.57 32.1619C21.8141 32.0021 21.0297 31.8469 20.2302 31.6887C12.4738 30.1537 3.30687 28.3396 5.12 19.3919C7.13 10.1819 15.29 4.84187 29.03 4.84187H46.85C44.84 14.0519 43.81 15.3819 36.16 15.3819H36.15ZM103.18 65.2019C119.14 65.2019 124.27 57.3319 125.9 49.8319L131.76 22.0619C133.39 14.6419 131.76 13.9719 120.99 13.9719L116.83 34.0119L116.782 34.2201C115.201 41.1419 115.201 41.1419 108.22 41.1419C102.35 41.1419 101.98 39.5019 103.17 34.3819L105.77 22.0619C107.48 13.9719 105.47 13.9719 95.08 13.9719L90.85 33.7219C88.77 43.8219 90.41 51.0919 103.25 51.0919C107.11 51.0919 112.01 49.3919 114.16 46.4919L113.49 49.3919C112.65 53.1052 109.953 54.9619 105.4 54.9619H94.71C88.4 54.9619 85.95 56.8819 84.17 65.2019H103.18ZM168.37 63.8619C163.118 63.5997 162.677 61.0773 162.056 57.5223L162.055 57.5215C161.966 57.0085 161.872 56.4741 161.76 55.9219H142.83C137.909 64.1492 136.49 64.1252 128.219 63.9853C127.01 63.9648 125.654 63.9419 124.12 63.9419L148.99 24.3719C152.48 18.8019 153.52 18.2119 159.98 18.2119H166.81L176.54 63.9419C170.82 63.9419 169.49 63.9419 168.37 63.8719V63.8619ZM157.46 31.4219L148.55 46.1919H160.06L157.46 31.4219ZM180.75 55.7619C179.12 63.4119 180.75 63.9319 191.52 63.9319L197.53 35.4219C198.34 31.4819 198.27 29.6219 197.08 28.6619C195.511 27.2195 191.203 27.3139 188.243 27.3788C187.693 27.3908 187.19 27.4019 186.76 27.4019L180.75 55.7619ZM187.07 17.1619C185.88 22.5019 189.96 23.5419 193.75 23.5419C197.46 23.5419 201.84 22.4319 203.03 17.1619C204.07 11.8219 200.36 10.6319 196.5 10.6319C192.64 10.6319 188.11 11.7419 187.07 17.1619ZM228.35 33.0519C226.985 37.3707 224.016 37.3667 220.597 37.3622L220.26 37.3619C217.587 37.3619 215.803 39.5652 214.91 43.9719L210.6 63.9419C199.91 63.9419 198.2 63.4919 199.84 56.2219L205.85 27.4119C214.54 27.4119 216.02 28.3019 215.13 32.3819C218.1 28.8219 222.92 27.1119 229.61 27.4119L228.35 33.0519ZM227.31 55.7619C225.67 63.4119 227.31 63.9319 238.07 63.9319L247.05 21.5419C247.94 17.6019 247.79 15.7419 246.68 14.7819C245.119 13.3389 240.752 13.434 237.774 13.4989C237.223 13.5109 236.719 13.5219 236.29 13.5219L227.31 55.7619ZM257.59 63.9319C246.82 63.9319 245.19 63.4119 246.82 55.7619L252.83 27.4019C253.26 27.4019 253.763 27.3908 254.313 27.3788C257.273 27.3139 261.581 27.2195 263.15 28.6619C264.34 29.6219 264.41 31.4819 263.6 35.4219L257.59 63.9319ZM259.82 23.5419C256.03 23.5419 251.95 22.5019 253.14 17.1619C254.18 11.7419 258.71 10.6319 262.57 10.6319C266.43 10.6319 270.14 11.8219 269.1 17.1619C267.91 22.4319 263.53 23.5419 259.82 23.5419ZM291.82 56.0619C290.18 63.4819 291.89 63.9319 302.58 63.9319V63.9219L306.81 44.4019C308.74 34.8219 307.7 26.9519 293.67 26.9519C288.7 26.9519 284.09 29.2519 281.05 33.1919C282.31 27.4019 279.27 27.4019 271.92 27.4019L265.91 56.0619C265.1 59.9219 265.17 61.7819 266.36 62.6719C267.931 64.1164 272.307 64.0195 275.238 63.9546C275.776 63.9427 276.266 63.9319 276.68 63.9319L280.99 43.8119C281.93 39.2119 284.75 36.9119 289.45 36.9119C295.24 36.9119 295.46 38.6919 294.42 43.8119L291.82 56.0619ZM348.38 48.1919C346.793 48.9239 343.548 48.8509 341.372 48.8019C340.902 48.7913 340.483 48.7819 340.14 48.7819H323.66C322.84 52.7919 324.77 54.2019 330.04 54.2019H338.06C345.48 54.2019 346.15 55.3919 344.37 64.0019H328.18C312 64.0019 309.55 54.9419 311.63 45.5919C313.56 36.2419 320.02 26.9619 336.28 26.9619C348.68 26.9619 353.58 34.0119 351.65 43.0019C350.83 46.7119 350.09 47.4519 348.38 48.2019V48.1919ZM333.53 36.6119C326.25 36.6119 326.11 36.6119 324.92 42.2519H339.25C340.07 38.6119 338.51 36.6119 333.53 36.6119ZM374.89 37.1319H381.26C389.556 37.1319 390.008 34.6799 391.027 29.1607L391.028 29.157C391.13 28.603 391.238 28.0182 391.36 27.4019H377.18C365.45 27.4019 357.95 31.4119 356.24 38.9819C354.75 46.0916 361.664 47.2876 367.887 48.364C368.806 48.523 369.71 48.6794 370.57 48.8519C371.207 48.9848 371.786 49.0962 372.307 49.1964C375 49.7147 376.15 49.9361 375.84 51.3019C375.447 53.2352 373.17 54.2019 369.01 54.2019H361.81C353.449 54.2019 352.992 56.5968 351.92 62.2123C351.813 62.7761 351.699 63.3723 351.57 64.0019H367.01C379.19 64.0019 386.54 59.1819 387.95 52.7219C389.559 45.0337 382.713 43.7741 376.324 42.5985L376.07 42.5519C375.644 42.4661 375.233 42.3845 374.838 42.3061C370.762 41.4971 368.377 41.0234 368.65 39.8019C368.997 38.0219 371.077 37.1319 374.89 37.1319ZM0 55.9118L84.47 55.0219V55.0318C84.47 55.0318 80.12 54.7719 78.92 65.2019H9.29C4.16 65.2019 0 61.0419 0 55.9118ZM83.8301 70.4619H391.06H391.07C391.07 75.5919 386.91 79.7519 381.78 79.7519H93.1201C87.9901 79.7519 83.8301 75.5919 83.8301 70.4619ZM431.588 26.9575L429.099 29.4465C426.264 32.282 426.264 36.8782 429.099 39.7137L439.352 49.9662L422.498 66.8203C419.662 69.6558 419.662 74.252 422.498 77.0875L424.987 79.5765L454.6 49.9629L446.978 42.3403L446.974 42.3436L431.588 26.9575ZM403.699 29.447L406.188 26.958L424.191 44.9609L424.19 44.9621L429.2 49.9723L399.586 79.586L397.097 77.097C394.262 74.2615 394.262 69.6653 397.097 66.8298L413.956 49.9712L403.699 39.7142C400.863 36.8787 400.863 32.2825 403.699 29.447ZM456.989 26.967L454.5 29.456C451.664 32.2915 451.664 36.8877 454.5 39.7232L464.748 49.9712L447.898 66.8208C445.063 69.6563 445.063 74.2525 447.898 77.088L450.387 79.577L480.001 49.9634L472.378 42.3408L472.37 42.3486L456.989 26.967Z" fill="white"/>
</svg>
