<svg xmlns="http://www.w3.org/2000/svg" viewBox="0 0 24 24"><path d="M8.224 3.642l1.19 1.34a.93.93 0 00.942.275l2.935-.806a.468.468 0 00.036-.895l-3.063-1.011a.94.94 0 00-.543-.013l-1.261.346a.472.472 0 00-.236.764z"/><path d="M1.645 5.423a.936.936 0 01.694.076l2.614 1.407a2.81 2.81 0 002.075.23l11.906-3.27c1.492-.408 3.142-.21 3.946.872a.726.726 0 01-.514 1.087L17.13 7.262a1.333 1.333 0 00-.822.643l-2.785 5.625a.958.958 0 01-.66.635l-1.15.316a.461.461 0 01-.586-.467l.323-4.565a.46.46 0 00-.586-.466l-4.22 1.159a3.168 3.168 0 01-3-1.028l-2.53-2.846a.472.472 0 01.234-.764l.295-.082zm18.062 8.368l3 2.995a1 1 0 01.084 1.32l-.083.094-3 3.006a1 1 0 01-1.498-1.32l.083-.094 1.29-1.293H11a1 1 0 01-.993-.883L10 17.498a1 1 0 01.883-.993l.117-.007h8.59l-1.296-1.294a1 1 0 01-.084-1.32l.083-.094a1 1 0 011.32-.084l.094.084z"/></svg>