<svg xmlns="http://www.w3.org/2000/svg" viewBox="0 0 24 24"><path d="M8.378 4.523a.942.942 0 00-1.263.442.867.867 0 00.415 1.13l4.97 2.39a1.841 1.841 0 01.984 2.463l-.064.123a1.022 1.022 0 01-1.342.428.938.938 0 01-.468-1.24l.021-.044a.131.131 0 00-.055-.176l-.007-.004-4.98-2.253A2.745 2.745 0 015.277 4.21 2.688 2.688 0 019 2.792l6.625 3.057a2.9 2.9 0 011.568 1.872l2.035 9.617A.955.955 0 0118.5 18.5a1.005 1.005 0 01-1.213-.696l-2.034-9.618a.966.966 0 00-.523-.624l-6.352-3.04zM15.5 20.5a1.075 1.075 0 011-1h4a1 1 0 010 2h-4a1.075 1.075 0 01-1-1z"/><path d="M4.682 11.5A2.555 2.555 0 002.5 14.056v1.27a.69.69 0 00.99.515 3.5 3.5 0 014.668 4.668.692.692 0 00.516.991h3.644a2.155 2.155 0 002.182-2.127V18.31a6.836 6.836 0 00-6.545-6.81z"/><path d="M5 21.5A2.5 2.5 0 102.5 19 2.5 2.5 0 005 21.5z"/></svg>