<svg xmlns="http://www.w3.org/2000/svg" viewBox="0 0 24 24"><path d="M23.222 5.543c-.255-.72-.943-1.227-1.886-1.392-1.568-.275-3.083.093-4.63 1.127l-3.122 2.104-.012-.018-.323.218-6.973-2.968a2.06 2.06 0 0 0-2.551.897 2.06 2.06 0 0 0 .426 2.55l3.609 3.246-1.606 1.082-2.005-.514a2.37 2.37 0 0 0-1.903.328l-1.143.77a.8.8 0 0 0-.031 1.305l3.703 2.76q.04.03.085.054a3.93 3.93 0 0 0 3.063.34c1.024-.308 2.032-.768 3.117-1.424l1.615 4.636a2.14 2.14 0 0 0 2.285 1.41 2.14 2.14 0 0 0 1.86-2.105v-7.772l3.036-2.067c1.443-.973 2.078-1.504 2.828-2.37.604-.696.807-1.496.558-2.197M5.213 6.864a.456.456 0 0 1-.094-.568.45.45 0 0 1 .546-.204l6.002 2.556-2.556 1.722zm16.242-.172c-.584.674-1.062 1.113-2.516 2.093l-3.389 2.307a.8.8 0 0 0-.35.661v8.193a.533.533 0 0 1-1.035.171l-1.947-5.593a.8.8 0 0 0-1.203-.4c-1.29.87-2.42 1.434-3.555 1.777a2.3 2.3 0 0 1-1.772-.18L2.933 13.67l.207-.14a.76.76 0 0 1 .612-.105l2.352.604a.8.8 0 0 0 .646-.112l10.848-7.31c1.185-.792 2.32-1.08 3.462-.879.417.073.614.235.655.352.049.137-.05.372-.26.613"/></svg>