<svg xmlns="http://www.w3.org/2000/svg" viewBox="0 0 24 24"><path d="M10 7a1 1 0 0 1 1 1v4.82a.56.56 0 0 0 .325.492A3 3 0 0 1 13 16a3 3 0 1 1-4.325-2.688A.56.56 0 0 0 9 12.82V8a1 1 0 0 1 1-1"/><path d="M10 0a5 5 0 0 1 5 5v5.696c0 .262.105.511.277.708a7 7 0 1 1-10.555 0c.173-.197.278-.446.278-.708V5a5 5 0 0 1 5-5m0 2a3 3 0 0 0-3 3v6.53a1 1 0 0 1-.333.743 5 5 0 1 0 6.666 0A1 1 0 0 1 13 11.53V5a3 3 0 0 0-3-3" clip-rule="evenodd"/><path d="M20 8a1 1 0 1 1 0 2h-3V8zm0-3a1 1 0 1 1 0 2h-3V5zm0-3a1 1 0 1 1 0 2h-3V2z"/></svg>