<svg xmlns="http://www.w3.org/2000/svg" viewBox="0 0 24 24"><path d="M10 12c1.5 0 3-.8 3-2.378V4.6a1.179 1.179 0 00-.608-1.102A5.619 5.619 0 0010 3a5.833 5.833 0 00-2.428.499A1.13 1.13 0 007 4.568v5.054C7 11.2 8.5 12 10 12zM9 9h2v.028a1 1 0 01-2 0zm9 8.25v.977A2.712 2.712 0 0115.227 21H5.045A2.951 2.951 0 012 18.227v-.995a1.77 1.77 0 01.99-1.634A16.866 16.866 0 019.972 14a17.328 17.328 0 017.016 1.6A1.784 1.784 0 0118 17.25zM22 7a1 1 0 01-1 1h-4a1 1 0 010-2h4a1 1 0 011 1zm-1 4a1 1 0 01-1 1h-3a1 1 0 010-2h3a1 1 0 011 1z"/></svg>