<svg xmlns="http://www.w3.org/2000/svg" viewBox="0 0 24 24"><path d="M12 2c5.523 0 10 4.477 10 10 0 .472-.033.936-.096 1.39a6 6 0 0 0-6.33-3.32.87.87 0 0 0-.437-.336 4.407 4.407 0 0 0-1.496.032c-.501.02-1.108-.208-1.173-.706l-.007-.077-.003-.079c-.005-.15-.01-.3-.124-.384a.423.423 0 0 0-.391-.001 10.48 10.48 0 0 0-1.473.871c-.436.302-.984.38-1.482.221l-.148-.055.053-.968.068-.068c.12-.096.286-.132.458-.155l.32-.04c.212-.035.388-.1.43-.3a1.664 1.664 0 0 0-.021-.361c-.004-.312.241-.503.536-.67l.454-.245c.295-.167.54-.359.539-.67a1.962 1.962 0 0 0-.189-.583 1.521 1.521 0 0 1 .497-1.495 8 8 0 0 0 .016 16h.027a6.007 6.007 0 0 0 2.515 1.673C13.731 21.887 12.88 22 12 22 6.477 22 2 17.523 2 12S6.477 2 12 2Z"/><path d="M10.5 16c0 .31.023.613.069.91a.834.834 0 0 1-.088-.033l-.1-.051c-.122-.067-.197-.109-.52.017a1.99 1.99 0 0 1-2.162-.706 4.283 4.283 0 0 1-.804-2.258c.006-.261.086-.516.23-.733.047-.094.159-.18.286-.26l.196-.117c.114-.065.22-.127.29-.186l.13-.11c.444-.376.78-.66.93-1.2l.043-.19L11 11l.243.088c.494.16 1.02.205 1.557.188A5.99 5.99 0 0 0 10.5 16ZM9.77 5.38c-.138.021-.29.238-.436.487l-.27.468c-.07.117-.137.214-.198.27a.173.173 0 0 0-.067.098c0 .03.01.06.026.085l.301.35.461-.195c.31-.123.625-.234.943-.333-.01.003-.027-.025-.048-.074l-.153-.406-.09-.22c-.127-.29-.288-.556-.47-.53Z"/><path d="M16.5 21a5 5 0 1 1 3.963-1.951l2.244 2.244a1 1 0 0 1-1.414 1.414l-2.346-2.346A4.978 4.978 0 0 1 16.5 21Zm0-2a3 3 0 1 0 0-6 3 3 0 0 0 0 6Z"/></svg>