<svg xmlns="http://www.w3.org/2000/svg" viewBox="0 0 24 24"><path d="m21.674 14.08-1.327-.937a1.384 1.384 0 0 1-.001-2.284l1.326-.938a.75.75 0 0 0 .29-.847 9.96 9.96 0 0 0-2.355-3.89.825.825 0 0 0-.907-.178l-1.497.63a1.5 1.5 0 0 1-.59.12 1.456 1.456 0 0 1-1.468-1.264l-.182-1.566a.78.78 0 0 0-.622-.665 12 12 0 0 0-2.33-.26V2a12 12 0 0 0-2.351.259.78.78 0 0 0-.622.666L8.856 4.49a1.42 1.42 0 0 1-.729 1.072 1.52 1.52 0 0 1-1.333.074l-1.496-.63a.825.825 0 0 0-.907.178 9.96 9.96 0 0 0-2.355 3.889.75.75 0 0 0 .29.848l1.328.938a1.382 1.382 0 0 1 0 2.282l-1.328.94a.75.75 0 0 0-.29.847A10 10 0 0 0 4.39 18.82a.825.825 0 0 0 .906.18l1.503-.631a1.53 1.53 0 0 1 1.327.07 1.42 1.42 0 0 1 .73 1.069l.18 1.563a.78.78 0 0 0 .61.664 10.6 10.6 0 0 0 4.707 0 .78.78 0 0 0 .611-.664l.18-1.566a1.42 1.42 0 0 1 .728-1.071 1.53 1.53 0 0 1 1.329-.07l1.503.632a.825.825 0 0 0 .906-.18 10 10 0 0 0 2.354-3.888.75.75 0 0 0-.29-.848M12 15a3 3 0 1 1 3-3 3 3 0 0 1-3 3"/></svg>