<svg xmlns="http://www.w3.org/2000/svg" viewBox="0 0 24 24"><path d="M21.674 14.08l-1.327-.937a1.384 1.384 0 01-.001-2.284l1.326-.938a.752.752 0 00.29-.847 9.96 9.96 0 00-2.355-3.89.825.825 0 00-.907-.178l-1.497.63a1.492 1.492 0 01-.59.12 1.456 1.456 0 01-1.468-1.264l-.182-1.566a.781.781 0 00-.622-.665 11.76 11.76 0 00-2.33-.26V2a11.894 11.894 0 00-2.351.259.781.781 0 00-.622.666L8.856 4.49a1.42 1.42 0 01-.729 1.072 1.52 1.52 0 01-1.333.074l-1.496-.63a.825.825 0 00-.907.178 9.96 9.96 0 00-2.355 3.889.752.752 0 00.29.848l1.328.938a1.382 1.382 0 010 2.282l-1.328.94a.752.752 0 00-.29.847A9.963 9.963 0 004.39 18.82a.825.825 0 00.906.18l1.503-.631a1.53 1.53 0 011.327.07 1.416 1.416 0 01.73 1.069l.18 1.563a.78.78 0 00.61.664 10.593 10.593 0 004.707 0 .78.78 0 00.611-.664l.18-1.566a1.415 1.415 0 01.728-1.071 1.53 1.53 0 011.329-.07l1.503.632a.825.825 0 00.906-.18 9.965 9.965 0 002.354-3.888.752.752 0 00-.29-.848zM12 15a3 3 0 113-3 3 3 0 01-3 3z"/></svg>