<svg xmlns="http://www.w3.org/2000/svg" viewBox="0 0 24 24"><path d="M4.9 1.061c.025-.096.162-.096.187 0 .215.824.735 2.775.897 2.938.163.162 2.114.682 2.938.897.096.024.096.162 0 .187-.824.214-2.775.734-2.938.897-.162.162-.682 2.113-.897 2.937-.025.096-.162.096-.187 0-.214-.824-.734-2.775-.897-2.937-.162-.163-2.113-.683-2.938-.897-.095-.025-.095-.163 0-.187.825-.215 2.776-.735 2.938-.897.163-.163.683-2.114.897-2.938Zm6.669 1.267c.115-.438.747-.438.862 0 .638 2.42 1.797 6.668 2.185 7.056.388.388 4.635 1.547 7.056 2.184.438.116.438.748 0 .863-2.42.638-6.668 1.797-7.056 2.185-.388.388-1.547 4.635-2.184 7.056-.116.437-.748.437-.863 0-.638-2.42-1.797-6.668-2.185-7.056-.388-.388-4.635-1.547-7.056-2.185-.437-.115-.437-.747 0-.862 2.42-.638 6.668-1.797 7.056-2.185.388-.388 1.547-4.635 2.185-7.056Zm-6.517 14.19c-.015-.06-.101-.06-.117 0-.134.515-.459 1.735-.56 1.836-.102.102-1.321.427-1.836.56-.06.016-.06.102 0 .118.515.134 1.734.459 1.836.56.101.102.426 1.321.56 1.836.016.06.102.06.117 0 .134-.515.46-1.734.56-1.836.102-.101 1.322-.426 1.837-.56.06-.016.06-.102 0-.117-.515-.134-1.735-.46-1.836-.56-.102-.102-.427-1.322-.56-1.837ZM18.935 2.425c.016-.06.102-.06.117 0 .134.515.46 1.734.56 1.836.102.101 1.322.426 1.837.56.06.016.06.102 0 .117-.515.134-1.735.46-1.836.56-.102.102-.427 1.322-.56 1.837-.016.06-.102.06-.118 0-.134-.515-.459-1.735-.56-1.836-.102-.102-1.321-.427-1.836-.56-.06-.016-.06-.102 0-.118.515-.134 1.734-.459 1.836-.56.101-.102.426-1.321.56-1.836Zm.152 12.657c-.024-.096-.162-.096-.187 0-.214.824-.734 2.775-.897 2.937-.162.163-2.113.683-2.937.897-.096.025-.096.163 0 .188.824.214 2.775.734 2.937.896.163.163.683 2.114.897 2.938.025.096.163.096.187 0 .215-.824.735-2.775.897-2.938.163-.162 2.114-.682 2.938-.896.096-.025.096-.163 0-.188-.824-.214-2.775-.734-2.938-.897-.162-.162-.682-2.113-.897-2.937Z" clip-rule="evenodd"/></svg>