<svg xmlns="http://www.w3.org/2000/svg" viewBox="0 0 24 24"><path d="M4.605.08c-.028-.107-.182-.107-.21 0-.241.928-.826 3.123-1.01 3.306-.182.183-2.377.768-3.304 1.009-.108.028-.108.182 0 .21.927.241 3.122.826 3.305 1.01.183.182.768 2.377 1.009 3.304.028.108.182.108.21 0 .241-.927.826-3.122 1.01-3.305.182-.183 2.377-.768 3.304-1.009.108-.028.108-.182 0-.21-.927-.241-3.122-.826-3.305-1.01-.183-.182-.768-2.377-1.009-3.304Zm8.113 2.248c.116-.437.748-.437.863 0 .637 2.42 1.797 6.668 2.185 7.056.388.388 4.635 1.547 7.056 2.185.437.115.437.747 0 .862-2.421.638-6.668 1.797-7.056 2.185-.388.388-1.548 4.635-2.185 7.056-.115.438-.747.438-.863 0-.637-2.42-1.796-6.668-2.184-7.056-.389-.388-4.635-1.547-7.056-2.184-.438-.116-.438-.748 0-.863 2.42-.638 6.668-1.797 7.056-2.185.388-.388 1.547-4.635 2.184-7.056ZM5.93 16.554c.018-.072.122-.072.14 0 .16.618.55 2.081.673 2.203.122.122 1.585.512 2.203.673.072.018.072.122 0 .14-.618.16-2.081.55-2.203.673-.122.122-.512 1.585-.673 2.203-.018.072-.122.072-.14 0-.16-.618-.55-2.081-.673-2.203-.122-.122-1.585-.512-2.203-.673-.072-.018-.072-.122 0-.14.618-.16 2.081-.55 2.203-.673.122-.122.512-1.585.673-2.203Z"/></svg>