<svg xmlns="http://www.w3.org/2000/svg" viewBox="0 0 24 24"><path d="M13.5 22.5A1.5 1.5 0 1 1 12 21a1.5 1.5 0 0 1 1.5 1.5M8.465 4.335A4.9 4.9 0 0 0 7.5 7.5a1.5 1.5 0 0 1-3 0 7.88 7.88 0 0 1 1.66-5.085A7.25 7.25 0 0 1 12 0a7.52 7.52 0 0 1 5.797 2.272A6.7 6.7 0 0 1 19.5 6.75a8.24 8.24 0 0 1-.933 4 8.12 8.12 0 0 1-3.646 3.342 2.23 2.23 0 0 0-1.348 1.57 5.7 5.7 0 0 0-.089 1.568c.008.235.016.488.016.77a1.5 1.5 0 0 1-3 0q-.001-.152-.01-.388a10 10 0 0 1 .162-2.637 5.22 5.22 0 0 1 2.927-3.567 5.14 5.14 0 0 0 2.354-2.095A5.25 5.25 0 0 0 16.5 6.75a3.7 3.7 0 0 0-.922-2.46A4.57 4.57 0 0 0 12 3a4.28 4.28 0 0 0-3.535 1.335"/></svg>