<svg xmlns="http://www.w3.org/2000/svg" viewBox="0 0 24 24"><path d="M13.5 22.5A1.5 1.5 0 1112 21a1.5 1.5 0 011.5 1.5zM8.465 4.335A4.908 4.908 0 007.5 7.5a1.5 1.5 0 01-3 0 7.88 7.88 0 011.66-5.085A7.25 7.25 0 0112 0a7.524 7.524 0 015.797 2.272A6.697 6.697 0 0119.5 6.75a8.235 8.235 0 01-.933 4 8.124 8.124 0 01-3.646 3.342 2.228 2.228 0 00-1.348 1.57 5.687 5.687 0 00-.089 1.568c.008.235.016.488.016.77a1.5 1.5 0 01-3 0c0-.1-.005-.232-.01-.388a10.143 10.143 0 01.162-2.637 5.215 5.215 0 012.927-3.567 5.135 5.135 0 002.354-2.095A5.253 5.253 0 0016.5 6.75a3.7 3.7 0 00-.922-2.46A4.569 4.569 0 0012 3a4.284 4.284 0 00-3.535 1.335z"/></svg>