<svg xmlns="http://www.w3.org/2000/svg" viewBox="0 0 24 24"><path d="M12.25 3q.772.002 1.5.15V3a1.5 1.5 0 0 0-3 0v.15q.728-.149 1.5-.15m-7.5 7.5a7.5 7.5 0 0 1 4.5-6.876V3a3 3 0 1 1 6 0v.624a7.5 7.5 0 0 1 4.5 6.876v3h1.5a1.5 1.5 0 0 1 1.5 1.5v4.5a1.5 1.5 0 0 1-1.5 1.5h-1.901a3 3 0 0 1-2.599 1.5h-9c-1.11 0-2.08-.603-2.599-1.5H3.25a1.5 1.5 0 0 1-1.5-1.5V15a1.5 1.5 0 0 1 1.5-1.5h1.5zm3 5.25c0 .414.336.75.75.75H10l1.125 1.949a.75.75 0 0 0 1.299-.75l-.692-1.199H16a.75.75 0 0 0 0-1.5H8.5a.75.75 0 0 0-.75.75"/></svg>