<svg width="24" height="24" viewBox="0 0 24 24" fill="none" xmlns="http://www.w3.org/2000/svg">
<circle cx="20" cy="18" r="4" fill="#84E9FF"/>
<path fill-rule="evenodd" clip-rule="evenodd" d="M2.5 12C2.5 6.75329 6.75329 2.5 12 2.5C17.2467 2.5 21.5 6.75329 21.5 12C21.5 12.063 21.4994 12.1259 21.4982 12.1886C21.8404 12.2765 22.1707 12.3939 22.4865 12.5379C22.4955 12.3597 22.5 12.1804 22.5 12C22.5 6.20101 17.799 1.5 12 1.5C6.20101 1.5 1.5 6.20101 1.5 12C1.5 17.799 6.20101 22.5 12 22.5C13.2107 22.5 14.3736 22.2951 15.4558 21.9181C15.2276 21.6537 15.0221 21.3691 14.8423 21.0675C13.9449 21.3485 12.9901 21.5 12 21.5C6.75329 21.5 2.5 17.2467 2.5 12ZM16.3211 13.2598C14.9732 12.7682 13.5173 12.5 11.9994 12.5C10.0244 12.5 8.15458 12.954 6.49071 13.7634C5.56841 14.2121 5.18119 15.372 5.79842 16.2606C7.15759 18.2173 9.42876 19.5 12.0002 19.5C12.7361 19.5 13.4474 19.3949 14.1198 19.1991C14.0534 18.8714 14.0136 18.5339 14.0029 18.1892C13.3718 18.391 12.6989 18.5 12.0002 18.5C9.76883 18.5 7.79923 17.3881 6.61972 15.6901C6.38525 15.3525 6.50476 14.8686 6.92816 14.6627C8.45859 13.9182 10.1792 13.5 11.9994 13.5C13.2188 13.5 14.3935 13.6877 15.4963 14.0354C15.7462 13.7518 16.0224 13.492 16.3211 13.2598ZM9.99988 6.38106C9.99988 5.93077 10.4077 5.5 10.9949 5.5H13.0049C13.5921 5.5 13.9999 5.93077 13.9999 6.38106V8.69053C13.9999 9.65263 13.1418 10.5 11.9999 10.5C10.858 10.5 9.99988 9.65263 9.99988 8.69053V6.38106ZM10.9949 4.5C9.93208 4.5 8.99988 5.3048 8.99988 6.38106V8.69053C8.99988 10.2781 10.3818 11.5 11.9999 11.5C13.618 11.5 14.9999 10.2781 14.9999 8.69053V6.38106C14.9999 5.3048 14.0677 4.5 13.0049 4.5H10.9949Z" fill="white"/>
</svg>
