<svg xmlns="http://www.w3.org/2000/svg" viewBox="0 0 24 24"><path d="M3.382 1.312A.7.7 0 0 0 3 1.98v2.534C3 5.5 4 6 5 6s2-.5 2-1.486V2a.73.73 0 0 0-.405-.689A4 4 0 0 0 5 1.001a4.1 4.1 0 0 0-1.618.311M12.002 7a2.5 2.5 0 0 0-.96.182.43.43 0 0 0-.24.418v1.508c0 .592.6.892 1.2.892s1.2-.3 1.2-.892V7.6a.44.44 0 0 0-.244-.413A2.4 2.4 0 0 0 12 7zm3 5.302v3.921a1.5 1.5 0 0 1-.254.85q-.101.138-.214.277a1.8 1.8 0 0 0-.477.88l-.408 3.875a1 1 0 0 1-.994.895H11.42a1 1 0 0 1-.995-.895l-.408-3.875a1.8 1.8 0 0 0-.563-.943q-.08-.086-.157-.175A1.23 1.23 0 0 1 9 16.3v-3.922a.92.92 0 0 1 .536-.856 6.3 6.3 0 0 1 2.5-.523 6.2 6.2 0 0 1 2.428.45.91.91 0 0 1 .536.852zM2.266 7.828A.74.74 0 0 0 2 8.432v6.154a1 1 0 0 0 .293.707l.254.254a2 2 0 0 1 .558 1.085l.825 5.95a.5.5 0 0 0 .494.418h1.152a.5.5 0 0 0 .494-.418l.825-5.95a2 2 0 0 1 .558-1.085l.254-.254A1 1 0 0 0 8 14.586v-6.09a.83.83 0 0 0-.33-.693A4.6 4.6 0 0 0 5.002 7a4.64 4.64 0 0 0-2.736.828m14 0a.74.74 0 0 0-.265.604v5.154a1 1 0 0 0 .293.707l.329.33a1 1 0 0 1 .273.902l-.775 4.877a.5.5 0 0 0 .49.598h1.057l.194 1.164c.08.483.15.836.639.836h1c.488 0 .558-.353.64-.836L20.332 21h1.057a.5.5 0 0 0 .49-.598l-.776-4.877a1 1 0 0 1 .273-.903l.33-.33a1 1 0 0 0 .292-.706v-5.09a.84.84 0 0 0-.328-.693A4.6 4.6 0 0 0 19.002 7a4.64 4.64 0 0 0-2.736.828M19.72 1.45a1.49 1.49 0 0 0-2.522.713 5.6 5.6 0 0 0-.18 1.696 2 2 0 0 1-.413 1.46c-.11.096-.156.275-.026.34A4.5 4.5 0 0 0 18.37 6h1.262a4.5 4.5 0 0 0 1.79-.34c.13-.066.084-.245-.026-.34a2 2 0 0 1-.413-1.46 5 5 0 0 1 .044-.594 2.25 2.25 0 0 0-.044-1.005c-.252-.875-.72-.98-1.261-.81z"/></svg>