<svg xmlns="http://www.w3.org/2000/svg" viewBox="0 0 24 24"><path d="M21.674 12.664V5.492a.97.97 0 0 0-.557-.881C17.583 2.99 14.207 2.65 12 2.65c-4 0-7.16 1.064-9.108 1.957a.97.97 0 0 0-.567.885v7.172a2.5 2.5 0 0 0-1.8 2.395v7.466c0 .249.201.45.45.45h1.05a.45.45 0 0 0 .45-.45v-2.05h19.05v2.05c0 .249.201.45.45.45h1.05a.45.45 0 0 0 .45-.45V15.06a2.5 2.5 0 0 0-1.8-2.395M4.274 6.13A20.1 20.1 0 0 1 12 4.599c1.892 0 4.723.274 7.725 1.53v6.421H4.275zm-1.8 8.93a.56.56 0 0 1 .56-.56h17.932a.56.56 0 0 1 .559.56v3.466H2.475zm7.88-6.46v.8a.455.455 0 0 1-.382.45c-1.147.17-2.298.17-3.444 0a.455.455 0 0 1-.383-.45v-.8c0-.223.162-.418.383-.45 1.146-.17 2.297-.17 3.444 0 .22.032.383.227.383.45m7.5 0v.8a.455.455 0 0 1-.382.45c-1.147.17-2.298.17-3.444 0a.455.455 0 0 1-.383-.45v-.8c0-.223.162-.418.383-.45 1.146-.17 2.297-.17 3.444 0 .22.032.383.227.383.45"/></svg>