<svg xmlns="http://www.w3.org/2000/svg" viewBox="0 0 24 24"><path d="M14.45 8.443V3.66a.65.65 0 0 0-.372-.587C11.722 1.994 9.472 1.767 8 1.767c-2.666 0-4.774.71-6.072 1.304a.65.65 0 0 0-.378.59v4.782a1.67 1.67 0 0 0-1.2 1.596v4.978a.3.3 0 0 0 .3.3h.7a.3.3 0 0 0 .3-.3V13.65h12.7v1.367a.3.3 0 0 0 .3.3h.7a.3.3 0 0 0 .3-.3v-4.978a1.67 1.67 0 0 0-1.2-1.596M2.85 4.086A13.4 13.4 0 0 1 8 3.066c1.262 0 3.149.183 5.15 1.02v4.28H2.85zm-1.2 5.953c0-.206.167-.373.372-.373h11.955c.206 0 .373.167.373.373v2.311H1.65zm5.253-4.306v.534a.3.3 0 0 1-.255.3 7.8 7.8 0 0 1-2.296 0 .3.3 0 0 1-.255-.3v-.534c0-.148.108-.278.255-.3a7.8 7.8 0 0 1 2.296 0 .3.3 0 0 1 .255.3m5 0v.534a.3.3 0 0 1-.255.3 7.8 7.8 0 0 1-2.296 0 .3.3 0 0 1-.255-.3v-.534c0-.148.108-.278.255-.3a7.8 7.8 0 0 1 2.296 0 .3.3 0 0 1 .255.3"/></svg>