<svg xmlns="http://www.w3.org/2000/svg" viewBox="0 0 24 24"><path d="M19.5 1.5h-15a3 3 0 00-3 3v15a3 3 0 003 3h15a3 3 0 003-3v-15a3 3 0 00-3-3zm-12 7.097a.9.9 0 01.286-.748A2.23 2.23 0 019 7.5a2.155 2.155 0 011.196.349.928.928 0 01.304.771v1.715a1.508 1.508 0 11-3 0zM12 16.5H6A1.749 1.749 0 014.5 15a.828.828 0 01.572-.754A10.413 10.413 0 019 13.5a10.602 10.602 0 013.947.747.795.795 0 01.553.753 1.749 1.749 0 01-1.5 1.5zm6.75-4.5h-4.5a.75.75 0 010-1.5h4.5a.75.75 0 010 1.5zm0-3h-4.5a.75.75 0 010-1.5h4.5a.75.75 0 010 1.5z"/></svg>