<svg xmlns="http://www.w3.org/2000/svg" viewBox="0 0 24 24"><path d="M19.392 10.281l-1.138-.324A.575.575 0 0118 9.5v-1C18 4.818 15.534 2 12 2S6 4.818 6 8.5v1a.575.575 0 01-.254.457l-1.138.324A.78.78 0 004 11v8a3.226 3.226 0 003 3h10a3.226 3.226 0 003-3v-8a.78.78 0 00-.608-.719zM14 16.602A1.558 1.558 0 0112.322 18h-.644A1.557 1.557 0 0110 16.602v-2.204A1.557 1.557 0 0111.678 13h.644A1.558 1.558 0 0114 14.398zm2-7.213v.001a20.777 20.777 0 00-8 0v-.852A4.3 4.3 0 0112 4a4.3 4.3 0 014 4.537z"/></svg>