<svg xmlns="http://www.w3.org/2000/svg" viewBox="0 0 24 24"><path d="M8 6.452V4.08a.639.639 0 01.685-.58.552.552 0 01.588.58v2.372c0 1.295 1.307 2.19 2.838 2.19h1.82a3.314 3.314 0 01-.84-2.2V4.079a.617.617 0 01.65-.578.592.592 0 01.623.578v2.365a2.331 2.331 0 002.561 2.2h1.542A3.468 3.468 0 0122 11.924a.655.655 0 01-1.3-.001 2.123 2.123 0 00-2.233-1.985h-1.542a4.392 4.392 0 01-.516-.03.8.8 0 01-.185.022v-.001H12.11C9.825 9.929 8 8.385 8 6.452zM22 16.5v2a2.15 2.15 0 01-2 2H5a3 3 0 010-6h15a2.15 2.15 0 012 2zm-2 1a1 1 0 00-1-1h-5a1 1 0 000 2h5a1 1 0 001-1z"/></svg>