<svg xmlns="http://www.w3.org/2000/svg" viewBox="0 0 24 24"><path d="M7.5 4A1.5 1.5 0 0 1 9 5.5V8h.5A1.5 1.5 0 0 1 11 9.5v8A1.5 1.5 0 0 1 9.5 19v.25a.75.75 0 0 1-1.5 0V19H5v.25a.75.75 0 0 1-1.5 0V19A1.5 1.5 0 0 1 2 17.5v-8A1.5 1.5 0 0 1 3.5 8H4V5.498A1.5 1.5 0 0 1 5.5 4zM5.25 5.5a.25.25 0 0 0-.25.25V8h3V5.75a.25.25 0 0 0-.25-.25zm12.512 12.06a.776.776 0 1 1 0 1.552.776.776 0 0 1 0-1.551m0-8.931c1.122 0 1.968.383 2.526.997.542.596.75 1.34.75 1.967 0 .552-.093 1.16-.408 1.738-.32.586-.837 1.082-1.584 1.455a1 1 0 0 0-.354.27.7.7 0 0 0-.128.285c-.046.194-.042.37-.034.614q.006.145.007.325a.776.776 0 0 1-1.55 0q0-.057-.005-.156c-.01-.265-.027-.72.072-1.139.143-.607.517-1.195 1.299-1.586.502-.25.766-.537.916-.81.153-.281.217-.611.217-.996 0-.31-.105-.66-.344-.924-.223-.245-.628-.488-1.38-.488s-1.14.24-1.358.502c-.238.286-.367.713-.367 1.222a.776.776 0 0 1-1.55 0c0-.74.183-1.563.726-2.215.564-.676 1.425-1.06 2.549-1.06"/></svg>