<svg xmlns="http://www.w3.org/2000/svg" viewBox="0 0 24 24"><path d="m15.431 9.828-.034.032a6.75 6.75 0 0 1 3.353 5.824 6.757 6.757 0 0 1-6.75 6.75 6.757 6.757 0 0 1-6.75-6.75 6.75 6.75 0 0 1 3.353-5.823 27 27 0 0 1-.793-.76C5.212 6.593 3.35 3.465 2.648 2.25l1.298-.751.014.024C4.634 2.687 6.2 5.393 8.87 8.04c.296.295.59.582.885.848q.11.1.22.192l.148.126A6.7 6.7 0 0 1 12 8.935c.3 0 .594.026.884.064a25 25 0 0 1-1.381-1.106 24 24 0 0 1-1.288-1.22c-1.283-1.233-2.687-3.078-3.549-4.3l1.227-.864c.801 1.137 2.14 2.894 3.39 4.112.238.242.472.467.705.684l.166-.151c.186-.17.372-.339.558-.529 1.228-1.188 2.592-2.983 3.393-4.12l1.227.864c-.861 1.222-2.285 3.1-3.551 4.309-.153.156-.306.296-.46.436l-.196.18c.584.477 1.116.874 1.553 1.179l.128-.122c.107-.101.214-.202.323-.311 2.682-2.665 4.12-5.156 4.823-6.374l.093-.161 1.298.752-.03.052c-.718 1.24-2.333 4.031-5.124 6.793-.254.254-.508.492-.758.726m-.625 6.134a.297.297 0 0 0 0-.556l-.859-.318a2.29 2.29 0 0 1-1.351-1.351l-.318-.86a.296.296 0 0 0-.556 0l-.318.86a2.29 2.29 0 0 1-1.351 1.351l-.86.318a.297.297 0 0 0 0 .556l.86.318c.626.232 1.12.725 1.35 1.351l.319.86c.095.258.46.258.556 0l.318-.86a2.29 2.29 0 0 1 1.351-1.35z"/></svg>