<svg xmlns="http://www.w3.org/2000/svg" viewBox="0 0 24 24"><path d="M7 2.92a.883.883 0 0 1 1.157-.87l1.25.447a.92.92 0 0 1 .593.87V5.16A1.797 1.797 0 0 1 8.25 7h-.375A.9.9 0 0 1 7 6.08zm0 9.76V9a1 1 0 0 1 1-1h.678a1.05 1.05 0 0 1 .988.74c.36 1.102 1.085 2.77 2.234 2.77a5.3 5.3 0 0 1 3.062.586 29.7 29.7 0 0 1 4.609 3.146c1.225 1.17-.483 2.042-1.257 1.672a7 7 0 0 1-1.186-.742 12 12 0 0 0-2.586-1.487c-1.257-.557-2.847-.053-3.867.337C8.225 15.958 7 14.436 7 12.68"/><path d="M6 9a1 1 0 0 0-2 0v3.818a5.8 5.8 0 0 0 1.082 3.319 5.15 5.15 0 0 0 4.362 2.045 6.6 6.6 0 0 0 2.663-.648 1.5 1.5 0 0 1 1.202.068 1.23 1.23 0 0 1 .69 1.216 1.53 1.53 0 0 1-.263.723 1.06 1.06 0 0 1-.958.459h-5a1 1 0 0 0 0 2h5a3.05 3.05 0 0 0 2.597-1.314A3.5 3.5 0 0 0 16 18.818a3.22 3.22 0 0 0-1.81-3.011 3.48 3.48 0 0 0-2.964-.068 4.7 4.7 0 0 1-1.782.443 3.16 3.16 0 0 1-2.75-1.228A3.8 3.8 0 0 1 6 12.818z"/></svg>