<svg xmlns="http://www.w3.org/2000/svg" viewBox="0 0 24 24"><path d="M8.304 6.039a.705.705 0 00.627.369H9v3.622c0 1.578 1.5 2.378 3 2.378s3-.8 3-2.378V6.408h.07a.705.705 0 00.626-.37l.23-.437a.648.648 0 00-.238-.853l-3.152-2a1 1 0 00-1.072 0l-3.152 2a.648.648 0 00-.238.853zM11 9.408h2v.028a1 1 0 01-2 0zm9 8.25v.977a2.863 2.863 0 01-2.502 2.734.47.47 0 01-.517-.461 4.687 4.687 0 00-4.981-4.5A4.685 4.685 0 007.02 20.9a.472.472 0 01-.525.46A2.895 2.895 0 014 18.634v-.995a1.77 1.77 0 01.99-1.634 16.866 16.866 0 016.982-1.597 17.328 17.328 0 017.016 1.6A1.784 1.784 0 0120 17.658zm-4.03 3.25a.457.457 0 01-.47.5h-7a.457.457 0 01-.47-.5 4 4 0 017.94 0z"/></svg>