<svg xmlns="http://www.w3.org/2000/svg" viewBox="0 0 24 24"><path d="m21.24 3.927-2.213-.757a21.7 21.7 0 0 0-14.054 0l-2.213.757A1.14 1.14 0 0 0 2 5.009v10.584a3.38 3.38 0 0 0 3.333 3.42h2.49a2 2 0 0 1 1.432.604l2.029 2.081.018.018a1 1 0 0 0 1.414-.018l2.029-2.081a2 2 0 0 1 1.432-.604h2.49A3.377 3.377 0 0 0 22 15.593V5.009a1.14 1.14 0 0 0-.76-1.082M12 16a1 1 0 1 1 1-1 1 1 0 0 1-1 1m2.079-5.334a5 5 0 0 1-.472.341l-.044.03a4 4 0 0 0-.364.266c-.16.143-.19.224-.19.34V12a1 1 0 0 1-2 0v-.357a2.39 2.39 0 0 1 .871-1.842 5 5 0 0 1 .57-.426l.022-.014a4 4 0 0 0 .316-.223.6.6 0 0 0 .173-.671c-.066-.175-.283-.467-.953-.467-.588 0-.793.181-.866.266a.63.63 0 0 0-.142.392 1 1 0 0 1-2 0 2.63 2.63 0 0 1 .629-1.701A3.02 3.02 0 0 1 12.008 6a2.86 2.86 0 0 1 2.822 1.755 2.6 2.6 0 0 1-.751 2.911"/></svg>