<svg xmlns="http://www.w3.org/2000/svg" viewBox="0 0 24 24"><path d="M11.392 2.081A1.435 1.435 0 0112 3.366v5.86A2.791 2.791 0 019 12a2.792 2.792 0 01-3-2.773V3.33a1.383 1.383 0 01.572-1.248A5.122 5.122 0 019 1.5a4.967 4.967 0 012.392.581zm.767 13.707a.466.466 0 00-.366-.569A17.621 17.621 0 009 15a17.3 17.3 0 00-7.855 1.865A2.073 2.073 0 000 18.75v.75a3.226 3.226 0 003 3h10.235a.543.543 0 00.364-.887 6.771 6.771 0 01-1.44-5.825zM24 17.25A5.25 5.25 0 1118.75 12 5.25 5.25 0 0124 17.25zm-1.5 0a.75.75 0 00-.75-.75H19.5v-2.25a.75.75 0 00-1.5 0v2.25h-2.25a.75.75 0 000 1.5H18v2.25a.75.75 0 001.5 0V18h2.25a.75.75 0 00.75-.75z"/></svg>