<svg xmlns="http://www.w3.org/2000/svg" viewBox="0 0 24 24"><path d="M23.535 3.847a2.72 2.72 0 0 0-1.757-1.39 4.1 4.1 0 0 0-3.3.666 9.4 9.4 0 0 0-2.3 2.318 22.4 22.4 0 0 0-2.416 4.419L7.197 7.739a3.17 3.17 0 0 0-2.615.305l-1.447.875c.435-2.621 1.616-3.937 3.132-4.32a2.3 2.3 0 0 1 1.108-.095 1 1 0 0 1 .011.14 1.478 1.478 0 1 0 2.955 0A3.07 3.07 0 0 0 9.137 2.1v-.001a4.22 4.22 0 0 0-3.586-.386 6.63 6.63 0 0 0-4.589 4.12A10.7 10.7 0 0 0 .26 8.262a17 17 0 0 0-.252 2.546L0 10.812q0 .13.002.259Q0 11.205 0 11.34v.299a1 1 0 0 0 .031.26c.26 4.568 2.21 10.6 8.38 10.6a14.12 14.12 0 0 0 10.255-4.34 16 16 0 0 0 2.395-3.251c.302-.504.582-1.033.837-1.574a26 26 0 0 0 1.322-3.24 13.3 13.3 0 0 0 .777-4.297 4.4 4.4 0 0 0-.462-1.951zm-3.12 5.315a21 21 0 0 1-3.33 6.336 5.92 5.92 0 0 1-.936-3.653l.011.004a20.2 20.2 0 0 1 2.4-4.647 6.5 6.5 0 0 1 1.535-1.588 1.33 1.33 0 0 1 .868-.288 2 2 0 0 1 .08.562 10.4 10.4 0 0 1-.628 3.274"/></svg>