<svg xmlns="http://www.w3.org/2000/svg" viewBox="0 0 24 24"><path d="M12.02 2a5.794 5.794 0 00-4.847 2.1A5.913 5.913 0 006 7.644a1 1 0 102 0 3.916 3.916 0 01.756-2.32A3.814 3.814 0 0112.02 4a3.663 3.663 0 013.773 2.432 3.844 3.844 0 01-.895 3.967 10.544 10.544 0 01-.88.704l-.099.074a12.256 12.256 0 00-1.27 1.056A5.085 5.085 0 0011 16v1a1 1 0 002 0v-1a3.09 3.09 0 011.05-2.34 10.237 10.237 0 011.068-.883l.111-.083a11.943 11.943 0 001.043-.843 5.84 5.84 0 001.414-6.063A5.653 5.653 0 0012.02 2zM13 21a1 1 0 11-1-1 1 1 0 011 1z"/></svg>