<svg xmlns="http://www.w3.org/2000/svg" viewBox="0 0 24 24"><path d="M4.5 3.75A.75.75 0 015.25 3h6a.75.75 0 01.75.75v.404a.347.347 0 00.346.346 3.87 3.87 0 013.256 1.822l2.37 3.716a1 1 0 00.843.462h.685A4.5 4.5 0 0124 15v3a1.5 1.5 0 01-1.5 1.5h-.75a.925.925 0 01-.843-.742 3.001 3.001 0 00-5.814 0 .925.925 0 01-.843.742h-4.5a.925.925 0 01-.843-.742 3.001 3.001 0 00-5.814 0 .925.925 0 01-.843.742H1.5A1.5 1.5 0 010 18v-6a1.5 1.5 0 011.5-1.5h14.023a.5.5 0 00.424-.764L14.3 7.093A2.322 2.322 0 0012.346 6H2.283a.75.75 0 110-1.5H4.05a.45.45 0 00.45-.45z"/><path d="M6 21a1.5 1.5 0 10-1.5-1.5A1.5 1.5 0 006 21zm13.5-1.5A1.5 1.5 0 1118 18a1.5 1.5 0 011.5 1.5z"/></svg>