<svg xmlns="http://www.w3.org/2000/svg" viewBox="0 0 24 24"><path d="M3 7.5a1.138 1.138 0 01.684-1.07l1.991-.758a17.655 17.655 0 0112.65 0l1.991.758A1.136 1.136 0 0121 7.5v2.54a.533.533 0 01-.608.515 7.286 7.286 0 00-3.738.525l-.775.325A1.49 1.49 0 0015 12.79V13a.5.5 0 01-.5.5h-5A.5.5 0 019 13v-.21a1.488 1.488 0 00-.88-1.385l-.774-.325a7.286 7.286 0 00-3.738-.524A.534.534 0 013 10.04z"/><path d="M1.266 12.327A.494.494 0 001 12.79v3.71a3 3 0 003 3h16a3 3 0 003-3v-3.71a.494.494 0 00-.266-.463l-.775-.325a6.274 6.274 0 00-4.918 0l-.775.325a.494.494 0 00-.266.464v.709a1 1 0 01-1 1H9a1 1 0 01-1-1v-.71a.494.494 0 00-.266-.463l-.774-.325a6.274 6.274 0 00-4.92 0z"/></svg>