<svg xmlns="http://www.w3.org/2000/svg" viewBox="0 0 24 24"><path d="M9.668 6.877L9.034 4.5a.585.585 0 01.712-.701l1.546.435a1.152 1.152 0 01.568.369l2.817 3.23a.597.597 0 01-.58.979L10.5 7.8a1.188 1.188 0 01-.832-.923z"/><path d="M1.774 2.91a1.163 1.163 0 00-.69-.538l-.36-.101a.587.587 0 00-.712.702l.955 4.832a4.083 4.083 0 002.555 3.107l5.173 1.456a.612.612 0 01.34.904l-4.32 7.136a.612.612 0 00.34.904l1.407.396a1.115 1.115 0 001.084-.28l7.57-6.716a1.546 1.546 0 011.26-.183l6.416 1.806a.887.887 0 001.202-.88c-.196-1.735-1.824-3.034-3.652-3.548L5.75 7.8a3.49 3.49 0 01-2.06-1.612z"/><path d="M16.114 18.698a1.499 1.499 0 10-1.061-1.843l-.002.005a1.504 1.504 0 001.063 1.838z"/></svg>