<svg xmlns="http://www.w3.org/2000/svg" viewBox="0 0 24 24"><path d="M9.312 7.924c1.348 0 2.612.725 3.542 1.455.334.262.139.8-.286.8H5.246c-.401 0-.612-.497-.317-.77.842-.774 2.21-1.485 4.383-1.485m14.667 4.264v2.92c0 1.313-.883 2.402-2.04 2.626a3.23 3.23 0 0 1-3.183 2.739 3.23 3.23 0 0 1-3.179-2.691H8.435a3.23 3.23 0 0 1-3.18 2.69 3.23 3.23 0 0 1-3.183-2.738C.92 17.508.041 16.425.041 15.122V9.28c0-.17.044-.336.128-.484.827-1.448 3.38-4.817 9.2-4.817 4.142 0 7.443 3.34 8.356 4.362.785.148 2.716.57 4.727 1.466a2.6 2.6 0 0 1 1.527 2.381M6.539 17.24c0-.707-.576-1.284-1.283-1.284-.708 0-1.284.577-1.284 1.284s.576 1.284 1.284 1.284c.707 0 1.284-.576 1.284-1.284m13.5 0c0-.707-.576-1.284-1.283-1.284-.708 0-1.284.577-1.284 1.284s.576 1.284 1.284 1.284c.707 0 1.284-.576 1.284-1.284m1.99-5.05a.65.65 0 0 0-.37-.6c-2.31-1.029-4.57-1.38-4.591-1.384a.98.98 0 0 1-.612-.35c-.031-.04-3.24-3.926-7.086-3.926-4.402 0-6.483 2.175-7.38 3.619v5.574c0 .32.17.586.389.672a3.23 3.23 0 0 1 2.877-1.789c1.277 0 2.373.75 2.898 1.827h7.704a3.23 3.23 0 0 1 2.898-1.827c1.262 0 2.345.733 2.878 1.79.222-.084.395-.358.395-.687z"/></svg>