<svg xmlns="http://www.w3.org/2000/svg" viewBox="0 0 24 24"><path d="M6.208 5.283c.899 0 1.741.483 2.361.97.223.174.093.533-.19.533H3.498c-.268 0-.409-.332-.212-.513.561-.516 1.473-.99 2.922-.99m9.778 2.842v1.947c0 .875-.588 1.601-1.36 1.75a2.15 2.15 0 0 1-2.122 1.826 2.154 2.154 0 0 1-2.12-1.793h-4.76a2.154 2.154 0 0 1-2.12 1.793 2.15 2.15 0 0 1-2.123-1.826c-.768-.15-1.354-.872-1.354-1.74V6.186a.65.65 0 0 1 .086-.323c.551-.966 2.253-3.211 6.134-3.211 2.76 0 4.961 2.226 5.57 2.908.523.098 1.81.38 3.151.977a1.73 1.73 0 0 1 1.018 1.587M4.36 11.493a.857.857 0 0 0-.856-.856.857.857 0 0 0-.856.856c0 .471.384.856.856.856a.857.857 0 0 0 .856-.856m9 0a.857.857 0 0 0-.856-.856.857.857 0 1 0 .856.856m1.326-3.368a.43.43 0 0 0-.246-.4 13.6 13.6 0 0 0-3.062-.922.66.66 0 0 1-.407-.233c-.021-.026-2.16-2.617-4.724-2.617-2.935 0-4.322 1.45-4.92 2.412v3.716c0 .213.113.391.259.448a2.15 2.15 0 0 1 1.918-1.192c.851 0 1.582.5 1.932 1.218h5.136a2.15 2.15 0 0 1 1.932-1.218 2.15 2.15 0 0 1 1.918 1.193c.149-.056.264-.239.264-.458z"/></svg>