<svg xmlns="http://www.w3.org/2000/svg" viewBox="0 0 24 24"><path d="M7.713 13.415a.48.48 0 00.098-.517A4.49 4.49 0 017.5 11.25V3C7.5 1.758 9.514.75 12 .75c2.484 0 4.5 1.008 4.5 2.25v.542a.45.45 0 00.768.318l2.671-2.67a1.5 1.5 0 012.122 2.12l-18 18a1.5 1.5 0 01-2.122-2.12l2.456-2.456a.466.466 0 00.055-.584A8.958 8.958 0 013 11.25a1.5 1.5 0 013 0 5.969 5.969 0 00.56 2.535.42.42 0 00.681.103zm2.787 7.091a.466.466 0 00-.374-.451 8.91 8.91 0 01-.961-.26.288.288 0 01-.107-.481l2.014-2.015a.308.308 0 01.253-.087A6 6 0 0018 11.25a1.5 1.5 0 013 0 9.004 9.004 0 01-7.126 8.805.466.466 0 00-.374.451v1.244a1.5 1.5 0 01-3 0z"/></svg>