<svg xmlns="http://www.w3.org/2000/svg" viewBox="0 0 24 24"><path d="M-.004 7.25a1.96 1.96 0 0 1 1.922-2h5.1a1.946 1.946 0 0 1 1.896 1.671l1.163 3.043a2 2 0 0 0 1.87 1.286h3.4a1.455 1.455 0 0 0 .51-2.387l-.767-1.01c-.45-.603-.962-.603-2.073-.603h-1.559a1.007 1.007 0 0 1 0-2h1.552a3.77 3.77 0 0 1 3.374 1.746L18.95 9.94a1.04 1.04 0 0 0 .68.345 7.2 7.2 0 0 1 2.865.965c1 .5 1.531 2.5 1.49 3.485.028.681.018 1.243.01 1.765a.76.76 0 0 1-.76.75h-.739c-.198 0-.5 0-.838-.014a.86.86 0 0 1-.748-.703 3.001 3.001 0 0 0-5.82-.025.925.925 0 0 1-.844.742h-4.5a.925.925 0 0 1-.843-.742 3.001 3.001 0 0 0-5.85.156c-.066.336-.293.664-.633.628a.6.6 0 0 1-.174-.042 4.51 4.51 0 0 1-2.25-4z"/><path d="M7.496 17.25a1.5 1.5 0 1 1-1.5-1.5 1.5 1.5 0 0 1 1.5 1.5m12 0a1.5 1.5 0 1 1-1.5-1.5 1.5 1.5 0 0 1 1.5 1.5"/></svg>