<svg xmlns="http://www.w3.org/2000/svg" viewBox="0 0 24 24"><path d="M21.79 9.985a10.02 10.02 0 0 1-4.206 10.308 9.995 9.995 0 0 1-15.5-9.572q.02-.162.048-.321l.003-.018a10 10 0 0 1 .218-1.008l.024-.097q.015-.066.034-.13.179-.6.43-1.172l.05-.101.036-.075q.23-.495.513-.963l.037-.06A10 10 0 0 1 5.18 4.693q.031-.03.062-.057l.03-.026A10 10 0 0 1 7.43 3.108l.003-.002a.6.6 0 0 1 .167-.08q.49-.24 1.003-.425l.065-.023a10 10 0 0 1 1.002-.296l.096-.025q.437-.098.888-.157l.095-.015.13-.02a9.94 9.94 0 0 1 8.184 2.864 10 10 0 0 1 2.143 3.179 10 10 0 0 1 .582 1.877zm-9.592 9.928q.013-.053.03-.106.017-.057.037-.114c.17-.512.357-1.078.085-1.532-.131-.218-.345-.362-.56-.506-.188-.128-.378-.255-.513-.434a1.78 1.78 0 0 1-.056-1.623 3.4 3.4 0 0 0 .326-1.64 5.1 5.1 0 0 1-1.76-.472c-.35-.192-.65-.463-.95-.734-.38-.345-.759-.687-1.235-.863a2.1 2.1 0 0 1-.756-.333 1.4 1.4 0 0 1-.278-.444L5.65 9.119a2.65 2.65 0 0 1-.311-1.024c.002-.261.058-.519.164-.757A7.986 7.986 0 0 0 11.992 20q.052 0 .103-.005l.084-.004zm6.406-4.585.586.104A7.9 7.9 0 0 0 19.992 12a8.004 8.004 0 0 0-7.729-7.986 6.3 6.3 0 0 1 2.248 2.367 5.03 5.03 0 0 0-2.812 2.355c-.04.143-.108.278-.199.396a1 1 0 0 1-.065.062.4.4 0 0 0-.123.147.42.42 0 0 0 .014.272q.141.505.312 1.001c-.404.236-1 .438-1.27.054-.082-.118-.116-.276-.149-.43-.05-.231-.097-.452-.31-.507a.6.6 0 0 0-.285.022l-1.094.27a4 4 0 0 0-.07 1.851c.729-.108 1.617-.155 2.047.443.091.127.163.28.233.433.152.327.3.648.633.675.181-.007.357-.058.513-.15a3.29 3.29 0 0 1 3.128.27c.264.246.597.405.954.456l.074-.004c.107-.007.22-.014.292.06a.5.5 0 0 1 .082.286c.067.496.615.775 1.11.85.143.022.29.034.436.047q.098.007.195.017.036.004.07.01l.059.01.002-.005.192.034.044.007q.04.006.08.015"/></svg>