<svg xmlns="http://www.w3.org/2000/svg" viewBox="0 0 24 24"><path d="M21.79 9.985a10.018 10.018 0 0 1-4.206 10.308 9.995 9.995 0 0 1-15.5-9.572c.013-.108.03-.215.048-.321l.003-.018a9.94 9.94 0 0 1 .218-1.008l.024-.097c.01-.044.021-.088.034-.13.119-.4.263-.79.43-1.172l.05-.101.036-.075c.153-.33.325-.651.513-.963l.037-.06A10.029 10.029 0 0 1 5.18 4.693c.02-.02.042-.038.062-.057l.03-.026A10.008 10.008 0 0 1 7.43 3.108l.003-.002a.607.607 0 0 1 .167-.08c.326-.16.661-.301 1.003-.425l.065-.023a9.954 9.954 0 0 1 1.002-.296l.096-.025c.291-.066.588-.117.888-.157l.095-.015.13-.02a9.937 9.937 0 0 1 8.184 2.864 10.048 10.048 0 0 1 2.143 3.179 10 10 0 0 1 .582 1.877zm-9.592 9.928c.009-.035.018-.071.03-.106.011-.038.024-.076.037-.114.17-.512.357-1.078.085-1.532-.131-.218-.345-.362-.56-.506-.188-.128-.378-.255-.513-.434a1.784 1.784 0 0 1-.056-1.623 3.39 3.39 0 0 0 .326-1.64 5.1 5.1 0 0 1-1.76-.472c-.35-.192-.65-.463-.95-.734-.38-.345-.759-.687-1.235-.863a2.098 2.098 0 0 1-.756-.333 1.372 1.372 0 0 1-.278-.444L5.65 9.119a2.647 2.647 0 0 1-.311-1.024c.002-.261.058-.519.164-.757A7.986 7.986 0 0 0 11.992 20c.035 0 .069-.002.103-.005.028-.002.056-.004.084-.004l.02-.078zm6.406-4.585.586.104A7.874 7.874 0 0 0 19.992 12a8.004 8.004 0 0 0-7.729-7.986 6.293 6.293 0 0 1 2.248 2.367 5.026 5.026 0 0 0-2.812 2.355c-.04.143-.108.278-.199.396a.968.968 0 0 1-.065.062.423.423 0 0 0-.123.147.424.424 0 0 0 .014.272c.094.337.198.67.312 1.001-.404.236-1 .438-1.27.054-.082-.118-.116-.276-.149-.43-.05-.231-.097-.452-.31-.507a.591.591 0 0 0-.285.022l-1.094.27a3.971 3.971 0 0 0-.07 1.851c.729-.108 1.617-.155 2.047.443.091.127.163.28.233.433.152.327.3.648.633.675.181-.007.357-.058.513-.15a3.292 3.292 0 0 1 3.128.27c.264.246.597.405.954.456a.942.942 0 0 0 .074-.004c.107-.007.22-.014.292.06a.475.475 0 0 1 .082.286c.067.496.615.775 1.11.85.143.022.29.034.436.047.066.005.13.01.195.017.024.002.047.007.07.01a1.2 1.2 0 0 0 .059.01l.002-.005.192.034.044.007c.027.004.054.009.08.015z"/></svg>