<svg xmlns="http://www.w3.org/2000/svg" viewBox="0 0 24 24"><path d="M20.8 11.23V5.778a.8.8 0 0 0-.457-.723C17.109 3.522 14.02 3.2 12 3.2a19.6 19.6 0 0 0-8.343 1.855.8.8 0 0 0-.457.723v5.453a2.296 2.296 0 0 0-2 2.269v7a.5.5 0 0 0 .5.5h.6a.5.5 0 0 0 .5-.5v-1.7h18.4v1.7a.5.5 0 0 0 .5.5h.6a.5.5 0 0 0 .5-.5v-7c0-1.165-.875-2.12-2-2.27m-16-4.938A18 18 0 0 1 12 4.8c1.761 0 4.403.265 7.2 1.492V11.2H4.8zm-2 7.208a.7.7 0 0 1 .7-.7h17a.7.7 0 0 1 .7.7v3.7H2.8zM11 8.793v.414c0 .251-.186.47-.436.5a13 13 0 0 1-3.128 0 .5.5 0 0 1-.436-.5v-.414c0-.251.186-.47.436-.5a13 13 0 0 1 3.128 0c.25.03.436.249.436.5m6 0v.414c0 .251-.186.47-.436.5a13 13 0 0 1-3.129 0 .5.5 0 0 1-.435-.5v-.414c0-.251.186-.47.435-.5a13 13 0 0 1 3.13 0c.249.03.435.249.435.5"/></svg>