<svg xmlns="http://www.w3.org/2000/svg" viewBox="0 0 24 24"><path d="M12 1.5A10.5 10.5 0 1022.5 12 10.5 10.5 0 0012 1.5zm-.9 4.945a.317.317 0 01.172-.303A1.81 1.81 0 0112 6a1.778 1.778 0 01.718.141.333.333 0 01.182.314v1.142c0 .448-.45.676-.9.676s-.9-.228-.9-.676zm4.975 3.602l-2.115.235a.956.956 0 00-.806.896l-.084.937a1.11 1.11 0 00.004.24l.649 5.047a.508.508 0 01-.467.598.482.482 0 01-.454-.38l-.716-2.784a.087.087 0 00-.172 0l-.716 2.784a.483.483 0 01-.454.38.51.51 0 01-.468-.598l.65-5.047a1.082 1.082 0 00.004-.241l-.084-.936a.956.956 0 00-.806-.896l-2.115-.235a.507.507 0 01-.425-.522A.501.501 0 017.972 9h8.056a.501.501 0 01.472.525.507.507 0 01-.425.522z"/></svg>