<svg xmlns="http://www.w3.org/2000/svg" viewBox="0 0 24 24"><path d="M22.36 9.532a23.2 23.2 0 0 0-4.75-1.374c-.84-.89-4.13-4.075-8.251-4.075-5.72 0-8.23 3.106-9.042 4.441A.8.8 0 0 0 .2 8.94v5.48c0 1.175.828 2.147 1.91 2.34A3 3 0 0 0 5 19a2.995 2.995 0 0 0 2.878-2.199h7.244A2.995 2.995 0 0 0 18 19a2.995 2.995 0 0 0 2.878-2.199h.621c1.269 0 2.3-1.073 2.3-2.394V11.67c0-.934-.564-1.772-1.44-2.137M5 17.4c-.772 0-1.4-.628-1.4-1.4s.628-1.4 1.4-1.4 1.4.628 1.4 1.4-.628 1.4-1.4 1.4m13 0c-.772 0-1.4-.628-1.4-1.4s.628-1.4 1.4-1.4 1.4.628 1.4 1.4-.628 1.4-1.4 1.4m4.2-2.993c0 .438-.314.795-.701.795h-.62A2.995 2.995 0 0 0 18 13a2.995 2.995 0 0 0-2.879 2.202H7.878A2.995 2.995 0 0 0 5 13c-1.334 0-2.454.88-2.843 2.087a.79.79 0 0 1-.357-.667V9.172c.908-1.384 3.034-3.49 7.559-3.49 3.948 0 7.21 3.708 7.243 3.745a.8.8 0 0 0 .492.269c.023.003 2.31.336 4.65 1.313a.72.72 0 0 1 .456.66zM4.441 8.817c.852-.853 2.345-1.715 4.88-1.715 1.588 0 3.064.896 4.062 1.693.22.175.088.53-.193.53H4.662c-.265 0-.408-.32-.221-.508"/></svg>