<svg xmlns="http://www.w3.org/2000/svg" viewBox="0 0 24 24"><path d="M5.587 16.998h-1.99C2.161 16.998 1 15.88 1 14.498V9.502C1 8.12 2.162 7 3.596 7h4.246a.9.9 0 0 0 .575-.21l5.182-4.437C14.53 1.557 16 2.194 16 3.392v3.194l4.293-4.293a1 1 0 1 1 1.414 1.414l-18 18a1 1 0 0 1-1.414-1.414zm4.177 1.364a.5.5 0 0 1-.029-.733l5.411-5.412a.5.5 0 0 1 .854.354v8.037c0 1.199-1.47 1.835-2.4 1.038zm8.253-9.015a.26.26 0 0 0-.048.293c.34.714.531 1.514.531 2.36 0 .948-.239 1.837-.66 2.614a.75.75 0 1 0 1.32.714c.536-.99.84-2.125.84-3.328s-.102-1.852-.508-2.701c-.12-.22-.293-.521-.419-.71-.068-.102-.195-.103-.282-.016z"/><path d="M20.188 7.46a.255.255 0 0 1 .033-.317l.724-.724a.244.244 0 0 1 .377.034A9.96 9.96 0 0 1 23 12a9.96 9.96 0 0 1-1.96 5.946.75.75 0 1 1-1.205-.892A8.46 8.46 0 0 0 21.5 12a8.46 8.46 0 0 0-1.312-4.54"/></svg>