<svg xmlns="http://www.w3.org/2000/svg" viewBox="0 0 24 24"><path d="M6 2.333C6 1.597 6.597 1 7.333 1h3.334C11.403 1 12 1.597 12 2.333V10.5a.5.5 0 0 1-1 0V3H7v7.5a.5.5 0 0 1-1 0V2.333zM5 12h5.594c.506 0 .747.752.393 1.114A6.977 6.977 0 0 0 9 18c0 .794.132 1.556.375 2.268.12.347-.125.732-.492.732H7v1a1 1 0 1 1-2 0v-1a2 2 0 0 1-2-2v-5a2 2 0 0 1 2-2zm16.001 6.001A5 5 0 1 1 11 18a5 5 0 0 1 10.001.001zm-2 0a1 1 0 0 0-1-1h-1v-1a1 1 0 1 0-2 0v1h-1A1 1 0 0 0 14 19h1v1a1 1 0 1 0 2 0v-1h1a1 1 0 0 0 1-1z"/></svg>