<svg xmlns="http://www.w3.org/2000/svg" viewBox="0 0 24 24"><path d="M6 2.498A1.5 1.5 0 0 1 7.5 1h3A1.5 1.5 0 0 1 12 2.5V12h1c.212 0 .416.033.608.094.2.064.176.325-.016.409a6.001 6.001 0 0 0-2.993 8.114c.085.174-.037.383-.23.383H7v1a1 1 0 1 1-2 0v-1a2 2 0 0 1-2-2v-5a2 2 0 0 1 2-2h1V2.498Zm1.5.002A.5.5 0 0 0 7 3v9h4V3a.5.5 0 0 0-.5-.5h-3Zm13.501 15.501A5 5 0 1 1 11 18a5 5 0 0 1 10.001.001Zm-2.001 0a1 1 0 0 0-1-1h-1v-1a1 1 0 1 0-2 0v1h-1A1 1 0 0 0 14 19h1v1a1 1 0 1 0 2 0v-1h1a1 1 0 0 0 1-1Z"/></svg>