<svg xmlns="http://www.w3.org/2000/svg" viewBox="0 0 24 24"><path d="M16 15c.123 0 .225.043.37.178.076.072.156.163.251.277l.085.103c.07.086.15.181.23.273.237.27.538.571.959.8.425.23.946.374 1.605.374q.404-.001.741-.067c.363-.071.759.18.759.55v.502c0 2.215-1.79 4.01-4 4.01H7c-2.21 0-4-1.795-4-4.01v-.502c0-.37.396-.621.759-.55q.338.066.741.067c.66 0 1.18-.143 1.605-.374.421-.229.722-.53.958-.8a13 13 0 0 0 .316-.376c.095-.114.175-.205.252-.277.144-.135.246-.178.369-.178.186 0 .328.063.496.2.09.074.182.165.291.28l.098.103c.08.086.17.181.261.272.271.272.61.566 1.078.789.47.223 1.044.36 1.776.36s1.306-.137 1.776-.36a3.8 3.8 0 0 0 1.078-.788c.09-.092.18-.187.261-.273l.098-.104c.109-.114.201-.205.29-.279.169-.137.31-.2.497-.2M15 2a3 3 0 0 0-3 3v2H6V5a1 1 0 0 1 1.928-.375 1 1 0 0 0 1.853-.75A3 3 0 0 0 4 5v9.969q.236.03.5.031c.606 0 1.094-.122 1.5-.32V13h6v2c.732 0 1.306-.138 1.776-.36q.118-.056.224-.119V5a1 1 0 0 1 1.928-.375 1 1 0 0 0 1.853-.75A3 3 0 0 0 15 2m-9 9V9h6v2z"/></svg>