<svg xmlns="http://www.w3.org/2000/svg" viewBox="0 0 24 24"><path d="M12 1.5c5.799 0 10.5 4.701 10.5 10.5S17.799 22.5 12 22.5 1.5 17.799 1.5 12 6.201 1.5 12 1.5zm1.83 17.489l-1.902.51.072.001c.908 0 1.777-.161 2.583-.457l-.038-.037a.871.871 0 00-.714-.017zm.446-14.137l.02.098.059.125.07.12c.043.074.087.147.12.226a.925.925 0 01-.412 1.135l-1.149-1.343a1.57 1.57 0 00-.429.878c.003.112.018.222.045.33l.597 1.954c-.904.388-1.757.888-2.537 1.488a.151.151 0 00-.044.25l.66 1.023c.062.078.1.171.11.27a.414.414 0 01-.099.25c-.349.381-.9.503-1.376.303a3.165 3.165 0 01-.984-.683l-.2-.226a17.683 17.683 0 01-1.391-1.722 1.06 1.06 0 00-.86.536c-.17.309-.287.645-.345.993l-.672 2.96c-.172-.076-.315-.246-.45-.435l-.102-.143a2.662 2.662 0 00-.363-.452 7.498 7.498 0 006.488 6.651l.003-.368a5.285 5.285 0 00-.06-.674c-.068-.452.05-.912.325-1.276.35-.28.757-.478 1.194-.578a3.245 3.245 0 001.645-1.425l.889.049a22.8 22.8 0 011.599-.044l.8.02c.08-.005.16.015.229.055a.441.441 0 01.133.279c.069.31.17.614.3.903a7.503 7.503 0 00-3.812-11.527z"/></svg>