<svg width="24" height="24" viewBox="0 0 24 24" fill="none" xmlns="http://www.w3.org/2000/svg">
<path fill-rule="evenodd" clip-rule="evenodd" d="M4.5 10.5C4.5 7.18629 7.18629 4.5 10.5 4.5C13.8137 4.5 16.5 7.18629 16.5 10.5C16.5 13.8137 13.8137 16.5 10.5 16.5C7.18629 16.5 4.5 13.8137 4.5 10.5ZM10.5 1.5C5.52944 1.5 1.5 5.52944 1.5 10.5C1.5 15.4706 5.52944 19.5 10.5 19.5C12.4437 19.5 14.2436 18.8838 15.7148 17.8361L19.9393 22.0607C20.5251 22.6464 21.4749 22.6464 22.0607 22.0607C22.6464 21.4749 22.6464 20.5251 22.0607 19.9393L17.8361 15.7148C18.8838 14.2436 19.5 12.4437 19.5 10.5C19.5 5.52944 15.4706 1.5 10.5 1.5Z" fill="#161616"/>
</svg>
