<svg xmlns="http://www.w3.org/2000/svg" viewBox="0 0 24 24"><path d="M16.167 3.005a3.28 3.28 0 0 0-2.526 1.05l-7.41 7.256a5.594 5.594 0 0 0-.057 8.037 5.964 5.964 0 0 0 8.298-.056l4.423-4.331a1.5 1.5 0 0 1 2.099 2.143l-4.423 4.331a8.963 8.963 0 0 1-12.496.056 8.593 8.593 0 0 1 .058-12.323l7.41-7.256A6.26 6.26 0 0 1 16.34.01a6.6 6.6 0 0 1 4.194 1.902 6.4 6.4 0 0 1 1.956 4.146 6.06 6.06 0 0 1-1.956 4.747l-7.467 7.312a4.2 4.2 0 0 1-2.395 1.052 3.83 3.83 0 0 1-3.15-1.052 3.73 3.73 0 0 1-1.088-3.14 4.08 4.08 0 0 1 1.088-2.379l7.467-7.311a1.5 1.5 0 0 1 2.099 2.143l-7.465 7.31v-.002a1 1 0 0 0-.092.163 1.4 1.4 0 0 0-.116.415.73.73 0 0 0 .205.657.84.84 0 0 0 .727.213 1.5 1.5 0 0 0 .448-.12 1 1 0 0 0 .176-.096l-.003.003 7.467-7.312a3.08 3.08 0 0 0 1.06-2.423 3.4 3.4 0 0 0-1.06-2.182 3.6 3.6 0 0 0-2.268-1.051"/></svg>