<svg xmlns="http://www.w3.org/2000/svg" viewBox="0 0 24 24"><path d="M16.167 3.005a3.277 3.277 0 00-2.526 1.05l-7.41 7.256a5.594 5.594 0 00-.057 8.037 5.964 5.964 0 008.298-.056l4.423-4.331a1.5 1.5 0 012.099 2.143l-4.423 4.331a8.963 8.963 0 01-12.496.056 8.593 8.593 0 01.058-12.323l7.41-7.256A6.255 6.255 0 0116.34.01a6.591 6.591 0 014.194 1.902 6.398 6.398 0 011.956 4.146 6.061 6.061 0 01-1.956 4.747l-7.467 7.312a4.182 4.182 0 01-2.395 1.052 3.832 3.832 0 01-3.15-1.052 3.725 3.725 0 01-1.088-3.14 4.077 4.077 0 011.088-2.379l7.467-7.311a1.5 1.5 0 012.099 2.143l-7.465 7.31v-.002a.821.821 0 00-.092.163 1.397 1.397 0 00-.116.415.732.732 0 00.205.657.84.84 0 00.727.213 1.497 1.497 0 00.448-.12.843.843 0 00.176-.096l-.003.003 7.467-7.312a3.076 3.076 0 001.06-2.423 3.398 3.398 0 00-1.06-2.182 3.595 3.595 0 00-2.268-1.051z"/></svg>