<svg xmlns="http://www.w3.org/2000/svg" viewBox="0 0 24 24"><path d="M6.176 4.83a.69.69 0 01.92-.251l6.861 3.69a1.502 1.502 0 01.712.846l2.624 7.864a1.5 1.5 0 002.846-.948l-2.624-7.862a4.497 4.497 0 00-2.135-2.537l-6.862-3.69a3.687 3.687 0 00-3.652 6.403q.067.04.135.078l6.247 3.404a1.499 1.499 0 101.437-2.631L6.437 5.792a.69.69 0 01-.275-.936l.013-.024zm11.04 14.672a1.5 1.5 0 10-.134 2.997q.067.003.134 0h4.5a1.5 1.5 0 00.135-2.997q-.067-.003-.135 0zm-10.5 0a3 3 0 11-3-2.997 2.999 2.999 0 013 2.997z"/><path d="M2.898 12.009c-1.205 0-2.182 1.449-2.182 2.68v.46a.547.547 0 00.816.425 4.498 4.498 0 016.121 6.108.547.547 0 00.424.817h3.957a2.207 2.207 0 002.182-2.231v-1.116c0-3.696-2.93-7.142-6.545-7.142H2.898z"/></svg>