<svg xmlns="http://www.w3.org/2000/svg" viewBox="0 0 24 24"><path d="M24 13.47v1.08c0 1.08 0 2.7-1 2.7h-1.25a.925.925 0 0 1-.843-.742 3.001 3.001 0 0 0-5.814 0 .925.925 0 0 1-.843.742h-4.5a.925.925 0 0 1-.843-.742 3.001 3.001 0 0 0-5.814 0 .925.925 0 0 1-.843.742H1.5v-.006l-.063.005h-.03a1 1 0 0 1-.09-.003C.33 17.25.072 15.49.004 14.564a2 2 0 0 1 .225-1.044l1.658-3.058a1.29 1.29 0 0 1 1.112-.713h11c1 0 .88-1.034.194-1.57a6.6 6.6 0 0 0-1.596-.999 8 8 0 0 0-3.061-.545 13.7 13.7 0 0 0-3.226.417A44 44 0 0 0 1.909 8.44a.54.54 0 0 1-.69-.408l-.003-.012a.7.7 0 0 1 .334-.845A30 30 0 0 1 6.07 5.66a14 14 0 0 1 3.322-.409h.1a9.3 9.3 0 0 1 3.498.587 17 17 0 0 1 4.05 3.136 1.08 1.08 0 0 0 .668.31 11.95 11.95 0 0 1 4.79 1.486 3.01 3.01 0 0 1 1.5 2.7z"/><path d="M7.5 17.25a1.5 1.5 0 1 1-1.5-1.5 1.5 1.5 0 0 1 1.5 1.5m12 0a1.5 1.5 0 1 1-1.5-1.5 1.5 1.5 0 0 1 1.5 1.5"/></svg>