<svg width="453" height="249" viewBox="0 0 453 249" fill="none" xmlns="http://www.w3.org/2000/svg">
<g clip-path="url(#clip0_9026_10147)">
<path d="M50.4 175.4C50.4 178.4 49.4 181.3 47.4 184C45.4 186.7 42.6 188.6 39.1 189.9C43.2 190.6 46.6 192.6 49.4 195.9C52.2 199.2 53.6 202.7 53.6 206.3C53.6 212.2 51.4 216.9 46.9 220.5C42.4 224.1 36.5 225.8 29.1 225.8H0.0999756V156.4L26.1 156.5C33.3 156.5 39.2 158.2 43.7 161.6C48.2 165 50.4 169.6 50.4 175.4ZM15.4 185.6H21.7C30.5 185.6 34.9 182.4 34.9 176.1C34.9 173.7 34.1 171.9 32.4 170.6C30.7 169.3 28.6 168.7 26.1 168.7H15.4V185.6ZM23.4 196.3H15.4V213.6H29.1C31.7 213.6 33.9 212.9 35.6 211.5C37.3 210.1 38.1 208.3 38.1 206C38.1 203.1 37.1 200.8 35.1 199C33 197.2 29.2 196.3 23.4 196.3Z" fill="#05203C"/>
<path d="M97.4999 175H112.3V225.8H97.4999V218.4C93.4999 224.1 88.1999 226.9 81.5999 226.9C74.0999 226.9 68.0999 224.4 63.5999 219.3C59.0999 214.2 56.8999 207.9 56.8999 200.2C56.8999 192.7 59.0999 186.5 63.3999 181.5C67.6999 176.5 73.6999 174 81.3999 174C84.6999 174 87.7999 174.7 90.6999 176.2C93.5999 177.7 95.8999 179.6 97.6999 182V175H97.4999ZM71.4999 200.3C71.4999 204.5 72.6999 207.9 75.0999 210.7C77.4999 213.5 80.5999 214.9 84.5999 214.9C88.3999 214.9 91.5999 213.7 94.0999 211.3C96.5999 208.9 97.8999 205.5 97.8999 201.1C97.8999 196.5 96.5999 192.8 94.0999 190.1C91.5999 187.4 88.2999 186 84.1999 186C80.2999 186 77.1999 187.4 74.8999 190.1C72.6999 192.8 71.4999 196.2 71.4999 200.3Z" fill="#05203C"/>
<path d="M124.8 219.3C119.6 214.3 117 208 117 200.3C117 192.6 119.6 186.3 124.8 181.3C130 176.3 136.9 173.8 145.4 173.8C152.5 173.8 159.4 176.3 166.2 181.3L159.5 192.1C155.7 188.7 151.3 187 146.1 187C141.8 187 138.3 188.2 135.7 190.7C133.1 193.1 131.7 196.3 131.7 200.2C131.7 204.1 133 207.3 135.7 209.7C138.3 212.1 141.8 213.4 146.1 213.4C151.3 213.4 155.7 211.7 159.5 208.3L166.2 219.1C159.4 224.1 152.5 226.6 145.4 226.6C136.9 226.8 130 224.3 124.8 219.3Z" fill="#05203C"/>
<path d="M185.6 195.6L200 175H216.3V177L199.5 198.2L206.1 208.8C208.1 211.8 210.4 213.4 213 213.4C215 213.4 216.8 212.8 218.4 211.6L223.9 222C220.2 225.3 215.8 226.9 210.6 226.9C204.1 226.9 199.1 224.3 195.6 219.2L185.4 202.8V225.9H170.6V154.3H185.4V195.6H185.6Z" fill="#05203C"/>
<path d="M240.8 249H226V175H240.8V182.4C244.8 176.7 250.1 173.9 256.7 173.9C264.2 173.9 270.2 176.4 274.7 181.5C279.2 186.6 281.4 192.9 281.4 200.6C281.4 208.1 279.2 214.3 274.9 219.3C270.6 224.3 264.6 226.8 256.9 226.8C253.6 226.8 250.5 226.1 247.6 224.6C244.7 223.1 242.4 221.2 240.6 218.8V249H240.8ZM266.8 200.6C266.8 196.4 265.6 193 263.2 190.2C260.8 187.4 257.7 186 253.7 186C249.9 186 246.7 187.2 244.2 189.6C241.7 192 240.4 195.4 240.4 199.8C240.4 204.4 241.7 208.1 244.2 210.8C246.7 213.5 250 214.9 254.1 214.9C258 214.9 261.1 213.5 263.4 210.8C265.6 208.1 266.8 204.7 266.8 200.6Z" fill="#05203C"/>
<path d="M326.6 175H341.4V225.8H326.6V218.4C322.6 224.1 317.3 226.9 310.7 226.9C303.2 226.9 297.2 224.4 292.7 219.3C288.2 214.2 286 207.9 286 200.2C286 192.7 288.2 186.5 292.5 181.5C296.8 176.5 302.8 174 310.5 174C313.8 174 316.9 174.7 319.8 176.2C322.7 177.7 325 179.6 326.8 182V175H326.6ZM300.6 200.3C300.6 204.5 301.8 207.9 304.2 210.7C306.6 213.5 309.7 214.9 313.7 214.9C317.5 214.9 320.7 213.7 323.2 211.3C325.7 208.9 327 205.5 327 201.1C327 196.5 325.7 192.8 323.2 190.1C320.7 187.4 317.4 186 313.3 186C309.4 186 306.3 187.4 304 190.1C301.8 192.8 300.6 196.2 300.6 200.3Z" fill="#05203C"/>
<path d="M353.4 219.3C348.2 214.3 345.6 208 345.6 200.3C345.6 192.6 348.2 186.3 353.4 181.3C358.6 176.3 365.5 173.8 374 173.8C381.1 173.8 388 176.3 394.8 181.3L388.1 192.1C384.3 188.7 379.9 187 374.7 187C370.4 187 366.9 188.2 364.3 190.7C361.7 193.1 360.3 196.3 360.3 200.2C360.3 204.1 361.6 207.3 364.3 209.7C366.9 212.1 370.4 213.4 374.7 213.4C379.9 213.4 384.3 211.7 388.1 208.3L394.8 219.1C388 224.1 381.1 226.6 374 226.6C365.5 226.8 358.6 224.3 353.4 219.3Z" fill="#05203C"/>
<path d="M414.2 195.6L428.7 175H445V177L428.2 198.2L434.8 208.8C436.8 211.8 439.1 213.4 441.7 213.4C443.7 213.4 445.5 212.8 447.1 211.6L452.6 222C448.9 225.3 444.5 226.9 439.3 226.9C432.8 226.9 427.8 224.3 424.3 219.2L414.1 202.8V225.9H399.3V154.3H414.1V195.6H414.2Z" fill="#05203C"/>
<path d="M182.7 102H180.3C179 102 177.9 100.9 177.9 99.6V75.2C177.9 73.9 179 72.8 180.3 72.8H182.7V102Z" fill="#E70866"/>
<path d="M270.6 99.6C270.6 100.9 269.5 102 268.2 102H265.8V72.7H268.2C269.5 72.7 270.6 73.8 270.6 75.1V99.6Z" fill="#E70866"/>
<path d="M187.6 43.4C187.6 28.6 199.6 16.6 214.5 16.5H234C248.8 16.5 260.8 28.5 260.9 43.4V111.8C260.9 115.8 257.6 119.1 253.6 119.1H195C191 119.1 187.7 115.8 187.7 111.8V43.4H187.6Z" fill="#E70866"/>
<path d="M251.1 80H197.4V109.3H251.1V80Z" fill="#FFA3E5"/>
<path d="M253.6 75.2H195C193.7 75.2 192.6 76.3 192.6 77.6V111.8C192.6 113.1 193.7 114.2 195 114.2H253.6C254.9 114.2 256 113.1 256 111.8V77.6C256 76.2 254.9 75.2 253.6 75.2ZM251.1 109.3H197.4V92.2H204.7H209.6H251.1V109.3ZM251.1 87.4H197.4V80H251.1V87.4Z" fill="#05203C"/>
<path d="M205.8 92.2V99.5C205.8 100.8 206.9 101.9 208.2 101.9C209.5 101.9 210.6 100.8 210.6 99.5V92.2H205.8Z" fill="#05203C"/>
<path d="M268.2 67.8H265.8V43.4C265.8 28.7 255.6 15.9 241.3 12.5C240.4 3.1 233.6 0.199997 224.3 0.199997C213.1 0.199997 208.1 4.3 207.3 12.5C192.9 15.9 182.8 28.7 182.8 43.4V67.8H180.4C176.4 67.8 173.1 71.1 173.1 75.1V99.5C173.1 103.5 176.4 106.8 180.4 106.8H182.8V111.7C182.8 118.4 188.3 123.9 195 123.9H253.6C260.3 123.9 265.8 118.4 265.8 111.7V106.8H268.2C272.2 106.8 275.5 103.5 275.5 99.5V75.1C275.5 71.1 272.2 67.8 268.2 67.8ZM182.7 102H180.3C179 102 177.9 100.9 177.9 99.6V75.2C177.9 73.9 179 72.8 180.3 72.8H182.7V102ZM224.3 5.2C231.7 5.2 234.4 6 235.5 11.7H213C214.2 6 218.5 5.2 224.3 5.2ZM187.6 43.4C187.6 28.6 199.6 16.6 214.5 16.5H234C248.8 16.5 260.8 28.5 260.9 43.4V111.8C260.9 115.8 257.6 119.1 253.6 119.1H195C191 119.1 187.7 115.8 187.7 111.8V43.4H187.6ZM270.6 99.6C270.6 100.9 269.5 102 268.2 102H265.8V72.7H268.2C269.5 72.7 270.6 73.8 270.6 75.1V99.6Z" fill="#05203C"/>
<path d="M224.3 62.9C224.8 62.9 225.3 62.8 225.7 62.5L231 59.5C232.1 58.9 233.3 58.6 234.5 58.8C240.9 59.5 245.4 60.8 246.7 61.1C247 61.2 247.3 61.1 247.4 60.9C247.6 60.6 247.9 60.2 248.1 59.6C248.3 59 248.3 58.5 248.3 58.1C248.3 57.8 248.1 57.5 247.8 57.5C245.7 56.9 236.5 54.4 224.2 54.4C211.9 54.4 202.7 56.9 200.6 57.5C200.3 57.6 200.1 57.8 200.1 58.1C200.1 58.4 200.1 58.9 200.3 59.6C200.5 60.2 200.8 60.7 201 60.9C201.2 61.1 201.5 61.2 201.7 61.1C203 60.7 207.5 59.5 213.9 58.8C215.1 58.7 216.4 58.9 217.4 59.5L222.7 62.5C223.3 62.8 223.8 62.9 224.3 62.9Z" fill="#05203C"/>
<path d="M215.5 45.9C215.8 46.4 216.2 46.7 216.8 46.9C217.4 47.1 217.9 47 218.4 46.7C218.9 46.4 219.2 46 219.4 45.4C219.6 44.8 219.5 44.3 219.2 43.8L214.5 35.6C214.4 35.3 214 35.2 213.8 35.3C213.4 35.3 212.9 35.5 212.3 35.9C211.7 36.3 211.2 36.6 211 36.9C210.8 37.1 210.8 37.5 210.9 37.7L215.5 45.9Z" fill="#05203C"/>
<path d="M211.1 51.7C211.6 52 212.2 52 212.7 51.9C213.2 51.8 213.7 51.4 214 50.9C214.3 50.4 214.3 49.8 214.2 49.3C214.1 48.8 213.7 48.3 213.2 48L205 43.3C204.7 43.2 204.4 43.2 204.2 43.4C203.9 43.6 203.5 44.1 203.2 44.7C202.8 45.3 202.6 45.9 202.6 46.2C202.6 46.5 202.7 46.8 202.9 46.9L211.1 51.7Z" fill="#05203C"/>
<path d="M226.4 42.9C226.4 43.5 226.2 44 225.8 44.4C225.4 44.8 224.9 45 224.3 45C223.7 45 223.2 44.8 222.8 44.4C222.4 44 222.2 43.5 222.2 42.9V33.4C222.2 33.1 222.4 32.8 222.7 32.7C223 32.5 223.6 32.4 224.3 32.4C225 32.4 225.6 32.5 225.9 32.7C226.2 32.8 226.4 33.1 226.4 33.4V42.9Z" fill="#05203C"/>
<path d="M233.1 45.9C232.8 46.4 232.4 46.7 231.8 46.9C231.2 47.1 230.7 47 230.2 46.7C229.7 46.4 229.4 46 229.2 45.4C229 44.8 229.1 44.3 229.4 43.8L234.1 35.6C234.2 35.3 234.6 35.2 234.8 35.3C235.2 35.3 235.7 35.5 236.3 35.9C236.9 36.3 237.4 36.6 237.6 36.9C237.8 37.1 237.8 37.5 237.7 37.7L233.1 45.9Z" fill="#05203C"/>
<path d="M237.4 51.7C236.9 52 236.3 52 235.8 51.9C235.3 51.8 234.8 51.4 234.5 50.9C234.2 50.4 234.2 49.8 234.3 49.3C234.4 48.8 234.8 48.3 235.3 48L243.5 43.3C243.8 43.2 244.1 43.2 244.3 43.4C244.6 43.6 245 44.1 245.3 44.7C245.7 45.3 245.9 45.9 245.9 46.2C245.9 46.5 245.8 46.8 245.6 46.9L237.4 51.7Z" fill="#05203C"/>
</g>
<defs>
<clipPath id="clip0_9026_10147">
<rect width="453" height="249" fill="white"/>
</clipPath>
</defs>
</svg>
