<svg fill="none" height="248" viewBox="0 0 452 248" width="452" xmlns="http://www.w3.org/2000/svg" xmlns:xlink="http://www.w3.org/1999/xlink"><clipPath id="a"><path d="m0 0h452v248h-452z"/></clipPath><g clip-path="url(#a)"><g fill="#fff"><path d="m50.4 174.5c0 3-1 5.9-3 8.6s-4.7 4.6-8.3 5.9c4.1.7 7.5 2.7 10.3 6s4.1 6.8 4.1 10.4c0 5.9-2.2 10.6-6.7 14.1-4.5 3.6-10.4 5.3-17.8 5.3h-29v-69.3l26 .1c7.2 0 13 1.7 17.5 5.1 4.7 3.5 6.9 8.1 6.9 13.8zm-35 10.2h6.3c8.8 0 13.1-3.2 13.1-9.5 0-2.4-.8-4.2-2.5-5.5s-3.8-1.9-6.3-1.9h-10.7v16.9zm8 10.7h-8v17.3h13.6c2.6 0 4.8-.7 6.5-2.1s2.5-3.2 2.5-5.5c0-2.9-1-5.2-3-7s-5.8-2.7-11.6-2.7z"/><path d="m97.4 174.2h14.7v50.7h-14.7v-7.4c-4 5.7-9.3 8.5-15.9 8.5-7.5 0-13.5-2.5-18-7.6s-6.7-11.4-6.7-19.1c0-7.4 2.2-13.7 6.5-18.7s10.3-7.5 17.9-7.5c3.3 0 6.4.7 9.2 2.2 2.9 1.4 5.2 3.4 7 5.8zm-25.9 25.2c0 4.2 1.2001 7.6 3.6001 10.4s5.5 4.2 9.5 4.2c3.8 0 7-1.2 9.5-3.6s3.7999-5.8 3.7999-10.2c0-4.6-1.2999-8.3-3.7999-11s-5.8001-4.1-9.9001-4.1c-3.9 0-7 1.4-9.2 4.1-2.4 2.7-3.5 6.1-3.5 10.2z"/><path d="m124.7 218.4c-5.2-5-7.8-11.3-7.8-18.9s2.6-14 7.8-18.9c5.2-5 12-7.5 20.6-7.5 7.1 0 14 2.5 20.8 7.5l-6.7 10.8c-3.8-3.4-8.2-5-13.3-5-4.3 0-7.7 1.2-10.4 3.7-2.6 2.4-4 5.6-4 9.5s1.3 7.1 4 9.5c2.6 2.4 6.1 3.7 10.4 3.7 5.1 0 9.6-1.7 13.3-5l6.7 10.8c-6.8 5-13.7 7.5-20.8 7.5-8.5-.2-15.4-2.7-20.6-7.7z"/><path d="m185.4 194.7 14.4-20.6h16.3v2l-16.8 21.2 6.6 10.6c2 3 4.3 4.5 6.9 4.5 2 0 3.8-.6 5.4-1.8l5.5 10.4c-3.7 3.3-8.1 4.9-13.2 4.9-6.5 0-11.5-2.6-15-7.7l-10.2-16.4v23h-14.7v-71.5h14.7v41.4z"/><path d="m240.5 248h-14.7v-73.8h14.7v7.4c4-5.7 9.3-8.5 15.9-8.5 7.5 0 13.5 2.5 18 7.6s6.7 11.4 6.7 19.1c0 7.4-2.2 13.7-6.5 18.7s-10.3 7.5-17.9 7.5c-3.3 0-6.4-.7-9.2-2.2-2.9-1.4-5.2-3.4-7-5.8zm25.9-48.3c0-4.2-1.2-7.6-3.6-10.4s-5.5-4.2-9.5-4.2c-3.8 0-7 1.2-9.5 3.6s-3.8 5.8-3.8 10.2c0 4.6 1.3 8.3 3.8 11s5.8 4.1 9.9 4.1c3.9 0 7-1.4 9.2-4.1 2.4-2.7 3.5-6.2 3.5-10.2z"/><path d="m326.1 174.2h14.7v50.7h-14.7v-7.4c-4 5.7-9.3 8.5-15.9 8.5-7.5 0-13.5-2.5-18-7.6s-6.7-11.4-6.7-19.1c0-7.4 2.2-13.7 6.5-18.7s10.3-7.5 17.9-7.5c3.3 0 6.4.7 9.2 2.2 2.9 1.4 5.2 3.4 7 5.8zm-25.9 25.2c0 4.2 1.2 7.6 3.6 10.4s5.5 4.2 9.5 4.2c3.8 0 7-1.2 9.5-3.6s3.8-5.8 3.8-10.2c0-4.6-1.3-8.3-3.8-11s-5.8-4.1-9.9-4.1c-3.9 0-7 1.4-9.2 4.1-2.3 2.7-3.5 6.1-3.5 10.2z"/><path d="m353 218.4c-5.2-5-7.8-11.3-7.8-18.9s2.6-14 7.8-18.9c5.2-5 12-7.5 20.6-7.5 7.1 0 14 2.5 20.8 7.5l-6.7 10.8c-3.8-3.4-8.2-5-13.3-5-4.3 0-7.7 1.2-10.4 3.7-2.6 2.4-4 5.6-4 9.5s1.3 7.1 4 9.5 6.1 3.7 10.4 3.7c5.1 0 9.6-1.7 13.3-5l6.7 10.8c-6.8 5-13.7 7.5-20.8 7.5-8.6-.2-15.5-2.7-20.6-7.7z"/><path d="m413.6 194.7 14.4-20.6h16.3v2l-16.8 21.2 6.6 10.6c2 3 4.3 4.5 6.9 4.5 2 0 3.8-.6 5.4-1.8l5.5 10.4c-3.7 3.3-8.1 4.9-13.2 4.9-6.5 0-11.5-2.6-15-7.7l-10.2-16.4v23h-14.7v-71.5h14.7v41.4z"/></g><path d="m210.3 99.8c0 1.4-1.1 2.4-2.5 2.4s-2.4-1.1-2.4-2.4v-7.3h-8.4v17.1h53.7v-17.1h-40.4z" fill="#ffa3e5"/><path d="m267.8 68h-2.4v-24.4c0-14.7-10.2-27.5-24.5-30.9-.9-9.39998-7.8-12.299976-17-12.299976-11.2 0-16.2 4.099996-17 12.299976-14.4 3.4-24.5 16.2-24.5 30.9v24.4h-2.4c-4 0-7.3 3.3-7.3 7.3v24.4c0 4 3.3 7.3 7.3 7.3h2.4v4.9c0 6.7 5.5 12.2 12.2 12.2h58.6c6.7 0 12.2-5.5 12.2-12.2v-4.9h2.4c4 0 7.3-3.3 7.3-7.3v-24.4c0-4-3.2-7.2-7.3-7.3zm-85.4 34.2h-2.4c-1.3 0-2.4-1.1-2.4-2.4v-24.4c0-1.3 1.1-2.4 2.4-2.4h2.4zm60.6-58.8c.1-.1.3-.1.4-.1.2 0 .4.1.6.2.4.2.7.7 1.1 1.3s.6 1.2.6 1.6-.1.8-.4.9l-8.2 4.8c-.4.2-.8.3-1.2.3-.2 0-.4 0-.6-.1-.6-.2-1.1-.6-1.4-1.1s-.4-1.1-.2-1.7.6-1.1 1.1-1.4zm-5.5-6.5c.2.3.3.7.1 1l-4.7 8.2c-.3.5-.8.9-1.4 1.1-.2.1-.4.1-.6.1-.4 0-.8-.1-1.2-.3-.5-.3-.9-.8-1.1-1.4s-.1-1.2.2-1.8l4.7-8.2c.2-.3.5-.4.8-.4.5 0 1.1.2 1.7.6.8.4 1.3.8 1.5 1.1zm-13.6-31.49998c7.4 0 10.1.8 11.2 6.49998h-22.5c1.2-5.69998 5.5-6.49998 11.3-6.49998zm2.3 28.29998v9.5c0 .6-.2 1.2-.7 1.6-.4.4-1 .7-1.6.7s-1.2-.2-1.6-.7c-.4-.4-.7-1-.7-1.6v-9.5c0-.4.2-.7.6-.9s1-.3 1.7-.3 1.3.1 1.7.3c.5.3.6.6.6.9zm-16 3.2c.2-.4.7-.7 1.3-1.1s1.2-.6 1.6-.6c.5 0 .8.2.9.4l4.7 8.2c.3.6.4 1.2.2 1.8s-.6 1.1-1.1 1.4c-.4.2-.8.3-1.2.3-.2 0-.4 0-.6-.1-.6-.2-1.1-.5-1.4-1.1l-4.7-8.2c.1-.3.1-.7.3-1zm-7.6 7.9c.4-.6.7-1.1 1.1-1.3.2-.1.4-.2.6-.2s.3 0 .4.1l8.2 4.8c.5.3 1 .8 1.1 1.4s.1 1.2-.2 1.7-.8.9-1.4 1.1c-.2 0-.4.1-.6.1-.4 0-.8-.1-1.2-.3l-8.2-4.7c-.3-.2-.5-.5-.4-.9 0-.6.2-1.2.6-1.8zm-2.4 12.7c2.5-.7 11.6-3.1 23.6-3.1 12.1 0 21.2 2.4 23.7 3.1.4.1.6.4.7.8 0 .5 0 1-.2 1.6-.2.7-.5 1.1-.7 1.4-.2.2-.4.3-.7.3h-.2c-1.2-.4-5.7-1.6-12.2-2.3-.2 0-.4 0-.6 0-1 0-1.9.3-2.8.7l-5.3 3c-.5.3-1 .4-1.6.4-.5 0-1.1-.1-1.6-.4l-5.3-3c-.8-.5-1.8-.7-2.8-.7-.2 0-.4 0-.6 0-6.5.8-11 2-12.2 2.3h-.2c-.3 0-.6-.1-.7-.3-.2-.3-.5-.7-.7-1.4s-.2-1.2-.2-1.5c0-.5.3-.8.6-.9zm55.4 54.5c0 1.4-1.1 2.5-2.4 2.5h-58.6c-1.4 0-2.5-1.1-2.5-2.5v-34.2c0-1.3 1.1-2.4 2.5-2.4h58.6c1.4 0 2.4 1.1 2.4 2.4zm14.7-12.2c0 1.3-1.1 2.4-2.4 2.4h-2.4v-29.3h2.4c1.3 0 2.4 1.1 2.4 2.4z" fill="#e70866"/><path d="m250.7 80.3h-53.7v7.3001h53.7z" fill="#ffa3e5"/></g></svg>