<svg xmlns="http://www.w3.org/2000/svg" viewBox="0 0 24 24"><path d="M6.3 15.599a1.5 1.5 0 0 1 2.1-.298A5.967 5.967 0 0 0 12 16.5a5.967 5.967 0 0 0 3.6-1.2 1.5 1.5 0 1 1 1.802 2.4A8.966 8.966 0 0 1 12 19.5a8.966 8.966 0 0 1-5.402-1.8 1.5 1.5 0 0 1-.298-2.101zM12 8.25a1.5 1.5 0 0 1 1.5 1.5v3a1.5 1.5 0 0 1-3 0v-3a1.5 1.5 0 0 1 1.5-1.5zM16.5 6A1.5 1.5 0 0 1 18 7.5V9a1.5 1.5 0 0 1-3 0V7.5A1.5 1.5 0 0 1 16.5 6zm-9 0A1.5 1.5 0 0 1 9 7.5V9a1.5 1.5 0 1 1-3 0V7.5A1.5 1.5 0 0 1 7.5 6zm-3-3A1.5 1.5 0 0 0 3 4.5v3a1.5 1.5 0 1 1-3 0v-3A4.5 4.5 0 0 1 4.5 0h3a1.5 1.5 0 1 1 0 3h-3zM15 1.5A1.5 1.5 0 0 1 16.5 0h3A4.5 4.5 0 0 1 24 4.5v3a1.5 1.5 0 0 1-3 0v-3A1.5 1.5 0 0 0 19.5 3h-3A1.5 1.5 0 0 1 15 1.5zM1.5 15A1.5 1.5 0 0 1 3 16.5v3A1.5 1.5 0 0 0 4.5 21h3a1.5 1.5 0 0 1 0 3h-3A4.5 4.5 0 0 1 0 19.5v-3A1.5 1.5 0 0 1 1.5 15zm21 0a1.5 1.5 0 0 1 1.5 1.5v3a4.5 4.5 0 0 1-4.5 4.5h-3a1.5 1.5 0 0 1 0-3h3a1.5 1.5 0 0 0 1.5-1.5v-3a1.5 1.5 0 0 1 1.5-1.5z"/></svg>