<svg xmlns="http://www.w3.org/2000/svg" viewBox="0 0 24 24"><path d="M6.3 15.599a1.5 1.5 0 012.1-.298A5.967 5.967 0 0012 16.5a5.967 5.967 0 003.6-1.2 1.5 1.5 0 111.802 2.4A8.966 8.966 0 0112 19.5a8.966 8.966 0 01-5.402-1.8 1.5 1.5 0 01-.298-2.101zM12 8.25a1.5 1.5 0 011.5 1.5v3a1.5 1.5 0 01-3 0v-3a1.5 1.5 0 011.5-1.5zM16.5 6A1.5 1.5 0 0118 7.5V9a1.5 1.5 0 01-3 0V7.5A1.5 1.5 0 0116.5 6zm-9 0A1.5 1.5 0 019 7.5V9a1.5 1.5 0 11-3 0V7.5A1.5 1.5 0 017.5 6zm-3-3A1.5 1.5 0 003 4.5v3a1.5 1.5 0 11-3 0v-3A4.5 4.5 0 014.5 0h3a1.5 1.5 0 110 3h-3zM15 1.5A1.5 1.5 0 0116.5 0h3A4.5 4.5 0 0124 4.5v3a1.5 1.5 0 01-3 0v-3A1.5 1.5 0 0019.5 3h-3A1.5 1.5 0 0115 1.5zM1.5 15A1.5 1.5 0 013 16.5v3A1.5 1.5 0 004.5 21h3a1.5 1.5 0 010 3h-3A4.5 4.5 0 010 19.5v-3A1.5 1.5 0 011.5 15zm21 0a1.5 1.5 0 011.5 1.5v3a4.5 4.5 0 01-4.5 4.5h-3a1.5 1.5 0 010-3h3a1.5 1.5 0 001.5-1.5v-3a1.5 1.5 0 011.5-1.5z"/></svg>