<svg xmlns="http://www.w3.org/2000/svg" viewBox="0 0 24 24"><path d="M16.55 2.423a.5.5 0 01.292-.644l3-1 .036-.012a.5.5 0 01.28.96l-3 1a.5.5 0 01-.608-.304zm4.45.83h-4a.5.5 0 000 1h4a.5.5 0 000-1zm-.842 2.526l-3-1a.5.5 0 00-.316.948l3 1 .036.012a.5.5 0 00.28-.96zM16.5 15.92v3.333a4 4 0 01-4 4h-6a4 4 0 01-4-4V14.91a4 4 0 011.172-2.829l2.535-2.535a1 1 0 00.293-.707V6.753a.615.615 0 00-.495-.562A2 2 0 014.5 4.253v-1a2 2 0 012-2h7a1 1 0 01.878.52.786.786 0 00.622.48.5.5 0 01.5.5v2a.5.5 0 01-.5.5.786.786 0 00-.622.48 1 1 0 01-.878.52H13a.424.424 0 00-.441.496 7.339 7.339 0 001.167 2.58.496.496 0 01-.426.813 5.755 5.755 0 01-2.24-.89.357.357 0 00-.56.262v.572a1 1 0 00.615.923l2.924 1.218A4 4 0 0116.5 15.92zm-4 1.333a1 1 0 00-1-1h-1v-1a1 1 0 00-2 0v1h-1a1 1 0 000 2h1v1a1 1 0 002 0v-1h1a1 1 0 001-1z"/></svg>