<svg xmlns="http://www.w3.org/2000/svg" viewBox="0 0 24 24"><path d="M16.55 2.423a.5.5 0 0 1 .292-.644l3-1 .036-.012a.5.5 0 0 1 .28.96l-3 1a.5.5 0 0 1-.608-.304m4.45.83h-4a.5.5 0 0 0 0 1h4a.5.5 0 0 0 0-1m-.842 2.526-3-1a.5.5 0 0 0-.316.948l3 1 .036.012a.5.5 0 0 0 .28-.96M16.5 15.92v3.333a4 4 0 0 1-4 4h-6a4 4 0 0 1-4-4V14.91a4 4 0 0 1 1.172-2.829l2.535-2.535a1 1 0 0 0 .293-.707V6.753a.615.615 0 0 0-.495-.562A2 2 0 0 1 4.5 4.253v-1a2 2 0 0 1 2-2h7a1 1 0 0 1 .878.52.79.79 0 0 0 .622.48.5.5 0 0 1 .5.5v2a.5.5 0 0 1-.5.5.79.79 0 0 0-.622.48 1 1 0 0 1-.878.52H13a.424.424 0 0 0-.441.496 7.3 7.3 0 0 0 1.167 2.58.496.496 0 0 1-.426.813 5.8 5.8 0 0 1-2.24-.89.357.357 0 0 0-.56.262v.572a1 1 0 0 0 .615.923l2.924 1.218A4 4 0 0 1 16.5 15.92m-4 1.333a1 1 0 0 0-1-1h-1v-1a1 1 0 0 0-2 0v1h-1a1 1 0 0 0 0 2h1v1a1 1 0 0 0 2 0v-1h1a1 1 0 0 0 1-1"/></svg>