<svg xmlns="http://www.w3.org/2000/svg" viewBox="0 0 24 24"><path d="M4.5 1.8A1.8 1.8 0 016.3 0h2.4a1.8 1.8 0 011.8 1.746v9.504a.75.75 0 01-1.5 0V3H6v8.25a.75.75 0 01-1.5 0V1.8zm-3 13.95a2.25 2.25 0 012.25-2.25h7.5a2.25 2.25 0 012.25 2.25v4.5a2.25 2.25 0 01-2.25 2.25v.375a1.125 1.125 0 01-2.25 0V22.5H6v.375a1.125 1.125 0 01-2.25 0V22.5a2.25 2.25 0 01-2.25-2.25v-4.5zm13.875 6.75a.375.375 0 01-.375-.375V15.75a3.752 3.752 0 00-2.703-3.602.403.403 0 01-.298-.38L12 6.393c0-.159.1-.303.255-.338.16-.036.325-.055.495-.055h7.5a2.25 2.25 0 012.25 2.25v12a2.25 2.25 0 01-2.25 2.25v.375a1.125 1.125 0 01-2.25 0V22.5h-2.625zM13.5 1.8A1.8 1.8 0 0115.3 0h2.4a1.8 1.8 0 011.8 1.8v1.95a.75.75 0 01-1.5 0V3h-3v.75a.75.75 0 01-1.5 0V1.8z"/></svg>