<svg xmlns="http://www.w3.org/2000/svg" viewBox="0 0 24 24"><path d="M12.372 2.01a1 1 0 00-1.744.98l.71 1.262a1 1 0 01-.207 1.238l-.42.373a3 3 0 00-.407 4.043L11.2 11.1a1 1 0 101.6-1.2l-.896-1.194a1 1 0 01.136-1.348l.42-.373a3 3 0 00.621-3.713l-.71-1.262zM5.894 4.053a1 1 0 10-1.816.839q.013.028.028.055l.425.852a.782.782 0 01-.146.902 2.781 2.781 0 00-.258 3.635l.573.764a1 1 0 001.6-1.2l-.573-.764a.781.781 0 01.072-1.02 2.781 2.781 0 00.521-3.21zm-2.136 9.88a.62.62 0 00-.758.55V18.5a4 4 0 004 4h10a4 4 0 004-4v-4.018a.62.62 0 00-.758-.55A3.891 3.891 0 0119.5 14a3.285 3.285 0 01-1.605-.373 3.457 3.457 0 01-.959-.798c-.08-.09-.159-.187-.23-.273l-.085-.102a3.12 3.12 0 00-.252-.276A.51.51 0 0016 12a.731.731 0 00-.496.2 3.123 3.123 0 00-.29.278l-.098.103c-.081.086-.171.181-.262.273a3.828 3.828 0 01-1.077.785A4.07 4.07 0 0112 14a4.088 4.088 0 01-1.777-.36 3.81 3.81 0 01-1.077-.786c-.09-.09-.18-.187-.261-.272l-.098-.104a3.366 3.366 0 00-.291-.278A.731.731 0 008 12a.513.513 0 00-.37.178 3.13 3.13 0 00-.251.275l-.086.103c-.07.086-.15.182-.23.273a3.451 3.451 0 01-.958.798A3.299 3.299 0 014.5 14a3.89 3.89 0 01-.742-.068zM17.553 3.605a1 1 0 011.341.447l.426.852a2.781 2.781 0 01-.52 3.21.781.781 0 00-.073 1.02l.573.765a1 1 0 11-1.6 1.2l-.573-.764a2.781 2.781 0 01.258-3.635.781.781 0 00.146-.902l-.425-.852a1 1 0 01.447-1.34z"/></svg>