<svg xmlns="http://www.w3.org/2000/svg" viewBox="0 0 24 24"><path d="M12.372 2.01a1 1 0 0 0-1.744.98l.71 1.262a1 1 0 0 1-.207 1.238l-.42.373a3 3 0 0 0-.407 4.043L11.2 11.1a1 1 0 1 0 1.6-1.2l-.896-1.194a1 1 0 0 1 .136-1.348l.42-.373a3 3 0 0 0 .621-3.713l-.71-1.262zM5.894 4.053a1 1 0 1 0-1.816.839q.013.028.028.055l.425.852a.78.78 0 0 1-.146.902 2.78 2.78 0 0 0-.258 3.635l.573.764a1 1 0 0 0 1.6-1.2l-.573-.764a.78.78 0 0 1 .072-1.02 2.78 2.78 0 0 0 .521-3.21zm-2.136 9.88a.62.62 0 0 0-.758.55V18.5a4 4 0 0 0 4 4h10a4 4 0 0 0 4-4v-4.018a.62.62 0 0 0-.758-.55A4 4 0 0 1 19.5 14a3.3 3.3 0 0 1-1.605-.373 3.5 3.5 0 0 1-.959-.798c-.08-.09-.159-.187-.23-.273l-.085-.102a3 3 0 0 0-.252-.276A.5.5 0 0 0 16 12a.73.73 0 0 0-.496.2 3 3 0 0 0-.29.278l-.098.103c-.081.086-.171.181-.262.273a3.8 3.8 0 0 1-1.077.785A4.1 4.1 0 0 1 12 14a4.1 4.1 0 0 1-1.777-.36 3.8 3.8 0 0 1-1.077-.786c-.09-.09-.18-.187-.261-.272l-.098-.104a3 3 0 0 0-.291-.278A.73.73 0 0 0 8 12a.5.5 0 0 0-.37.178 3 3 0 0 0-.251.275l-.086.103c-.07.086-.15.182-.23.273a3.5 3.5 0 0 1-.958.798A3.3 3.3 0 0 1 4.5 14a4 4 0 0 1-.742-.068zM17.553 3.605a1 1 0 0 1 1.341.447l.426.852a2.78 2.78 0 0 1-.52 3.21.78.78 0 0 0-.073 1.02l.573.765a1 1 0 1 1-1.6 1.2l-.573-.764a2.78 2.78 0 0 1 .258-3.635.78.78 0 0 0 .146-.902l-.425-.852a1 1 0 0 1 .447-1.34z"/></svg>