<svg xmlns="http://www.w3.org/2000/svg" viewBox="0 0 24 24"><path d="M21.773 10.386a.795.795 0 00-.416-1.338l-5.476-.83a1 1 0 01-.755-.563l-2.454-5.217a.734.734 0 00-1.344 0L8.875 7.655a1 1 0 01-.755.563l-5.477.829a.795.795 0 00-.416 1.339l3.993 4.07a1 1 0 01.273.863l-.948 5.761a.757.757 0 001.087.828l4.885-2.695a1 1 0 01.966 0l4.885 2.695a.757.757 0 001.087-.827l-.943-5.763a1 1 0 01.272-.862zm-5.417 2.671a3 3 0 00-.818 2.584l.535 3.268-2.623-1.447a3 3 0 00-1.45-.374V5.71l1.316 2.796a3 3 0 002.266 1.69l3.115.471z"/></svg>