<svg xmlns="http://www.w3.org/2000/svg" viewBox="0 0 24 24"><path d="M5.893 17.248H3.14c-1.734 0-3.14-1.175-3.14-2.625V9.376c0-1.45 1.406-2.625 3.141-2.625H6.63c.256 0 .504-.079.695-.221l6.271-4.659c1.126-.836 2.905-.168 2.905 1.09v3.68l4.171-4.171a.75.75 0 1 1 1.06 1.06l-18.2 18.202a.75.75 0 0 1-1.061-1.06zm3.874 2.037a.375.375 0 0 1-.041-.567l6.134-6.134a.375.375 0 0 1 .64.266v8.189c0 1.258-1.78 1.926-2.905 1.09zm11.216-11.37a.39.39 0 0 1 .04-.494l.628-.628a.363.363 0 0 1 .547.03C23.338 8.318 24 10.096 24 12c0 2.137-.832 4.113-2.24 5.709-.28.319-.818.386-1.198.15s-.46-.688-.179-1.008c1.196-1.356 1.903-3.033 1.903-4.851 0-1.489-.474-2.884-1.303-4.085"/><path d="M18.596 9.848a.4.4 0 0 0-.08.43c.221.54.341 1.118.341 1.722a4.6 4.6 0 0 1-.753 2.51c-.226.35-.071.786.345.975.416.19.937.06 1.162-.29.613-.951.96-2.04.96-3.195 0-.989-.254-1.93-.712-2.776a.355.355 0 0 0-.567-.072z"/></svg>