<svg xmlns="http://www.w3.org/2000/svg" viewBox="0 0 24 24"><path d="M21.045 9.695v-.001l-6.74-6.739a3.26 3.26 0 00-4.61 0l-6.74 6.74a3.26 3.26 0 000 4.61l6.74 6.74a3.26 3.26 0 004.61 0l6.74-6.74a3.26 3.26 0 000-4.61zM18 13.916a.317.317 0 01-.417.282L13.5 12.864c-.207-.06-.5.3-.5.5v1.5a1.437 1.437 0 00.337.813l.331.221 1.125.636.003.002a.72.72 0 01.09 1.013.66.66 0 01-.783.275l-1.963-.96a.541.541 0 00-.14-.038.541.541 0 00-.14.038l-1.963.96a.66.66 0 01-.783-.275l-.002-.003a.72.72 0 01.095-1.012l1.125-.637.331-.22a1.437 1.437 0 00.337-.813v-1.5c0-.2-.293-.56-.5-.5l-4.083 1.334A.317.317 0 016 13.916v-.748a.582.582 0 01.303-.501l4.42-2.817A.579.579 0 0011 9.364V6.348a1.452 1.452 0 01.343-.985l.064-.09a.78.78 0 011.186 0l.064.091a1.444 1.444 0 01.343.984v3.016a.579.579 0 00.278.486l4.42 2.818a.582.582 0 01.302.5z"/></svg>