<svg xmlns="http://www.w3.org/2000/svg" viewBox="0 0 24 24"><path d="M22.158 14.184l-1.394-.986a1.45 1.45 0 01-.001-2.396l1.393-.986a.79.79 0 00.304-.889 10.457 10.457 0 00-2.473-4.084.866.866 0 00-.952-.187l-1.571.663a1.576 1.576 0 01-.62.125 1.53 1.53 0 01-1.542-1.327l-.19-1.645a.82.82 0 00-.653-.699 12.34 12.34 0 00-2.447-.273 12.484 12.484 0 00-2.47.272.82.82 0 00-.652.7l-.191 1.642a1.493 1.493 0 01-.766 1.126 1.6 1.6 0 01-1.4.078l-1.57-.662a.866.866 0 00-.952.187 10.457 10.457 0 00-2.473 4.084.79.79 0 00.305.89l1.393.985a1.452 1.452 0 01.001 2.397l-1.395.986a.79.79 0 00-.304.89 10.462 10.462 0 002.471 4.088.867.867 0 00.952.188l1.578-.664a1.607 1.607 0 011.393.075 1.488 1.488 0 01.766 1.121l.19 1.642a.82.82 0 00.64.697 11.14 11.14 0 004.942 0 .82.82 0 00.642-.697l.19-1.644a1.48 1.48 0 01.764-1.124 1.606 1.606 0 011.396-.075l1.577.663a.866.866 0 00.952-.188 10.463 10.463 0 002.471-4.083.79.79 0 00-.304-.89zM12 15a3 3 0 113-3 3 3 0 01-3 3z"/></svg>