<svg xmlns="http://www.w3.org/2000/svg" viewBox="0 0 24 24"><path d="M7.5 0h3a2.25 2.25 0 0 1 2.25 2.25V12h.75c.077 0 .153.004.228.011.332.034.315.441.01.578a6.751 6.751 0 0 0-3.211 9.308c.14.265-.043.603-.343.603H6.75v.375a1.125 1.125 0 0 1-2.25 0V22.5a2.25 2.25 0 0 1-2.25-2.25v-6A2.25 2.25 0 0 1 4.5 12h.75V2.248A2.25 2.25 0 0 1 7.5 0Zm3.75 2.625a.375.375 0 0 0-.375-.375h-3.75a.375.375 0 0 0-.375.375V12h4.5V2.625Zm10.5 16.125a5.25 5.25 0 1 1-10.5 0 5.25 5.25 0 0 1 10.5 0Zm-6-3V18H13.5a.75.75 0 0 0 0 1.5h2.25v2.25a.75.75 0 0 0 1.5 0V19.5h2.25a.75.75 0 0 0 0-1.5h-2.25v-2.25a.75.75 0 0 0-1.5 0Z"/></svg>