<svg xmlns="http://www.w3.org/2000/svg" viewBox="0 0 24 24"><path d="M23.258 9.093A.925.925 0 0 0 24 8.25V6a3 3 0 0 0-3-3H3a3 3 0 0 0-3 3v2.25a.925.925 0 0 0 .742.843 3 3 0 0 1 2.162 2.162 3 3 0 0 1-2.162 3.652.925.925 0 0 0-.742.843V18a3 3 0 0 0 3 3h18a3 3 0 0 0 3-3v-2.25a.925.925 0 0 0-.742-.843 3.001 3.001 0 0 1 0-5.814M6 11.25v-3a.75.75 0 0 1 1.5 0v1.045a5.25 5.25 0 0 1 9.047.079.75.75 0 1 1-1.298.752 3.752 3.752 0 0 0-6.687.374H9.75a.75.75 0 0 1 0 1.5h-3a.75.75 0 0 1-.75-.75m12 4.5a.75.75 0 0 1-1.5 0v-1.045a5.25 5.25 0 0 1-9.047-.079.75.75 0 0 1 1.298-.752 3.751 3.751 0 0 0 6.687-.374H14.25a.75.75 0 0 1 0-1.5h3a.75.75 0 0 1 .75.75zm-6.001-7.5"/></svg>