<svg xmlns="http://www.w3.org/2000/svg" viewBox="0 0 24 24"><path d="M23.258 9.093A.925.925 0 0024 8.25V6a3 3 0 00-3-3H3a3 3 0 00-3 3v2.25a.925.925 0 00.742.843 3.001 3.001 0 012.162 2.162 3.001 3.001 0 01-2.162 3.652.925.925 0 00-.742.843V18a3 3 0 003 3h18a3 3 0 003-3v-2.25a.925.925 0 00-.742-.843 3.001 3.001 0 010-5.814zM6 11.25v-3a.75.75 0 011.5 0v1.045a5.251 5.251 0 019.047.079.75.75 0 11-1.298.752 3.752 3.752 0 00-6.687.374H9.75a.75.75 0 010 1.5h-3a.75.75 0 01-.75-.75zm12 4.5a.75.75 0 01-1.5 0v-1.045a5.251 5.251 0 01-9.047-.079.75.75 0 011.298-.752 3.751 3.751 0 006.687-.374H14.25a.75.75 0 010-1.5h3a.75.75 0 01.75.75zm-6.001-7.5H12h-.001z"/></svg>