<svg xmlns="http://www.w3.org/2000/svg" viewBox="0 0 24 24"><path d="M18.842 20.72a.49.49 0 0 0-.634-.215 8 8 0 0 1-3.204.696c-1.849 0-3.23-.686-3.624-.906a8 8 0 0 0-.971-.446l1.552-5.453 6.16 1.75a.8.8 0 0 0 1.019-.78 8.26 8.26 0 0 0-1.979-5.263c.41-.617.639-1.352.639-2.103 0-2.095-1.704-3.8-3.8-3.8a3.815 3.815 0 0 0-3.706 2.97 8.25 8.25 0 0 0-6.49 3.84.8.8 0 0 0 .457 1.199l6.161 1.75-1.55 5.443a9 9 0 0 0-1.876-.202c-1.74 0-3.151.511-3.908.858a.496.496 0 0 0-.223.694l.291.526a.49.49 0 0 0 .635.217 7.9 7.9 0 0 1 3.205-.695c1.846 0 3.23.686 3.623.904.464.257 2.152 1.096 4.385 1.096a9.5 9.5 0 0 0 3.91-.858.496.496 0 0 0 .221-.695zM14 5.8c1.213 0 2.2.987 2.2 2.2 0 .336-.086.663-.231.96a8.3 8.3 0 0 0-2.874-1.486 8.5 8.5 0 0 0-1.15-.237A2.2 2.2 0 0 1 14 5.8m-1.343 3.213a6.67 6.67 0 0 1 4.78 5.275l-11.619-3.3a6.67 6.67 0 0 1 6.84-1.975m.809-5.857a.73.73 0 0 1-.216-.534V1.42c0-.112.069-.198.172-.241.121-.06.32-.095.578-.095.259 0 .457.035.578.095.095.052.172.13.172.241v1.202a.8.8 0 0 1-.216.534.73.73 0 0 1-.534.216.8.8 0 0 1-.534-.216m3.807 1.571a.8.8 0 0 1-.226-.53c0-.195.073-.378.226-.53l.85-.85c.078-.08.188-.091.292-.049.128.043.293.159.475.342.183.183.3.347.342.475.03.104.03.213-.05.293l-.849.85a.8.8 0 0 1-.53.225.73.73 0 0 1-.53-.226m-8.456-.85c-.08-.079-.091-.188-.049-.292.043-.128.159-.292.342-.475s.347-.299.475-.342c.104-.03.214-.03.293.05l.85.849a.8.8 0 0 1 .225.53.73.73 0 0 1-.226.53.8.8 0 0 1-.53.226.73.73 0 0 1-.53-.226zM20.916 8c0 .259-.035.457-.095.578-.052.094-.13.172-.241.172h-1.202a.8.8 0 0 1-.534-.216.73.73 0 0 1-.216-.534.78.78 0 0 1 .216-.534.73.73 0 0 1 .534-.216h1.202c.112 0 .198.069.241.172.06.121.095.32.095.578"/></svg>