<svg xmlns="http://www.w3.org/2000/svg" viewBox="0 0 24 24"><path d="M22.612 4.93a2.15 2.15 0 0 0-1.322-1.16 3.28 3.28 0 0 0-2.744.546 9.3 9.3 0 0 0-2.093 2.043 26 26 0 0 0-2.338 3.71L7.7 8.036a3 3 0 0 0-2.434.278L3.097 9.6a7.8 7.8 0 0 1 .841-2.939 4.8 4.8 0 0 1 2.403-2.065v-.001a1.6 1.6 0 0 1 1.215.002c.169.093.421.328.421 1.053a.997.997 0 0 0 1.994 0 2.99 2.99 0 0 0-1.447-2.785 3.6 3.6 0 0 0-2.855-.136l-.044.015-.043.018a6.8 6.8 0 0 0-3.385 2.933 11.1 11.1 0 0 0-1.185 5.138L1 10.84l.003.34Q1 11.386 1 11.594a1 1 0 0 0 .029.238c.242 4.166 2.057 9.668 7.8 9.668a13.1 13.1 0 0 0 11.075-5.887q.3-.403.571-.83a17.6 17.6 0 0 0 1.905-4.198 12.3 12.3 0 0 0 .611-4.002 4.25 4.25 0 0 0-.379-1.653m-2.14 5.08a15.6 15.6 0 0 1-1.683 3.716 9 9 0 0 1-1.428 1.773c-.833-.488-1.424-1.773-1.324-4.802h.001a23 23 0 0 1 1.99-3.122 7.3 7.3 0 0 1 1.617-1.606 1.32 1.32 0 0 1 1.082-.298c.003.001.005.001.014.009a.4.4 0 0 1 .082.123 2.4 2.4 0 0 1 .177.88 10.3 10.3 0 0 1-.528 3.327"/></svg>