<svg width="24" height="24" viewBox="0 0 24 24" fill="none" xmlns="http://www.w3.org/2000/svg">
<path d="M13.2856 3.02244C12.5384 2.42817 11.4753 2.44487 10.7472 3.06232L3.70652 9.03247C3.25837 9.41248 3 9.97032 3 10.5579V19C3 20.1046 3.89543 21 5 21L7 21C8.10457 21 9 20.1046 9 19V15C9 13.8954 9.89543 13 11 13H13C14.1046 13 15 13.8954 15 15V19C15 20.1046 15.8954 21 17 21L19 21C20.1046 21 21 20.1046 21 19V10.1227C21 9.51308 20.722 8.93678 20.2449 8.55735L13.2856 3.02244Z" fill="#161616"/>
</svg>
