<svg xmlns="http://www.w3.org/2000/svg" viewBox="0 0 24 24"><path d="M13.595 1.871c1.126-.836 2.905-.168 2.905 1.09V21.04c0 1.258-1.78 1.926-2.905 1.09l-6.27-4.66a1.17 1.17 0 0 0-.696-.22H3.14C1.406 17.248 0 16.072 0 14.622V9.376c0-1.45 1.406-2.625 3.141-2.625H6.63c.256 0 .504-.079.695-.221zm8.165 4.421c-.28-.32-.818-.387-1.198-.15-.38.236-.46.687-.179 1.007 1.196 1.356 1.903 3.033 1.903 4.851s-.707 3.495-1.903 4.851c-.281.32-.201.77.179 1.008.38.236.917.169 1.199-.15C23.168 16.113 24 14.137 24 12s-.832-4.113-2.24-5.708"/><path d="M19.611 8.805c-.225-.35-.745-.48-1.162-.29-.416.189-.57.626-.346.976A4.6 4.6 0 0 1 18.857 12a4.6 4.6 0 0 1-.753 2.51c-.226.35-.071.786.345.975.416.19.937.06 1.162-.29.613-.951.96-2.04.96-3.195a5.87 5.87 0 0 0-.96-3.195"/></svg>