<svg xmlns="http://www.w3.org/2000/svg" viewBox="0 0 24 24"><path d="M4.094 1.072c-.025-.096-.163-.096-.188 0-.214.824-.734 2.775-.896 2.938-.163.162-2.114.682-2.938.896-.096.025-.096.163 0 .188.824.214 2.775.734 2.938.896.162.163.682 2.114.896 2.938.025.096.163.096.188 0 .214-.824.734-2.775.896-2.938.163-.162 2.114-.682 2.938-.896.096-.025.096-.163 0-.188-.824-.214-2.775-.734-2.938-.896-.162-.163-.682-2.114-.896-2.938Zm9.475 2.256c.115-.437.747-.437.862 0 .638 2.42 1.797 6.668 2.185 7.056.388.388 4.635 1.547 7.056 2.185.437.115.437.747 0 .862-2.42.638-6.668 1.797-7.056 2.185-.388.388-1.547 4.635-2.185 7.056-.115.437-.747.437-.862 0-.638-2.42-1.797-6.668-2.185-7.056-.388-.388-4.635-1.547-7.056-2.185-.437-.115-.437-.747 0-.862 2.42-.638 6.668-1.797 7.056-2.185.388-.388 1.547-4.635 2.185-7.056ZM6.953 18.036c.013-.048.081-.048.094 0 .107.412.367 1.387.448 1.469.082.081 1.057.341 1.47.448.047.013.047.081 0 .094-.413.107-1.388.367-1.47.448-.081.081-.341 1.057-.448 1.47-.013.047-.081.047-.094 0-.107-.413-.367-1.389-.448-1.47-.082-.081-1.057-.341-1.47-.448-.047-.013-.047-.081 0-.094.413-.107 1.388-.367 1.47-.448.081-.081.341-1.057.448-1.47Z"/></svg>