<svg xmlns="http://www.w3.org/2000/svg" viewBox="0 0 24 24"><path d="M21.805 11.166L15.45 3.54A1.5 1.5 0 0014.297 3H3a1.5 1.5 0 00-1.5 1.5V15A1.5 1.5 0 003 16.5h10.5a3 3 0 013 3A1.5 1.5 0 0018 21h3a1.5 1.5 0 001.5-1.5v-6.414a3 3 0 00-.695-1.92zM9 9.75a.75.75 0 01-.75.75h-3a.75.75 0 01-.75-.75v-3A.75.75 0 015.25 6h3a.75.75 0 01.75.75zm7.129.576a.75.75 0 01-.48.174H12.75a.75.75 0 01-.75-.75v-3a.75.75 0 01.75-.75h.399a.75.75 0 01.576.27l2.5 3a.75.75 0 01-.096 1.056zM15 19.5a1.5 1.5 0 01-1.5 1.5H3a1.5 1.5 0 010-3h10.5a1.5 1.5 0 011.5 1.5z"/></svg>