<svg xmlns="http://www.w3.org/2000/svg" viewBox="0 0 24 24"><path d="M12 6.688A18 18 0 0 0 2.465 9.38a.66.66 0 0 1-.845-.12L.556 8.044a.727.727 0 0 1 .152-1.098l.019-.012A21.3 21.3 0 0 1 12 3.75a21.3 21.3 0 0 1 11.274 3.183l.02.012a.727.727 0 0 1 .15 1.098l-1.062 1.218a.66.66 0 0 1-.844.12A18 18 0 0 0 12 6.687zm-6.444 7.083a.79.79 0 0 0 .968.161 11.64 11.64 0 0 1 10.954.001.79.79 0 0 0 .968-.162l1.007-1.153a.717.717 0 0 0-.171-1.1 14.95 14.95 0 0 0-14.562 0 .716.716 0 0 0-.171 1.1zm3.82 4.386 1.52 1.62a1.526 1.526 0 0 0 2.209 0l1.52-1.62a1.14 1.14 0 0 0-.183-1.835 5.5 5.5 0 0 0-4.883 0 1.14 1.14 0 0 0-.183 1.835"/></svg>