<svg xmlns="http://www.w3.org/2000/svg" viewBox="0 0 24 24"><path d="M12 6.688A17.987 17.987 0 002.465 9.38a.658.658 0 01-.845-.12L.556 8.044a.727.727 0 01.152-1.098l.019-.012A21.283 21.283 0 0112 3.75a21.291 21.291 0 0111.274 3.183l.02.012a.727.727 0 01.15 1.098l-1.062 1.218a.658.658 0 01-.844.12A18.002 18.002 0 0012 6.687zm-6.444 7.083a.787.787 0 00.968.161 11.637 11.637 0 0110.954.001.787.787 0 00.968-.162l1.007-1.153a.717.717 0 00-.171-1.1 14.949 14.949 0 00-14.562 0 .716.716 0 00-.171 1.1l1.006 1.153zm3.82 4.386l1.52 1.62a1.526 1.526 0 002.209 0l1.52-1.62a1.139 1.139 0 00-.183-1.835 5.497 5.497 0 00-4.883 0 1.139 1.139 0 00-.183 1.835z"/></svg>