<svg xmlns="http://www.w3.org/2000/svg" viewBox="0 0 24 24"><path d="M15.471 16.5a.44.44 0 0 1 .431.545 13.8 13.8 0 0 1-1.001 2.77C13.895 21.826 12.783 22.5 12 22.5s-1.895-.673-2.901-2.686a13.8 13.8 0 0 1-1.001-2.77.44.44 0 0 1 .43-.544zm2.461 0a.46.46 0 0 0-.444.36 15.5 15.5 0 0 1-1.376 3.88c-.207.389.169.86.563.664a10.55 10.55 0 0 0 4.487-4.272.427.427 0 0 0-.384-.632zM7.888 20.74c.207.389-.169.86-.563.664a10.55 10.55 0 0 1-4.487-4.272.427.427 0 0 1 .384-.632h2.846a.46.46 0 0 1 .445.36 15.5 15.5 0 0 0 1.375 3.88m-.236-6.129a.443.443 0 0 0 .442.389h7.812a.443.443 0 0 0 .442-.389A22 22 0 0 0 16.5 12a22 22 0 0 0-.152-2.611.443.443 0 0 0-.442-.389H8.094a.443.443 0 0 0-.442.389 22.5 22.5 0 0 0 0 5.222M5.677 9a.46.46 0 0 1 .453.508 23.7 23.7 0 0 0 0 4.984.46.46 0 0 1-.453.508H2.494a.716.716 0 0 1-.704-.54 10.6 10.6 0 0 1 0-4.92.716.716 0 0 1 .704-.54zm2.421-2.045a.44.44 0 0 0 .43.545h6.943a.44.44 0 0 0 .431-.545 13.8 13.8 0 0 0-1.001-2.77C13.895 2.174 12.783 1.5 12 1.5s-1.895.673-2.901 2.686a13.8 13.8 0 0 0-1.001 2.77zm-.773-4.359c.394-.197.77.276.563.665A15.5 15.5 0 0 0 6.513 7.14a.46.46 0 0 1-.445.36H3.222a.427.427 0 0 1-.384-.632 10.55 10.55 0 0 1 4.487-4.272m9.35 0c-.394-.197-.77.276-.563.665a15.5 15.5 0 0 1 1.376 3.879.456.456 0 0 0 .444.36h2.846a.427.427 0 0 0 .384-.632 10.55 10.55 0 0 0-4.487-4.272m1.195 6.912A.46.46 0 0 1 18.323 9h3.183a.715.715 0 0 1 .704.54 10.6 10.6 0 0 1 0 4.92.716.716 0 0 1-.704.54h-3.183a.46.46 0 0 1-.453-.508 23.7 23.7 0 0 0 0-4.984"/></svg>