<svg xmlns="http://www.w3.org/2000/svg" viewBox="0 0 24 24"><path d="M23 13.486a4.5 4.5 0 01-4.381 4.498l-1.725 3.45a1 1 0 11-1.808-.854l.02-.04 1.276-2.554h-1.764l-1.724 3.447a1 1 0 11-1.816-.838l.028-.056 1.276-2.553h-1.764l-1.724 3.447a1 1 0 11-1.816-.838l.028-.056 1.276-2.553H8a3.998 3.998 0 01-.884-7.897A1.432 1.432 0 008.18 9.087a5.502 5.502 0 0110.38-.759 1.341 1.341 0 00.936.77A4.502 4.502 0 0123 13.485z"/><path d="M14.311 3.52a.294.294 0 01-.262.49A6.503 6.503 0 007.24 8.73a.562.562 0 01-.411.393A5.002 5.002 0 003 13.986a.244.244 0 01-.378.217A3.997 3.997 0 014.116 7.09 1.432 1.432 0 005.18 6.087a5.502 5.502 0 019.131-2.567z"/><path d="M18.5 17.986a4.847 4.847 0 01-.5-.027v.027H8a3.998 3.998 0 01-.884-7.897A1.432 1.432 0 008.18 9.087a5.502 5.502 0 0110.38-.759 1.341 1.341 0 00.936.77 4.502 4.502 0 01-.996 8.888z"/></svg>