<svg xmlns="http://www.w3.org/2000/svg" viewBox="0 0 24 24"><path d="M6 1.8A1.8 1.8 0 017.8 0h2.4A1.8 1.8 0 0112 1.8v1.95a.75.75 0 01-1.5 0V3h-3v.75a.75.75 0 01-1.5 0V1.8zM5.25 6h7.5A2.25 2.25 0 0115 8.25v3.455a.39.39 0 01-.333.381 6.752 6.752 0 00-4.89 9.811c.14.265-.043.603-.343.603H7.5v.375a1.125 1.125 0 01-2.25 0V22.5A2.25 2.25 0 013 20.25v-12A2.25 2.25 0 015.25 6zM21 18.75a5.25 5.25 0 11-10.5 0 5.25 5.25 0 0110.5 0zm-6-3V18h-2.25a.75.75 0 000 1.5H15v2.25a.75.75 0 001.5 0V19.5h2.25a.75.75 0 000-1.5H16.5v-2.25a.75.75 0 00-1.5 0z"/></svg>