<svg xmlns="http://www.w3.org/2000/svg" viewBox="0 0 24 24"><path d="M12 4a2.467 2.467 0 00-.96.182.433.433 0 00-.24.418v1.508c0 .592.6.892 1.2.892s1.2-.3 1.2-.892V4.6a.436.436 0 00-.243-.413A2.377 2.377 0 0012 4zm3 5.302v3.921a1.493 1.493 0 01-.254.85c-.066.092-.14.184-.214.277a1.797 1.797 0 00-.477.88l-.408 3.875a1 1 0 01-.994.895h-1.235a1 1 0 01-.995-.895l-.408-3.875a1.785 1.785 0 00-.563-.943q-.08-.086-.157-.175A1.232 1.232 0 019 13.3V9.378a.92.92 0 01.536-.856 6.28 6.28 0 012.5-.523 6.198 6.198 0 012.428.45.906.906 0 01.536.852z"/></svg>