<svg xmlns="http://www.w3.org/2000/svg" viewBox="0 0 24 24"><path d="M1.5 15.729a.727.727 0 0 1 .885-.66 4.5 4.5 0 0 0 .865.081 3.75 3.75 0 0 0 1.873-.447 4.1 4.1 0 0 0 1.118-.958q.188-.221.367-.45a4 4 0 0 1 .294-.332.6.6 0 0 1 .431-.213.84.84 0 0 1 .579.24 4 4 0 0 1 .34.334l.114.124c.094.103.199.217.305.326a4.4 4.4 0 0 0 1.256.943A4.64 4.64 0 0 0 12 15.15a4.64 4.64 0 0 0 2.073-.433 4.5 4.5 0 0 0 1.256-.943c.106-.11.212-.224.306-.327l.114-.123a4 4 0 0 1 .34-.335.84.84 0 0 1 .578-.239.6.6 0 0 1 .43.213 4 4 0 0 1 .294.331l.1.124c.082.103.175.217.268.327a4.1 4.1 0 0 0 1.118.958 3.77 3.77 0 0 0 1.873.447 4.5 4.5 0 0 0 .865-.081.727.727 0 0 1 .885.66v1.221a4.735 4.735 0 0 1-4.667 4.8H6.167a4.735 4.735 0 0 1-4.667-4.8zM12 5.25a1.5 1.5 0 1 0-1.5-1.5 1.5 1.5 0 0 0 1.5 1.5m7.5.75a2.25 2.25 0 1 1-2.25-2.25A2.25 2.25 0 0 1 19.5 6"/><path d="M12 12.75a3 3 0 1 0-3-3 3 3 0 0 0 3 3"/></svg>