<svg xmlns="http://www.w3.org/2000/svg" viewBox="0 0 24 24"><path d="M22 7.382a2 2 0 0 0-.514.068.65.65 0 0 1-.747-.279l-.057-.103-1.53-2.75a3.99 3.99 0 0 0-3.473-2.068H8.321a3.99 3.99 0 0 0-3.473 2.068l-1.53 2.75q-.03.05-.057.103a.65.65 0 0 1-.747.279A2 2 0 0 0 2 7.382a2.026 2.026 0 0 0-2 2.052c0 .958.14 1.566 1.005 1.792a.626.626 0 0 1 .495.577v8.447a1.5 1.5 0 0 0 1.5 1.5h1.5a1.5 1.5 0 0 0 1.5-1.5v-1.5h12v1.5a1.5 1.5 0 0 0 1.5 1.5H21a1.5 1.5 0 0 0 1.5-1.5v-8.447a.626.626 0 0 1 .495-.577C23.86 11 24 10.393 24 9.434a2.026 2.026 0 0 0-2-2.052M6 10.5v-3a.75.75 0 0 1 1.5 0v1.045a5.25 5.25 0 0 1 9.047.079.75.75 0 0 1-1.298.752 3.752 3.752 0 0 0-6.687.374H9.75a.75.75 0 0 1 0 1.5h-3A.75.75 0 0 1 6 10.5M18 15a.75.75 0 0 1-1.5 0v-1.045a5.25 5.25 0 0 1-9.047-.079.75.75 0 0 1 1.298-.752 3.751 3.751 0 0 0 6.687-.374H14.25a.75.75 0 0 1 0-1.5h3A.75.75 0 0 1 18 12z"/></svg>