<svg xmlns="http://www.w3.org/2000/svg" viewBox="0 0 24 24"><path d="M16.667 14.722c-.217 0-.383.074-.579.238a4 4 0 0 0-.34.334l-.114.125c-.094.103-.198.218-.304.327-.316.324-.711.675-1.257.941-.549.268-1.219.434-2.073.434s-1.524-.166-2.073-.433c-.546-.267-.941-.618-1.257-.942-.106-.11-.21-.224-.304-.327l-.115-.125a4 4 0 0 0-.34-.334c-.195-.164-.36-.238-.578-.238-.143 0-.263.05-.43.212-.09.086-.184.194-.295.331l-.098.123c-.083.103-.175.219-.268.328-.276.325-.628.685-1.12.958-.496.277-1.103.447-1.872.447a4.4 4.4 0 0 1-.865-.08c-.424-.085-.885.215-.885.659 0 2.65 2.09 4.8 4.667 4.8h11.666c2.577 0 4.667-2.15 4.667-4.8 0-.444-.461-.744-.885-.66a4.4 4.4 0 0 1-.865.081c-.77 0-1.376-.17-1.873-.447-.49-.273-.843-.633-1.119-.958-.093-.11-.185-.225-.268-.328l-.098-.123a4 4 0 0 0-.294-.33c-.168-.162-.288-.213-.431-.213"/><path d="M15.002 1.5A3.6 3.6 0 0 0 11.4 5.1v2.4H6V5.1a.601.601 0 0 1 1.157-.225 1.5 1.5 0 1 0 2.78-1.125A3.6 3.6 0 0 0 3 5.1v9.888c.081.004.165.012.25.012.77 0 1.376-.17 1.873-.447.359-.2.642-.448.877-.693V12h5.4v2.97q.285.028.6.03c.854 0 1.524-.166 2.073-.434q.174-.085.328-.181V5.1a.601.601 0 0 1 1.157-.226 1.5 1.5 0 1 0 2.78-1.125 3.6 3.6 0 0 0-3.337-2.25M6 10.5V9h5.4v1.5z"/></svg>