<svg xmlns="http://www.w3.org/2000/svg" viewBox="0 0 24 24"><path d="M18 5h1.252A1.73 1.73 0 0 1 21 6.712v10.575A1.73 1.73 0 0 1 19.252 19H18a1 1 0 0 1-1-1V6a1 1 0 0 1 1-1M3 6.712v10.576A1.73 1.73 0 0 0 4.747 19H6a1 1 0 0 0 1-1V6a1 1 0 0 0-1-1H4.747A1.73 1.73 0 0 0 3 6.712M1 9c-.55 0-1 .336-1 .75v4.5c0 .414.45.75 1 .75.552 0 1-.336 1-.75v-4.5C2 9.336 1.552 9 1 9m22 0c-.55 0-1 .336-1 .75v4.5c0 .414.45.75 1 .75.552 0 1-.336 1-.75v-4.5c0-.414-.448-.75-1-.75M9 13a1 1 0 0 1 0-2h6a1 1 0 0 1 0 2z"/></svg>