<svg xmlns="http://www.w3.org/2000/svg" viewBox="0 0 24 24"><path d="M12.237 7.688c.666 1.39 1.81 5.734 1.301 8.138-.091.433-.553.646-.968.495l-2.24-.816-1.677 4.612c1.098.787 2.35 1.355 3.7 1.355h2.071c.53 0 .958.429.958.958a.12.12 0 0 1-.12.12H2.007a.507.507 0 0 1-.507-.507c0-.374.1-.742.306-1.053 1.028-1.55 2.612-3.197 5.129-2.003l1.516-4.166-2.019-.733c-.415-.152-.63-.613-.423-1.002 1.155-2.17 4.824-4.761 6.228-5.398"/><path d="M12.237 7.688c3.29 1.197 5.7 5.48 5.294 8.75-.109.878-1.061 1.304-1.908.995l-.288-.104a.65.65 0 0 1-.426-.684c.245-2.242.146-6.748-2.672-8.957m-9.681 3.3c1.792-2.767 6.391-4.498 9.681-3.3-3.579-.12-6.55 3.27-7.804 5.144a.65.65 0 0 1-.766.25l-.288-.105c-.847-.308-1.304-1.247-.823-1.99m9.611-4.76A3.751 3.751 0 0 1 18.99 9.1a3.73 3.73 0 0 1-1.22 1.971c-1.044-2.111-2.928-3.875-5.396-4.774zm8.867 2.403.91.222a.937.937 0 0 1-.442 1.822l-.91-.22a.938.938 0 0 1 .442-1.823M20.46 4a.939.939 0 0 1 .976 1.601l-.8.488a.938.938 0 0 1-.976-1.6zm-9.02-2.186a.936.936 0 0 1 1.287.313l.49.8a.938.938 0 0 1-1.6.977l-.489-.8a.94.94 0 0 1 .312-1.29m5.67-.887c.504.122.812.63.69 1.133l-.219.91a.937.937 0 0 1-1.822-.44l.22-.913a.94.94 0 0 1 1.132-.69"/></svg>