<svg xmlns="http://www.w3.org/2000/svg" viewBox="0 0 24 24"><path d="M24 13.11v1c0 1 0 2.5-1 2.5h-.501a.56.56 0 0 1-.534-.5 2.89 2.89 0 0 0-2.97-2.5 2.87 2.87 0 0 0-2.97 2.5c-.036.274-.256.39-.532.39H8.72a.77.77 0 0 1-.807-.618 2.896 2.896 0 0 0-2.93-2.272 2.873 2.873 0 0 0-2.962 2.457.624.624 0 0 1-.584.541h-.03a1 1 0 0 1-.09-.002C.332 16.61.073 14.981.005 14.124a1.7 1.7 0 0 1 .225-.966l1.658-2.997A1.3 1.3 0 0 1 3 9.501h11c1 0 .88-.79.194-1.289a6.8 6.8 0 0 0-1.596-.924 8.7 8.7 0 0 0-3.061-.504 14.7 14.7 0 0 0-3.226.386c-1.39.31-3.24.884-4.401 1.284a.547.547 0 0 1-.69-.377l-.003-.012a.626.626 0 0 1 .334-.78 31.5 31.5 0 0 1 4.52-1.407A15.2 15.2 0 0 1 9.49 5.5a10 10 0 0 1 3.5.543 16.8 16.8 0 0 1 4.05 2.904 1.13 1.13 0 0 0 .668.287 12.7 12.7 0 0 1 4.79 1.376 2.75 2.75 0 0 1 1.5 2.5z"/><path d="M6.986 16.5a2 2 0 0 1-2 2h-.002a2 2 0 1 1 2.002-2.002zm14.01 0a2 2 0 0 1-2 2 2 2 0 1 1 2.002-2.002v.002z"/></svg>