<svg xmlns="http://www.w3.org/2000/svg" viewBox="0 0 24 24"><path d="M22.505 10.062A.616.616 0 0023 9.5V7a3 3 0 00-3-3H4a3 3 0 00-3 3v2.5a.616.616 0 00.495.562 2 2 0 010 3.876A.615.615 0 001 14.5V17a3 3 0 003 3h16a3 3 0 003-3v-2.5a.615.615 0 00-.495-.562 2 2 0 010-3.876zM6 11V8a1 1 0 012 0v.839a5 5 0 017.157-.61 1 1 0 01-1.313 1.508A3 3 0 009.638 10H10a1 1 0 010 2H7a1 1 0 01-1-1zm12 4a1 1 0 01-2 0v-.175a5.002 5.002 0 01-7.434.925 1 1 0 011.324-1.5A3.001 3.001 0 0014.703 13H14a1 1 0 010-2h3a1 1 0 011 1z"/></svg>