<svg xmlns="http://www.w3.org/2000/svg" viewBox="0 0 24 24"><path d="M5 2.5v-.002A1.5 1.5 0 0 1 6.5 1h3A1.5 1.5 0 0 1 11 2.5V12h1a2 2 0 0 1 2 2v5a2 2 0 0 1-2 2v1a1 1 0 1 1-2 0v-1H6v1a1 1 0 1 1-2 0v-1a2 2 0 0 1-2-2v-5a2 2 0 0 1 2-2h1V2.5ZM6 3v9h4V3a.5.5 0 0 0-.5-.5h-3A.5.5 0 0 0 6 3Zm7-.5v-.002A1.5 1.5 0 0 1 14.5 1h3A1.5 1.5 0 0 1 19 2.5V5h1a2 2 0 0 1 2 2v12a2 2 0 0 1-2 2v1a1 1 0 1 1-2 0v-1h-1.817c-.173 0-.294-.171-.256-.34.048-.212.073-.433.073-.66v-7a3 3 0 0 0-2.75-2.99.267.267 0 0 1-.25-.26V2.5Zm1 .5v2h4V3a.5.5 0 0 0-.5-.5h-3a.5.5 0 0 0-.5.5Z"/></svg>