<svg xmlns="http://www.w3.org/2000/svg" viewBox="0 0 24 24"><path d="M6.333 1h3.334C10.403 1 11 1.597 11 2.333V10.5a.5.5 0 01-1 0V3H6v7.5a.5.5 0 01-1 0V2.333C5 1.597 5.597 1 6.333 1zM2 14a2 2 0 012-2h8a2 2 0 012 2v5a2 2 0 01-2 2v1a1 1 0 11-2 0v-1H6v1a1 1 0 11-2 0v-1a2 2 0 01-2-2v-5zM13 3.5V2.333C13 1.597 13.597 1 14.333 1h3.334C18.403 1 19 1.597 19 2.333V3.5a.5.5 0 01-1 0V3h-4v.5a.5.5 0 01-1 0zm3 17V14c0-1.728-1.095-3.2-2.63-3.76a.545.545 0 01-.37-.502V5.5a.5.5 0 01.5-.5H20a2 2 0 012 2v12a2 2 0 01-2 2v1a1 1 0 11-2 0v-1h-1.5a.5.5 0 01-.5-.5z"/></svg>