<svg viewBox="0 0 24 24" xmlns="http://www.w3.org/2000/svg">
  <path d="M19.3862 5C19.8335 5 20.2642 5.12939 20.6318 5.37451C21.7031 6.08643 23.5 7.99219 23.5 12.75V15.25C23.5 16.4907 22.4907 17.5 21.25 17.5H20C20 16.1193 18.8807 15 17.5 15C16.1193 15 15 16.1193 15 17.5H8C8 16.1193 6.88071 15 5.5 15C4.11929 15 3 16.1193 3 17.5H2.25C1.00928 17.5 0 16.4907 0 15.25V7.25C0 6.00928 1.00928 5 2.25 5H19.3862ZM21.9788 11.9395C21.7961 8.34827 20.4175 7.03339 19.8008 6.62305C19.6782 6.5415 19.5391 6.50001 19.3862 6.50001H16.5V10.0215C19.1115 10.1735 20.8854 11.1028 21.9788 11.9395ZM15 6.5H2.25001C1.83644 6.5 1.5 6.83643 1.5 7.25V10H15V6.5Z"/>
  <path d="M19 17.5C19 18.3284 18.3284 19 17.5 19C16.6716 19 16 18.3284 16 17.5C16 16.6716 16.6716 16 17.5 16C18.3284 16 19 16.6716 19 17.5Z"/>
  <path d="M7 17.5C7 18.3284 6.32843 19 5.5 19C4.67157 19 4 18.3284 4 17.5C4 16.6716 4.67157 16 5.5 16C6.32843 16 7 16.6716 7 17.5Z"/>
</svg>
