<svg xmlns="http://www.w3.org/2000/svg" viewBox="0 0 24 24"><path d="M2 4a1 1 0 00-1 1v10a3 3 0 003 3h9.518a.547.547 0 00.526-.48A2.797 2.797 0 0117 15a3.007 3.007 0 012.924 2.565.543.543 0 00.518.435h1.826C23 18 23 16.5 23 15.5a6.723 6.723 0 00-1-4 6.359 6.359 0 00-3.525-2.442 1.34 1.34 0 01-.775-.432l-2.311-2.88A3.773 3.773 0 0012.015 4h-1.553a.973.973 0 00-.888 1 .973.973 0 00.888 1h1.56c1.11 0 1.622 0 2.072.603l.767 1.01A1.455 1.455 0 0114.35 10h-3.4a2 2 0 01-1.868-1.286L7.92 5.671A1.948 1.948 0 006.023 4zm15 16a2 2 0 10-2.001-2A2 2 0 0017 20z"/></svg>