<svg xmlns="http://www.w3.org/2000/svg" viewBox="0 0 24 24"><path d="M19.386 5c.448 0 .878.13 1.246.375 1.071.711 2.868 2.617 2.868 7.375v2.5c0 1.24-1.01 2.25-2.25 2.25H20a2.5 2.5 0 0 0-5 0H8a2.5 2.5 0 0 0-5 0h-.75C1.01 17.5 0 16.49 0 15.25v-8C0 6.01 1.01 5 2.25 5zm2.593 6.94c-.183-3.592-1.561-4.907-2.178-5.317a.73.73 0 0 0-.415-.123H16.5v3.521c2.611.152 4.385 1.082 5.479 1.918M15 6.5H2.25a.75.75 0 0 0-.75.75V10H15z" clip-rule="evenodd"/><path d="M19 17.5a1.5 1.5 0 1 1-3 0 1.5 1.5 0 0 1 3 0M7 17.5a1.5 1.5 0 1 1-3 0 1.5 1.5 0 0 1 3 0"/></svg>