<svg xmlns="http://www.w3.org/2000/svg" viewBox="0 0 24 24"><path d="M23.258 9.093A.925.925 0 0024 8.25V4.5a3 3 0 00-3-3H3a3 3 0 00-3 3v3.75a.925.925 0 00.742.843 3.001 3.001 0 012.162 2.162 3.001 3.001 0 01-2.162 3.652.925.925 0 00-.742.843v3.75a3 3 0 003 3h18a3 3 0 003-3v-3.75a.925.925 0 00-.742-.843 3.001 3.001 0 010-5.814zm-6.859 2.181l-1.795 1.831a.45.45 0 00-.123.388l.425 2.593a.341.341 0 01-.49.373l-2.198-1.213a.45.45 0 00-.434 0l-2.198 1.213a.341.341 0 01-.49-.373l.427-2.593a.45.45 0 00-.123-.388l-1.798-1.831a.358.358 0 01.187-.603l2.465-.373a.45.45 0 00.34-.253h.001l1.104-2.348a.33.33 0 01.604 0l1.104 2.348a.45.45 0 00.34.253l2.465.373a.358.358 0 01.187.603z"/></svg>