<svg xmlns="http://www.w3.org/2000/svg" viewBox="0 0 24 24"><path d="M10.404 9.592a1.496 1.496 0 01-.319.48l-.013.013a1.493 1.493 0 01-1.054.433h-4.5a1.5 1.5 0 010-3h.88l-3.44-3.44a1.5 1.5 0 112.085-2.156l.036.036 3.44 3.438v-.878a1.5 1.5 0 113 0v4.504a1.498 1.498 0 01-.115.57zm-.812 4.04a1.487 1.487 0 01.48.32l.013.012a1.493 1.493 0 01.433 1.054v4.5a1.5 1.5 0 01-3 0v-.879l-3.44 3.44a1.5 1.5 0 01-2.12-2.122l3.438-3.439h-.878a1.5 1.5 0 010-3h4.504a1.498 1.498 0 01.57.114zm4.372.32a1.496 1.496 0 011.05-.434h4.504a1.5 1.5 0 010 3h-.879l3.44 3.44a1.5 1.5 0 01-2.122 2.12l-3.439-3.438v.88a1.5 1.5 0 01-3 0v-4.502a1.495 1.495 0 01.433-1.054zm-.332-4.36a1.487 1.487 0 00.32.48l.012.013a1.493 1.493 0 001.054.433h4.5a1.5 1.5 0 000-3h-.879l3.44-3.44a1.5 1.5 0 00-2.122-2.12l-3.439 3.438v-.878a1.5 1.5 0 00-3 0v4.504a1.498 1.498 0 00.114.57z"/></svg>