<svg xmlns="http://www.w3.org/2000/svg" viewBox="0 0 24 24"><path d="M7.5 4A1.5 1.5 0 0 1 9 5.5V8h.5A1.5 1.5 0 0 1 11 9.5v8A1.5 1.5 0 0 1 9.5 19v.25a.75.75 0 0 1-1.5 0V19H5v.25a.75.75 0 0 1-1.5 0V19A1.5 1.5 0 0 1 2 17.5v-8A1.5 1.5 0 0 1 3.5 8H4V5.498A1.5 1.5 0 0 1 5.5 4zM5.25 5.5a.25.25 0 0 0-.25.25V8h3V5.75a.25.25 0 0 0-.25-.25zm15.55 5.97a.72.72 0 0 1 1.035 0 .764.764 0 0 1 0 1.06l-2.652 2.72 2.652 2.72a.764.764 0 0 1 0 1.06.72.72 0 0 1-1.034 0l-2.653-2.72-2.65 2.72a.72.72 0 0 1-1.034 0 .764.764 0 0 1 0-1.06l2.651-2.72-2.651-2.72a.764.764 0 0 1 0-1.06.72.72 0 0 1 1.033 0l2.651 2.72z"/></svg>