<svg xmlns="http://www.w3.org/2000/svg" viewBox="0 0 24 24"><path d="M23.93 8.998a2 2 0 00-2.44-1.431.657.657 0 01-.747-.272l-.057-.1-1.53-2.68A4 4 0 0015.684 2.5h-7.36a4 4 0 00-3.473 2.015l-1.53 2.68c-.02.033-.038.066-.057.1a.657.657 0 01-.747.272 2 2 0 10-1.008 3.871.616.616 0 01.495.562v7.5a2 2 0 002 2h1a2 2 0 002-2 1 1 0 011-1h8a1 1 0 011 1 2 2 0 002 2h1a2 2 0 002-2V12a.616.616 0 01.496-.562 2 2 0 001.43-2.44zM7.004 10.5a1 1 0 01-1-1v-3a1 1 0 012 0 .353.353 0 00.582.236 5 5 0 016.575-.007 1 1 0 01-1.313 1.508 3.001 3.001 0 00-3.949.008.146.146 0 00.105.255 1 1 0 010 2zm11 3a1 1 0 01-2 0 .056.056 0 00-.1-.032 5.002 5.002 0 01-7.334.782 1 1 0 111.324-1.5 2.998 2.998 0 004.503-.62.418.418 0 00-.393-.63 1 1 0 010-2h3a1 1 0 011 1z"/></svg>