<svg xmlns="http://www.w3.org/2000/svg" viewBox="0 0 24 24"><path d="M13.201 6.622c.669 1.382 1.824 5.697 1.322 8.082-.09.428-.552.64-.967.489l-2.239-.816-1.698 4.666q.195.145.396.312c1.007.84 2.225 1.451 3.536 1.517.976.048 2.034.11 2.777.144.405.02.692.421.571.808a.08.08 0 0 1-.072.052H3.507A.507.507 0 0 1 3 21.37c0-.374.1-.743.307-1.054.944-1.424 2.359-2.93 4.535-2.238l1.596-4.384-2.02-.735c-.414-.15-.631-.609-.425-.996 1.148-2.15 4.807-4.712 6.208-5.341"/><path d="M13.201 6.622c3.29 1.197 5.709 5.454 5.313 8.7-.107.87-1.057 1.29-1.905.982l-.287-.104a.65.65 0 0 1-.427-.679c.238-2.225.127-6.699-2.694-8.9M3.538 9.872c1.783-2.742 6.373-4.448 9.663-3.25-3.576-.128-6.536 3.228-7.784 5.086a.65.65 0 0 1-.765.245l-.286-.105c-.847-.308-1.306-1.24-.828-1.976M19.356 7.57l.604.162a.623.623 0 0 1 .446.759.62.62 0 0 1-.761.44l-.605-.16a.624.624 0 0 1-.446-.76.62.62 0 0 1 .761-.44m-5.8-1.831a2.495 2.495 0 0 1 2.65-.928A2.495 2.495 0 0 1 17.99 7.85c-.083.316-.226.6-.41.847a10 10 0 0 0-4.025-2.957m5.475-1.241a.63.63 0 0 1 .853.226.616.616 0 0 1-.223.848l-.538.31a.63.63 0 0 1-.855-.225.62.62 0 0 1 .223-.849zm-5.981-1.584a.63.63 0 0 1 .854.225l.315.537a.617.617 0 0 1-.223.849.63.63 0 0 1-.854-.227l-.316-.537a.617.617 0 0 1 .224-.847m3.787-.5a.624.624 0 0 1 .446.76l-.158.599a.62.62 0 0 1-.762.44.624.624 0 0 1-.445-.76l.156-.6a.623.623 0 0 1 .763-.44"/></svg>