<svg xmlns="http://www.w3.org/2000/svg" viewBox="0 0 24 24"><path d="M12 2.5a7.718 7.718 0 00-5.543 2.227A1.808 1.808 0 006 5.955V20.5a1 1 0 001 1h10a1 1 0 001-1V6.015a1.89 1.89 0 00-.555-1.356A7.794 7.794 0 0012 2.5zM16 7a.5.5 0 01-.5.5h-7A.5.5 0 018 7v-.583a.86.86 0 01.306-.684A6 6 0 0112 4.5a5.858 5.858 0 013.677 1.262.899.899 0 01.323.71zm5 2.447v10.106a1.925 1.925 0 01-1.01 1.669c-.494.278-.99-.194-.99-.761V8.539c0-.567.496-1.039.99-.76A1.923 1.923 0 0121 9.447zM5 8.539v11.922c0 .567-.496 1.039-.99.761A1.925 1.925 0 013 19.553V9.447a1.923 1.923 0 011.01-1.668c.494-.279.99.193.99.76z"/></svg>