<svg xmlns="http://www.w3.org/2000/svg" viewBox="0 0 24 24"><path d="M12 2.5a7.72 7.72 0 0 0-5.543 2.227A1.8 1.8 0 0 0 6 5.955V20.5a1 1 0 0 0 1 1h10a1 1 0 0 0 1-1V6.015a1.9 1.9 0 0 0-.555-1.356A7.8 7.8 0 0 0 12 2.5M16 7a.5.5 0 0 1-.5.5h-7A.5.5 0 0 1 8 7v-.583a.86.86 0 0 1 .306-.684A6 6 0 0 1 12 4.5a5.86 5.86 0 0 1 3.677 1.262.9.9 0 0 1 .323.71zm5 2.447v10.106a1.93 1.93 0 0 1-1.01 1.669c-.494.278-.99-.194-.99-.761V8.539c0-.567.496-1.039.99-.76A1.92 1.92 0 0 1 21 9.447M5 8.539v11.922c0 .567-.496 1.039-.99.761A1.93 1.93 0 0 1 3 19.553V9.447a1.92 1.92 0 0 1 1.01-1.668c.494-.279.99.193.99.76"/></svg>