<svg xmlns="http://www.w3.org/2000/svg" viewBox="0 0 24 24"><path d="M7.5 4h-2A1.5 1.5 0 0 0 4 5.498V12h-.5A1.5 1.5 0 0 0 2 13.5v4A1.5 1.5 0 0 0 3.5 19v.25a.75.75 0 0 0 1.5 0V19h3v.25a.75.75 0 0 0 1.5 0V19a1.5 1.5 0 0 0 1.5-1.5v-4A1.5 1.5 0 0 0 9.5 12H9V5.5A1.5 1.5 0 0 0 7.5 4M5.25 5.5h2.5a.25.25 0 0 1 .25.25V12H5V5.75a.25.25 0 0 1 .25-.25m15.552 5.97a.72.72 0 0 1 1.034 0 .764.764 0 0 1 0 1.06l-2.652 2.72 2.652 2.72a.764.764 0 0 1 0 1.06.72.72 0 0 1-1.034 0l-2.653-2.72-2.651 2.72a.72.72 0 0 1-1.034 0 .764.764 0 0 1 0-1.06l2.651-2.72-2.651-2.72a.764.764 0 0 1 0-1.06.72.72 0 0 1 1.034 0l2.651 2.718z"/></svg>